M48
; DRILL file {KiCad 9.0.6} date 2026-01-24T17:24:46-0800
; FORMAT={-:-/ absolute / metric / decimal}
; #@! TF.CreationDate,2026-01-24T17:24:46-08:00
; #@! TF.GenerationSoftware,Kicad,Pcbnew,9.0.6
; #@! TF.FileFunction,NonPlated,1,2,NPTH
FMAT,2
METRIC
; #@! TA.AperFunction,NonPlated,NPTH,ComponentDrill
T1C1.700
; #@! TA.AperFunction,NonPlated,NPTH,ComponentDrill
T2C4.000
%
G90
G05
T1
X40.64Y-119.697
X40.64Y-129.857
X64.453Y-67.31
X64.453Y-77.47
X64.453Y-86.36
X64.453Y-96.52
X64.453Y-105.41
X64.453Y-115.57
X64.453Y-124.46
X64.453Y-134.62
X88.265Y-76.835
X88.265Y-86.995
X88.265Y-100.647
X88.265Y-110.807
X107.315Y-67.31
X107.315Y-77.47
X107.315Y-86.36
X107.315Y-96.52
X107.315Y-110.172
X107.315Y-120.332
X126.365Y-76.835
X126.365Y-86.995
X126.365Y-100.647
X126.365Y-110.807
X154.94Y-76.835
X154.94Y-86.995
X154.94Y-95.885
X154.94Y-106.045
X154.94Y-114.935
X154.94Y-125.095
T2
X40.64Y-124.777
X64.453Y-72.39
X64.453Y-91.44
X64.453Y-110.49
X64.453Y-129.54
X88.265Y-81.915
X88.265Y-105.727
X107.315Y-72.39
X107.315Y-91.44
X107.315Y-115.252
X126.365Y-81.915
X126.365Y-105.727
X154.94Y-81.915
X154.94Y-100.965
X154.94Y-120.015
M30
