%TF.GenerationSoftware,KiCad,Pcbnew,9.0.6*%
%TF.CreationDate,2026-01-24T17:24:49-08:00*%
%TF.ProjectId,board,626f6172-642e-46b6-9963-61645f706362,rev?*%
%TF.SameCoordinates,Original*%
%TF.FileFunction,Legend,Top*%
%TF.FilePolarity,Positive*%
%FSLAX46Y46*%
G04 Gerber Fmt 4.6, Leading zero omitted, Abs format (unit mm)*
G04 Created by KiCad (PCBNEW 9.0.6) date 2026-01-24 17:24:49*
%MOMM*%
%LPD*%
G01*
G04 APERTURE LIST*
%ADD10C,0.300000*%
%ADD11C,0.150000*%
%ADD12C,0.106680*%
%ADD13C,0.120000*%
%ADD14C,0.100000*%
%ADD15C,0.504000*%
G04 APERTURE END LIST*
D10*
G36*
X39714571Y-110655422D02*
G01*
X39849594Y-110695350D01*
X39980461Y-110763023D01*
X40154180Y-110902175D01*
X40298679Y-111081027D01*
X40412868Y-111287511D01*
X40495543Y-111513092D01*
X40546512Y-111760883D01*
X40564110Y-112034612D01*
X40540330Y-112369651D01*
X40473850Y-112648133D01*
X40369619Y-112879862D01*
X40229222Y-113072614D01*
X40050204Y-113230902D01*
X39840017Y-113345229D01*
X39592466Y-113416664D01*
X39298932Y-113441909D01*
X38937906Y-113419833D01*
X38587787Y-113354036D01*
X38245936Y-113244181D01*
X37910014Y-113088642D01*
X37701817Y-112963168D01*
X37516570Y-112827058D01*
X37382841Y-112926375D01*
X37242590Y-113003157D01*
X37103865Y-113056324D01*
X37022039Y-113069835D01*
X36939426Y-113056034D01*
X36897355Y-113021627D01*
X36882912Y-112964903D01*
X36905706Y-112895123D01*
X36978014Y-112803763D01*
X37124835Y-112651814D01*
X37219296Y-112534699D01*
X37035510Y-112280747D01*
X36909031Y-112023894D01*
X36834489Y-111760974D01*
X36809609Y-111487936D01*
X36809726Y-111486226D01*
X37307986Y-111486226D01*
X37323764Y-111642661D01*
X37370833Y-111790512D01*
X37450728Y-111932660D01*
X37567433Y-112071157D01*
X37626186Y-111824696D01*
X37646721Y-111543073D01*
X37632981Y-111396092D01*
X37599752Y-111311712D01*
X37553554Y-111267823D01*
X37491993Y-111253279D01*
X37412211Y-111267536D01*
X37357614Y-111307099D01*
X37321947Y-111375572D01*
X37307986Y-111486226D01*
X36809726Y-111486226D01*
X36825653Y-111254173D01*
X36869044Y-111073653D01*
X36934606Y-110935575D01*
X37020110Y-110831406D01*
X37126544Y-110755543D01*
X37254204Y-110711843D01*
X37418689Y-110695917D01*
X37583121Y-110720760D01*
X37728091Y-110794609D01*
X37859578Y-110923521D01*
X37954986Y-111084149D01*
X38015704Y-111283760D01*
X38037601Y-111532388D01*
X38021027Y-111783994D01*
X37970200Y-112044332D01*
X37882659Y-112315644D01*
X38183429Y-112467891D01*
X38487092Y-112574658D01*
X38795991Y-112638249D01*
X39112788Y-112659507D01*
X39377406Y-112640951D01*
X39580268Y-112590892D01*
X39734179Y-112515391D01*
X39849146Y-112416918D01*
X39931558Y-112294037D01*
X39983416Y-112141609D01*
X40002046Y-111951478D01*
X39984719Y-111737646D01*
X39932868Y-111530766D01*
X39845351Y-111328271D01*
X39719304Y-111128044D01*
X39617364Y-111008485D01*
X39491487Y-110898089D01*
X39382548Y-110791375D01*
X39355779Y-110718357D01*
X39371466Y-110682870D01*
X39430481Y-110655122D01*
X39573125Y-110642061D01*
X39714571Y-110655422D01*
G37*
G36*
X39727182Y-108005857D02*
G01*
X39874539Y-108066236D01*
X39987086Y-108162355D01*
X40072286Y-108287631D01*
X40121716Y-108417554D01*
X40138181Y-108555373D01*
X40130227Y-108761128D01*
X40109330Y-108913555D01*
X40278028Y-109080100D01*
X40404361Y-109254392D01*
X40492883Y-109437993D01*
X40546057Y-109633435D01*
X40564110Y-109844059D01*
X40543918Y-110117210D01*
X40488098Y-110337959D01*
X40401461Y-110516141D01*
X40285429Y-110659372D01*
X40138008Y-110777473D01*
X39975725Y-110860464D01*
X39795429Y-110910155D01*
X39592787Y-110925658D01*
X39306113Y-110903747D01*
X39045671Y-110834998D01*
X38806342Y-110720105D01*
X38584277Y-110556576D01*
X38431826Y-110397602D01*
X38314776Y-110222903D01*
X38230620Y-110030268D01*
X38178835Y-109816405D01*
X38160913Y-109577132D01*
X38180131Y-109316413D01*
X38229942Y-109133892D01*
X38324787Y-108944210D01*
X38397926Y-108861954D01*
X38456691Y-108840679D01*
X38492489Y-108863523D01*
X38526106Y-108967135D01*
X38544527Y-109246733D01*
X38563425Y-109444849D01*
X38615889Y-109620885D01*
X38701242Y-109779092D01*
X38821498Y-109922492D01*
X38966777Y-110039830D01*
X39128316Y-110123318D01*
X39309358Y-110174472D01*
X39514354Y-110192197D01*
X39654742Y-110177321D01*
X39774970Y-110134597D01*
X39879375Y-110064397D01*
X39959497Y-109969960D01*
X40008945Y-109851444D01*
X40026623Y-109701513D01*
X40015277Y-109546975D01*
X39983893Y-109421791D01*
X39935154Y-109320463D01*
X39806229Y-109469861D01*
X39653474Y-109574947D01*
X39472272Y-109639622D01*
X39254907Y-109662403D01*
X39102930Y-109646052D01*
X38959897Y-109590416D01*
X38821712Y-109491647D01*
X38712915Y-109363558D01*
X38647478Y-109215424D01*
X38623814Y-109040927D01*
X38629583Y-108984721D01*
X39031578Y-108984721D01*
X39044639Y-109019006D01*
X39092699Y-109052682D01*
X39210669Y-109080678D01*
X39334565Y-109066709D01*
X39436820Y-109027060D01*
X39522261Y-108962281D01*
X39354650Y-108902860D01*
X39193999Y-108883849D01*
X39094757Y-108898134D01*
X39047008Y-108932122D01*
X39031578Y-108984721D01*
X38629583Y-108984721D01*
X38641922Y-108864507D01*
X38693714Y-108737362D01*
X38775336Y-108646628D01*
X38883781Y-108582029D01*
X39013199Y-108541683D01*
X39168781Y-108527376D01*
X39407659Y-108553663D01*
X39664167Y-108636583D01*
X39664167Y-108617563D01*
X39645141Y-108481387D01*
X39595671Y-108360072D01*
X39514354Y-108249978D01*
X39410704Y-108148892D01*
X39376076Y-108103606D01*
X39365610Y-108059346D01*
X39379303Y-108022457D01*
X39426562Y-107995879D01*
X39534016Y-107983906D01*
X39727182Y-108005857D01*
G37*
G36*
X38451776Y-106718086D02*
G01*
X38336671Y-106699477D01*
X38248922Y-106646627D01*
X38181602Y-106555996D01*
X38135077Y-106414501D01*
X38116888Y-106201971D01*
X38128132Y-106119503D01*
X38157277Y-106067684D01*
X38203014Y-106037198D01*
X38300038Y-106013937D01*
X38461606Y-106004287D01*
X38733381Y-106026341D01*
X39206608Y-106111998D01*
X39671988Y-106197820D01*
X39886428Y-106214794D01*
X39946729Y-106201097D01*
X39962937Y-106167777D01*
X39943980Y-106096054D01*
X39870827Y-105990182D01*
X39668655Y-105776042D01*
X39464559Y-105576648D01*
X39386804Y-105488231D01*
X39370526Y-105447993D01*
X39384422Y-105411318D01*
X39432868Y-105384639D01*
X39543846Y-105372553D01*
X39706779Y-105391809D01*
X39869877Y-105451012D01*
X40036828Y-105555262D01*
X40210416Y-105713210D01*
X40430127Y-106114427D01*
X40523222Y-106332503D01*
X40544662Y-106437054D01*
X40539747Y-106463127D01*
X40524321Y-106581893D01*
X40482392Y-106667557D01*
X40415152Y-106728772D01*
X40282386Y-106790262D01*
X40124503Y-106823447D01*
X40276663Y-106930155D01*
X40418572Y-107084390D01*
X40491321Y-107205116D01*
X40534781Y-107335915D01*
X40549577Y-107479971D01*
X40530473Y-107736009D01*
X40478970Y-107931491D01*
X40401047Y-108079435D01*
X40318758Y-108170692D01*
X40220271Y-108235498D01*
X40102370Y-108275706D01*
X39959945Y-108289942D01*
X39834821Y-108280439D01*
X39722938Y-108252970D01*
X39458361Y-108133077D01*
X38252382Y-107990744D01*
X38188620Y-107880415D01*
X38146980Y-107736158D01*
X38131634Y-107548573D01*
X38149566Y-107447423D01*
X38200475Y-107373040D01*
X38289263Y-107318889D01*
X38431473Y-107287203D01*
X38665545Y-107280738D01*
X38861676Y-107309215D01*
X39336973Y-107434023D01*
X39616305Y-107494208D01*
X39842403Y-107512242D01*
X39934860Y-107489570D01*
X39990032Y-107424527D01*
X40011877Y-107298743D01*
X39991528Y-107197718D01*
X39926441Y-107098110D01*
X39802144Y-106995442D01*
X39595137Y-106888843D01*
X39260216Y-106775555D01*
X38877705Y-106703340D01*
X38777901Y-106710820D01*
X38657581Y-106715736D01*
X38540039Y-106718086D01*
X38451776Y-106718086D01*
G37*
G36*
X39355779Y-103681232D02*
G01*
X39370343Y-103631661D01*
X39415440Y-103599608D01*
X39509225Y-103586130D01*
X39663200Y-103604266D01*
X39835350Y-103662639D01*
X40001231Y-103756232D01*
X40167887Y-103894090D01*
X40313181Y-104066334D01*
X40441225Y-104290526D01*
X40502359Y-104454918D01*
X40540778Y-104643114D01*
X40554279Y-104859215D01*
X40532129Y-105070840D01*
X40467334Y-105260708D01*
X40359160Y-105433888D01*
X40252906Y-105540374D01*
X40126795Y-105616633D01*
X39976836Y-105664130D01*
X39797096Y-105680940D01*
X39554457Y-105667482D01*
X39333835Y-105628519D01*
X39132450Y-105565535D01*
X38851969Y-105429523D01*
X38618685Y-105260567D01*
X38424867Y-105056550D01*
X38281660Y-104829937D01*
X38212522Y-104665754D01*
X38173418Y-104513776D01*
X38160913Y-104371523D01*
X38176112Y-104219417D01*
X38215797Y-104115138D01*
X38275338Y-104045510D01*
X38356407Y-104003079D01*
X38466522Y-103987696D01*
X38628448Y-104007328D01*
X38745203Y-104060358D01*
X38827594Y-104139193D01*
X38850349Y-104209957D01*
X38833241Y-104303858D01*
X38781961Y-104384132D01*
X38729180Y-104462267D01*
X38711009Y-104542921D01*
X38728974Y-104623186D01*
X38794998Y-104707479D01*
X38890661Y-104778426D01*
X39017473Y-104840195D01*
X39202428Y-104898057D01*
X39413997Y-104934612D01*
X39656259Y-104947478D01*
X39762162Y-104927584D01*
X39846652Y-104876084D01*
X39914851Y-104789331D01*
X39958231Y-104676469D01*
X39975332Y-104538433D01*
X39953597Y-104398511D01*
X39880657Y-104259965D01*
X39668655Y-104013982D01*
X39454728Y-103815016D01*
X39374110Y-103729173D01*
X39355779Y-103681232D01*
G37*
G36*
X38873003Y-102213027D02*
G01*
X38779702Y-102235057D01*
X38724931Y-102297306D01*
X38703529Y-102415840D01*
X38719261Y-102505747D01*
X38769975Y-102600267D01*
X38865752Y-102703419D01*
X39021961Y-102817833D01*
X39240077Y-102936073D01*
X39455870Y-103017882D01*
X39671219Y-103065954D01*
X39895831Y-103046506D01*
X40116596Y-103036675D01*
X40282345Y-103058668D01*
X40397249Y-103117658D01*
X40475205Y-103211706D01*
X40558767Y-103361732D01*
X40588188Y-103437941D01*
X40598518Y-103529496D01*
X40586211Y-103586878D01*
X40546862Y-103642178D01*
X40471145Y-103697901D01*
X40324369Y-103749092D01*
X40077487Y-103770136D01*
X39582860Y-103756883D01*
X39157345Y-103719717D01*
X38793288Y-103662212D01*
X38383088Y-103563747D01*
X37947378Y-103423299D01*
X37483644Y-103237018D01*
X36989341Y-103000558D01*
X36912250Y-102944155D01*
X36869589Y-102876574D01*
X36856198Y-102793684D01*
X36875435Y-102713325D01*
X36933017Y-102640687D01*
X37042342Y-102572705D01*
X37221089Y-102507457D01*
X37349874Y-102490853D01*
X37471891Y-102501901D01*
X37589446Y-102530176D01*
X37815981Y-102623569D01*
X38041661Y-102751155D01*
X38287644Y-102890282D01*
X38637919Y-102969997D01*
X38486096Y-102865401D01*
X38365445Y-102746021D01*
X38272469Y-102610928D01*
X38205365Y-102457942D01*
X38176052Y-102335576D01*
X38165828Y-102196358D01*
X38185115Y-101977423D01*
X38237242Y-101811795D01*
X38317137Y-101687294D01*
X38428498Y-101592708D01*
X38567334Y-101534510D01*
X38741997Y-101513760D01*
X39015461Y-101531328D01*
X39295299Y-101584926D01*
X39694514Y-101687936D01*
X39888565Y-101719565D01*
X39947025Y-101705984D01*
X39962937Y-101672548D01*
X39943980Y-101600826D01*
X39870827Y-101494953D01*
X39668655Y-101280813D01*
X39464559Y-101081419D01*
X39386831Y-100992970D01*
X39370526Y-100952551D01*
X39384403Y-100916001D01*
X39432830Y-100889387D01*
X39543846Y-100877324D01*
X39706779Y-100896580D01*
X39869877Y-100955784D01*
X40036828Y-101060033D01*
X40210416Y-101217982D01*
X40429519Y-101618700D01*
X40522954Y-101839103D01*
X40544662Y-101946741D01*
X40539747Y-101968967D01*
X40517358Y-102103777D01*
X40453405Y-102207239D01*
X40342802Y-102287263D01*
X40168809Y-102342925D01*
X39906089Y-102364763D01*
X39642217Y-102351371D01*
X39410490Y-102313258D01*
X39082441Y-102237390D01*
X38873003Y-102213027D01*
G37*
G36*
X39714571Y-96242652D02*
G01*
X39849594Y-96282580D01*
X39980461Y-96350252D01*
X40154180Y-96489404D01*
X40298679Y-96668257D01*
X40412868Y-96874741D01*
X40495543Y-97100322D01*
X40546512Y-97348113D01*
X40564110Y-97621842D01*
X40540330Y-97956881D01*
X40473850Y-98235363D01*
X40369619Y-98467092D01*
X40229222Y-98659843D01*
X40050204Y-98818131D01*
X39840017Y-98932459D01*
X39592466Y-99003894D01*
X39298932Y-99029138D01*
X38937906Y-99007063D01*
X38587787Y-98941265D01*
X38245936Y-98831411D01*
X37910014Y-98675872D01*
X37701817Y-98550397D01*
X37516570Y-98414288D01*
X37382841Y-98513605D01*
X37242590Y-98590387D01*
X37103865Y-98643553D01*
X37022039Y-98657065D01*
X36939426Y-98643264D01*
X36897355Y-98608856D01*
X36882912Y-98552132D01*
X36905706Y-98482353D01*
X36978014Y-98390993D01*
X37124835Y-98239043D01*
X37219296Y-98121929D01*
X37035510Y-97867977D01*
X36909031Y-97611124D01*
X36834489Y-97348204D01*
X36809609Y-97075165D01*
X36809726Y-97073455D01*
X37307986Y-97073455D01*
X37323764Y-97229890D01*
X37370833Y-97377741D01*
X37450728Y-97519890D01*
X37567433Y-97658386D01*
X37626186Y-97411925D01*
X37646721Y-97130303D01*
X37632981Y-96983322D01*
X37599752Y-96898942D01*
X37553554Y-96855053D01*
X37491993Y-96840509D01*
X37412211Y-96854766D01*
X37357614Y-96894329D01*
X37321947Y-96962801D01*
X37307986Y-97073455D01*
X36809726Y-97073455D01*
X36825653Y-96841402D01*
X36869044Y-96660883D01*
X36934606Y-96522804D01*
X37020110Y-96418636D01*
X37126544Y-96342772D01*
X37254204Y-96299072D01*
X37418689Y-96283147D01*
X37583121Y-96307990D01*
X37728091Y-96381839D01*
X37859578Y-96510750D01*
X37954986Y-96671379D01*
X38015704Y-96870989D01*
X38037601Y-97119617D01*
X38021027Y-97371224D01*
X37970200Y-97631562D01*
X37882659Y-97902874D01*
X38183429Y-98055120D01*
X38487092Y-98161888D01*
X38795991Y-98225479D01*
X39112788Y-98246737D01*
X39377406Y-98228181D01*
X39580268Y-98178122D01*
X39734179Y-98102621D01*
X39849146Y-98004148D01*
X39931558Y-97881266D01*
X39983416Y-97728838D01*
X40002046Y-97538707D01*
X39984719Y-97324875D01*
X39932868Y-97117996D01*
X39845351Y-96915501D01*
X39719304Y-96715273D01*
X39617364Y-96595714D01*
X39491487Y-96485319D01*
X39382548Y-96378605D01*
X39355779Y-96305586D01*
X39371466Y-96270099D01*
X39430481Y-96242351D01*
X39573125Y-96229291D01*
X39714571Y-96242652D01*
G37*
G36*
X39709987Y-94347111D02*
G01*
X39887069Y-94416368D01*
X40053557Y-94521016D01*
X40207210Y-94655299D01*
X40339021Y-94813463D01*
X40446141Y-94995315D01*
X40516662Y-95191293D01*
X40539747Y-95389615D01*
X40517406Y-95669669D01*
X40451395Y-95896843D01*
X40346240Y-96081713D01*
X40201505Y-96231776D01*
X40011877Y-96350680D01*
X39883698Y-96398028D01*
X39728771Y-96428590D01*
X39541923Y-96439584D01*
X39255455Y-96427717D01*
X38940322Y-96390430D01*
X38521944Y-96303739D01*
X38130450Y-96177647D01*
X37762980Y-96012587D01*
X37503067Y-95858577D01*
X37291744Y-95693514D01*
X37094469Y-95483124D01*
X36962587Y-95270998D01*
X36886992Y-95053775D01*
X36879702Y-94983347D01*
X37356927Y-94983347D01*
X37372102Y-95054721D01*
X37423992Y-95137359D01*
X37528300Y-95236784D01*
X37707201Y-95357558D01*
X37947878Y-95477492D01*
X38241306Y-95579647D01*
X38596245Y-95661030D01*
X38378024Y-95511059D01*
X38198099Y-95373159D01*
X37899329Y-95130809D01*
X37670443Y-94970097D01*
X37566192Y-94925963D01*
X37462714Y-94911754D01*
X37398872Y-94921571D01*
X37367383Y-94945407D01*
X37356927Y-94983347D01*
X36879702Y-94983347D01*
X36863464Y-94826482D01*
X36877673Y-94688860D01*
X36917243Y-94579138D01*
X36980365Y-94491167D01*
X37065704Y-94425469D01*
X37174955Y-94384107D01*
X37315253Y-94369138D01*
X37457393Y-94382723D01*
X37602312Y-94424457D01*
X37752295Y-94497151D01*
X37969043Y-94638780D01*
X38203869Y-94823704D01*
X38691347Y-95262242D01*
X38954014Y-95497165D01*
X39242512Y-95730486D01*
X39435922Y-95730486D01*
X39613724Y-95715272D01*
X39741897Y-95675053D01*
X39832786Y-95614868D01*
X39903710Y-95531474D01*
X39944426Y-95442715D01*
X39958021Y-95345590D01*
X39933775Y-95149047D01*
X39860773Y-94963284D01*
X39734284Y-94783429D01*
X39544274Y-94606572D01*
X39401767Y-94472777D01*
X39370526Y-94400553D01*
X39384316Y-94363767D01*
X39432143Y-94337141D01*
X39541282Y-94325113D01*
X39709987Y-94347111D01*
G37*
G36*
X40539747Y-94033823D02*
G01*
X40518695Y-94172480D01*
X40457816Y-94285622D01*
X40353206Y-94379912D01*
X40192131Y-94456240D01*
X39955018Y-94509638D01*
X39617150Y-94530277D01*
X39285020Y-94515893D01*
X38983471Y-94474399D01*
X38709299Y-94407820D01*
X38431229Y-94307482D01*
X38253263Y-94213961D01*
X38148102Y-94127881D01*
X38094243Y-94047925D01*
X38077779Y-93970136D01*
X38097023Y-93884192D01*
X38157253Y-93808185D01*
X38272685Y-93738686D01*
X38422172Y-93687632D01*
X38564616Y-93674572D01*
X38796426Y-93697477D01*
X39256617Y-93792114D01*
X39648469Y-93885455D01*
X39787265Y-93904527D01*
X39876692Y-93890549D01*
X39925537Y-93855373D01*
X39953345Y-93802165D01*
X39962937Y-93737831D01*
X39944171Y-93668152D01*
X39870827Y-93562587D01*
X39668655Y-93348447D01*
X39464559Y-93149053D01*
X39386831Y-93060603D01*
X39370526Y-93020184D01*
X39384403Y-92983635D01*
X39432830Y-92957020D01*
X39543846Y-92944957D01*
X39706469Y-92964423D01*
X39870490Y-93024492D01*
X40039709Y-93130706D01*
X40217041Y-93292240D01*
X40365676Y-93477045D01*
X40465465Y-93660343D01*
X40522477Y-93844779D01*
X40539747Y-94033823D01*
G37*
G36*
X37694806Y-93836780D02*
G01*
X37556165Y-93912766D01*
X37414471Y-93957252D01*
X37267167Y-93972060D01*
X37051600Y-93952749D01*
X36889537Y-93900680D01*
X36750814Y-93825930D01*
X36666635Y-93764117D01*
X36611547Y-93692457D01*
X36593973Y-93612809D01*
X36613165Y-93529084D01*
X36675966Y-93445378D01*
X36799778Y-93357636D01*
X37000871Y-93268181D01*
X37144496Y-93243514D01*
X37307680Y-93264662D01*
X37439924Y-93324799D01*
X37548627Y-93424528D01*
X37630179Y-93551480D01*
X37678460Y-93687745D01*
X37694806Y-93836780D01*
G37*
G36*
X39355779Y-91251713D02*
G01*
X39370343Y-91202143D01*
X39415440Y-91170089D01*
X39509225Y-91156611D01*
X39663200Y-91174747D01*
X39835350Y-91233120D01*
X40001231Y-91326714D01*
X40167887Y-91464571D01*
X40313181Y-91636816D01*
X40441225Y-91861008D01*
X40502359Y-92025400D01*
X40540778Y-92213595D01*
X40554279Y-92429697D01*
X40532129Y-92641321D01*
X40467334Y-92831190D01*
X40359160Y-93004370D01*
X40252906Y-93110856D01*
X40126795Y-93187114D01*
X39976836Y-93234612D01*
X39797096Y-93251421D01*
X39554457Y-93237963D01*
X39333835Y-93199000D01*
X39132450Y-93136016D01*
X38851969Y-93000004D01*
X38618685Y-92831049D01*
X38424867Y-92627031D01*
X38281660Y-92400418D01*
X38212522Y-92236236D01*
X38173418Y-92084258D01*
X38160913Y-91942005D01*
X38176112Y-91789899D01*
X38215797Y-91685620D01*
X38275338Y-91615991D01*
X38356407Y-91573560D01*
X38466522Y-91558177D01*
X38628448Y-91577809D01*
X38745203Y-91630839D01*
X38827594Y-91709674D01*
X38850349Y-91780438D01*
X38833241Y-91874339D01*
X38781961Y-91954614D01*
X38729180Y-92032749D01*
X38711009Y-92113402D01*
X38728974Y-92193667D01*
X38794998Y-92277961D01*
X38890661Y-92348908D01*
X39017473Y-92410676D01*
X39202428Y-92468538D01*
X39413997Y-92505094D01*
X39656259Y-92517960D01*
X39762162Y-92498066D01*
X39846652Y-92446565D01*
X39914851Y-92359813D01*
X39958231Y-92246950D01*
X39975332Y-92108914D01*
X39953597Y-91968993D01*
X39880657Y-91830447D01*
X39668655Y-91584464D01*
X39454728Y-91385497D01*
X39374110Y-91299655D01*
X39355779Y-91251713D01*
G37*
G36*
X39709964Y-88676918D02*
G01*
X39875773Y-88733913D01*
X40044701Y-88833641D01*
X40219392Y-88983583D01*
X40365830Y-89157094D01*
X40465450Y-89334343D01*
X40523506Y-89517927D01*
X40542097Y-89711488D01*
X40519427Y-89850796D01*
X40450419Y-89988571D01*
X40325255Y-90129597D01*
X40127472Y-90276348D01*
X39835350Y-90429134D01*
X39468192Y-90584289D01*
X40106979Y-90616987D01*
X40292481Y-90627032D01*
X40376244Y-90653073D01*
X40445072Y-90712517D01*
X40533129Y-90847145D01*
X40582578Y-90976439D01*
X40598518Y-91103611D01*
X40575365Y-91196121D01*
X40504119Y-91266976D01*
X40364090Y-91318924D01*
X40116596Y-91340618D01*
X39660721Y-91323313D01*
X39182756Y-91270172D01*
X38680662Y-91179051D01*
X37979573Y-91006719D01*
X37550764Y-90862757D01*
X37204152Y-90711067D01*
X37042342Y-90621903D01*
X36929139Y-90536145D01*
X36883981Y-90485127D01*
X36861363Y-90431963D01*
X36853634Y-90371218D01*
X36867669Y-90309572D01*
X36916038Y-90237861D01*
X36988660Y-90170226D01*
X37104532Y-90088904D01*
X37232478Y-90027990D01*
X37352011Y-90007479D01*
X37472020Y-90015994D01*
X37589659Y-90046802D01*
X37816408Y-90157505D01*
X38042089Y-90309669D01*
X38287644Y-90475082D01*
X38696690Y-90530647D01*
X38525409Y-90433571D01*
X38390055Y-90318286D01*
X38285862Y-90184133D01*
X38210281Y-90028637D01*
X38201069Y-89993588D01*
X38703529Y-89993588D01*
X38720613Y-90077716D01*
X38778327Y-90173470D01*
X38892833Y-90286689D01*
X39087143Y-90422082D01*
X39306198Y-90534922D01*
X39273818Y-90283850D01*
X39214964Y-90095342D01*
X39134907Y-89956047D01*
X39035424Y-89855743D01*
X38955308Y-89812223D01*
X38873003Y-89798255D01*
X38779088Y-89819822D01*
X38724609Y-89880103D01*
X38703529Y-89993588D01*
X38201069Y-89993588D01*
X38177585Y-89904240D01*
X38165828Y-89752093D01*
X38184833Y-89546699D01*
X38236677Y-89388756D01*
X38317137Y-89267607D01*
X38428667Y-89176799D01*
X38573106Y-89119700D01*
X38760590Y-89098988D01*
X38897835Y-89116335D01*
X39023791Y-89168038D01*
X39142227Y-89256988D01*
X39255121Y-89390278D01*
X39370518Y-89591644D01*
X39434288Y-89782964D01*
X39452805Y-89968584D01*
X39662557Y-89899004D01*
X39804312Y-89819626D01*
X39894827Y-89732998D01*
X39945898Y-89638401D01*
X39962937Y-89531755D01*
X39940017Y-89389741D01*
X39870827Y-89261195D01*
X39773662Y-89145293D01*
X39668655Y-89042354D01*
X39464773Y-88870315D01*
X39390629Y-88791878D01*
X39370526Y-88727128D01*
X39383813Y-88694296D01*
X39431653Y-88669663D01*
X39543846Y-88658312D01*
X39709964Y-88676918D01*
G37*
G36*
X39654841Y-86629863D02*
G01*
X39823382Y-86686601D01*
X39986370Y-86781345D01*
X40155919Y-86933011D01*
X40294544Y-87107585D01*
X40404262Y-87306824D01*
X40485336Y-87534308D01*
X40536350Y-87794640D01*
X40554279Y-88093257D01*
X40534725Y-88327904D01*
X40480443Y-88517622D01*
X40395349Y-88671236D01*
X40279563Y-88795157D01*
X40129419Y-88892755D01*
X39963628Y-88945777D01*
X39705627Y-88966913D01*
X39429427Y-88940793D01*
X39132664Y-88858775D01*
X38851685Y-88730692D01*
X38618685Y-88571118D01*
X38483652Y-88443553D01*
X38371849Y-88305216D01*
X38281660Y-88155233D01*
X38214590Y-87994059D01*
X38180951Y-87853471D01*
X38610350Y-87853471D01*
X38626590Y-87932965D01*
X38677349Y-88005734D01*
X38773261Y-88075095D01*
X38933088Y-88140135D01*
X39181604Y-88196480D01*
X39067909Y-88016320D01*
X38965327Y-87857532D01*
X38887090Y-87772902D01*
X38808179Y-87725551D01*
X38725755Y-87708360D01*
X38662774Y-87723783D01*
X38625215Y-87768003D01*
X38610350Y-87853471D01*
X38180951Y-87853471D01*
X38174443Y-87826272D01*
X38160913Y-87649803D01*
X38177606Y-87475249D01*
X38223426Y-87339579D01*
X38295124Y-87234132D01*
X38392638Y-87153067D01*
X38506685Y-87104434D01*
X38642407Y-87087526D01*
X38781001Y-87100339D01*
X38895897Y-87136431D01*
X38991827Y-87194168D01*
X39115328Y-87314188D01*
X39219003Y-87467934D01*
X39303800Y-87641337D01*
X39381211Y-87838511D01*
X39538504Y-88233452D01*
X39656259Y-88233452D01*
X39762427Y-88214402D01*
X39841677Y-88166898D01*
X39900533Y-88089196D01*
X39955294Y-87942288D01*
X39977683Y-87770123D01*
X39959992Y-87587883D01*
X39906157Y-87406506D01*
X39813170Y-87223067D01*
X39675707Y-87035166D01*
X39466910Y-86819530D01*
X39388523Y-86735819D01*
X39370526Y-86688097D01*
X39383025Y-86649891D01*
X39423662Y-86623937D01*
X39511790Y-86612656D01*
X39654841Y-86629863D01*
G37*
G36*
X39695369Y-86140993D02*
G01*
X40292695Y-86111714D01*
X40367721Y-86124553D01*
X40438825Y-86164219D01*
X40508758Y-86236522D01*
X40559266Y-86324379D01*
X40591675Y-86434910D01*
X40603433Y-86573974D01*
X40589014Y-86649817D01*
X40547400Y-86706616D01*
X40473282Y-86748791D01*
X40328272Y-86782507D01*
X40097148Y-86796235D01*
X39610145Y-86781503D01*
X39290170Y-86744731D01*
X39001278Y-86669946D01*
X38703102Y-86543200D01*
X38550151Y-86679500D01*
X38428574Y-86747201D01*
X38329318Y-86766743D01*
X38204426Y-86751181D01*
X38114801Y-86709127D01*
X38051131Y-86642312D01*
X38009935Y-86545457D01*
X37994431Y-86407492D01*
X38014392Y-86293673D01*
X38075929Y-86187173D01*
X38188268Y-86083718D01*
X38330170Y-85999463D01*
X38495587Y-85941385D01*
X38512116Y-85872280D01*
X38518454Y-85775758D01*
X38497620Y-85632660D01*
X38425916Y-85450702D01*
X38362444Y-85323329D01*
X38332310Y-85217541D01*
X38348670Y-85159875D01*
X38406724Y-85094791D01*
X38530582Y-85017641D01*
X38755034Y-84926465D01*
X39124543Y-85022635D01*
X39550258Y-85142314D01*
X39779863Y-85198801D01*
X39881298Y-85213053D01*
X39946095Y-85200977D01*
X39962937Y-85168601D01*
X39943980Y-85096879D01*
X39870827Y-84991006D01*
X39668655Y-84776866D01*
X39464559Y-84577472D01*
X39386804Y-84489055D01*
X39370526Y-84448817D01*
X39384422Y-84412143D01*
X39432868Y-84385463D01*
X39543846Y-84373377D01*
X39705997Y-84390436D01*
X39869871Y-84442829D01*
X40038523Y-84534449D01*
X40214476Y-84671720D01*
X40363495Y-84832579D01*
X40463949Y-84998043D01*
X40521917Y-85170771D01*
X40539747Y-85354745D01*
X40518504Y-85497303D01*
X40458112Y-85609165D01*
X40356168Y-85697967D01*
X40229074Y-85760398D01*
X40082035Y-85800630D01*
X39911005Y-85817005D01*
X39572379Y-85791879D01*
X39253280Y-85717652D01*
X38949726Y-85594316D01*
X38977318Y-85692752D01*
X38987553Y-85822134D01*
X38978577Y-86010628D01*
X39346590Y-86097182D01*
X39532113Y-86130560D01*
X39695369Y-86140993D01*
G37*
G36*
X39715190Y-79035037D02*
G01*
X39887282Y-79116050D01*
X40053345Y-79233735D01*
X40207424Y-79384473D01*
X40339462Y-79558239D01*
X40446141Y-79751203D01*
X40517175Y-79954178D01*
X40539747Y-80145503D01*
X40520331Y-80334404D01*
X40469600Y-80463657D01*
X40393140Y-80549847D01*
X40289145Y-80608348D01*
X40149280Y-80647147D01*
X39963150Y-80661618D01*
X39771949Y-80644286D01*
X39465479Y-80579217D01*
X39001658Y-80443632D01*
X38972807Y-81418588D01*
X38972807Y-81481419D01*
X39518396Y-81546151D01*
X40106765Y-81568400D01*
X40236854Y-81582650D01*
X40337631Y-81622001D01*
X40415922Y-81684618D01*
X40475419Y-81773137D01*
X40558981Y-81952656D01*
X40588524Y-82041740D01*
X40598518Y-82138372D01*
X40575506Y-82239898D01*
X40507007Y-82314997D01*
X40377382Y-82368263D01*
X40153996Y-82390125D01*
X39859475Y-82371535D01*
X39488973Y-82309153D01*
X39027731Y-82191800D01*
X39075602Y-82561309D01*
X39100179Y-82822252D01*
X39083583Y-82898801D01*
X39044187Y-82918850D01*
X38954513Y-82897457D01*
X38855175Y-82824420D01*
X38739860Y-82675859D01*
X38652070Y-82506138D01*
X38574403Y-82289230D01*
X38509478Y-82015914D01*
X38028099Y-81801328D01*
X37644680Y-81580263D01*
X37344714Y-81354349D01*
X37115695Y-81124019D01*
X36947453Y-80888367D01*
X36864812Y-80719229D01*
X36816059Y-80545929D01*
X36808627Y-80463721D01*
X37484299Y-80463721D01*
X37500875Y-80616839D01*
X37549924Y-80757658D01*
X37632864Y-80889609D01*
X37754218Y-81014885D01*
X37944246Y-81151413D01*
X38180104Y-81270574D01*
X38469727Y-81370503D01*
X38484046Y-80272875D01*
X38119023Y-80177075D01*
X37903389Y-80152341D01*
X37735089Y-80168306D01*
X37620868Y-80209688D01*
X37545673Y-80271002D01*
X37500516Y-80353267D01*
X37484299Y-80463721D01*
X36808627Y-80463721D01*
X36799778Y-80365840D01*
X36821343Y-80118503D01*
X36875573Y-79923934D01*
X36957603Y-79771529D01*
X37066278Y-79653323D01*
X37202050Y-79560118D01*
X37359796Y-79491320D01*
X37543531Y-79447550D01*
X37758279Y-79431276D01*
X38041818Y-79454141D01*
X38407751Y-79535687D01*
X38875354Y-79693501D01*
X39354711Y-79874515D01*
X39561371Y-79939679D01*
X39700711Y-79957436D01*
X39897327Y-79938843D01*
X39946525Y-79907654D01*
X39962937Y-79851648D01*
X39933896Y-79769321D01*
X39798235Y-79587991D01*
X39455797Y-79234660D01*
X39373585Y-79146635D01*
X39355779Y-79102586D01*
X39373386Y-79059748D01*
X39437262Y-79027374D01*
X39587871Y-79012399D01*
X39715190Y-79035037D01*
G37*
G36*
X40254227Y-79053432D02*
G01*
X40116672Y-79100929D01*
X39948832Y-79134643D01*
X39756726Y-79152165D01*
X39460499Y-79159220D01*
X39122421Y-79134151D01*
X38620181Y-79043387D01*
X38620181Y-79255176D01*
X38605484Y-79305246D01*
X38564402Y-79320786D01*
X38451148Y-79314636D01*
X38368855Y-79298560D01*
X38291627Y-79263723D01*
X38190405Y-79189780D01*
X38190405Y-79069033D01*
X38185704Y-78927341D01*
X37846352Y-78804917D01*
X37633000Y-78696796D01*
X37510113Y-78602291D01*
X37449285Y-78519075D01*
X37431298Y-78442214D01*
X37448130Y-78351986D01*
X37492700Y-78277058D01*
X37568783Y-78213554D01*
X37686044Y-78161396D01*
X37835643Y-78116516D01*
X38181002Y-78313345D01*
X38190405Y-77889340D01*
X38197577Y-77808113D01*
X38210281Y-77787826D01*
X38265632Y-77779278D01*
X38359613Y-77788694D01*
X38490244Y-77822020D01*
X38598276Y-77875451D01*
X38620181Y-77923748D01*
X38596032Y-78407165D01*
X39163486Y-78486228D01*
X39575048Y-78508892D01*
X39836194Y-78489480D01*
X39938197Y-78449791D01*
X39962937Y-78403105D01*
X39935140Y-78298005D01*
X39809491Y-78068645D01*
X39649419Y-77848071D01*
X39513286Y-77716874D01*
X39397772Y-77606257D01*
X39370526Y-77536501D01*
X39384325Y-77499724D01*
X39432204Y-77473093D01*
X39541496Y-77461060D01*
X39652191Y-77473374D01*
X39766722Y-77511638D01*
X39887496Y-77579457D01*
X40053318Y-77711528D01*
X40207637Y-77877372D01*
X40339410Y-78065844D01*
X40446354Y-78275732D01*
X40518640Y-78490167D01*
X40539747Y-78658277D01*
X40518649Y-78808447D01*
X40462383Y-78909390D01*
X40374300Y-78987161D01*
X40254227Y-79053432D01*
G37*
G36*
X39727182Y-74824001D02*
G01*
X39874539Y-74884380D01*
X39987086Y-74980499D01*
X40072286Y-75105775D01*
X40121716Y-75235698D01*
X40138181Y-75373516D01*
X40130227Y-75579272D01*
X40109330Y-75731699D01*
X40278028Y-75898244D01*
X40404361Y-76072536D01*
X40492883Y-76256137D01*
X40546057Y-76451579D01*
X40564110Y-76662203D01*
X40543918Y-76935353D01*
X40488098Y-77156102D01*
X40401461Y-77334284D01*
X40285429Y-77477516D01*
X40138008Y-77595617D01*
X39975725Y-77678607D01*
X39795429Y-77728299D01*
X39592787Y-77743802D01*
X39306113Y-77721890D01*
X39045671Y-77653142D01*
X38806342Y-77538248D01*
X38584277Y-77374720D01*
X38431826Y-77215745D01*
X38314776Y-77041046D01*
X38230620Y-76848412D01*
X38178835Y-76634548D01*
X38160913Y-76395276D01*
X38180131Y-76134556D01*
X38229942Y-75952036D01*
X38324787Y-75762354D01*
X38397926Y-75680098D01*
X38456691Y-75658823D01*
X38492489Y-75681667D01*
X38526106Y-75785279D01*
X38544527Y-76064876D01*
X38563425Y-76262992D01*
X38615889Y-76439029D01*
X38701242Y-76597235D01*
X38821498Y-76740635D01*
X38966777Y-76857974D01*
X39128316Y-76941462D01*
X39309358Y-76992616D01*
X39514354Y-77010340D01*
X39654742Y-76995464D01*
X39774970Y-76952740D01*
X39879375Y-76882540D01*
X39959497Y-76788103D01*
X40008945Y-76669588D01*
X40026623Y-76519657D01*
X40015277Y-76365119D01*
X39983893Y-76239934D01*
X39935154Y-76138607D01*
X39806229Y-76288005D01*
X39653474Y-76393090D01*
X39472272Y-76457766D01*
X39254907Y-76480547D01*
X39102930Y-76464195D01*
X38959897Y-76408560D01*
X38821712Y-76309791D01*
X38712915Y-76181701D01*
X38647478Y-76033567D01*
X38623814Y-75859071D01*
X38629583Y-75802865D01*
X39031578Y-75802865D01*
X39044639Y-75837149D01*
X39092699Y-75870825D01*
X39210669Y-75898822D01*
X39334565Y-75884853D01*
X39436820Y-75845203D01*
X39522261Y-75780425D01*
X39354650Y-75721003D01*
X39193999Y-75701993D01*
X39094757Y-75716278D01*
X39047008Y-75750266D01*
X39031578Y-75802865D01*
X38629583Y-75802865D01*
X38641922Y-75682651D01*
X38693714Y-75555506D01*
X38775336Y-75464772D01*
X38883781Y-75400173D01*
X39013199Y-75359827D01*
X39168781Y-75345520D01*
X39407659Y-75371807D01*
X39664167Y-75454727D01*
X39664167Y-75435707D01*
X39645141Y-75299531D01*
X39595671Y-75178216D01*
X39514354Y-75068121D01*
X39410704Y-74967035D01*
X39376076Y-74921749D01*
X39365610Y-74877490D01*
X39379303Y-74840601D01*
X39426562Y-74814023D01*
X39534016Y-74802049D01*
X39727182Y-74824001D01*
G37*
G36*
X39029654Y-72375771D02*
G01*
X38943992Y-72395522D01*
X38894214Y-72450814D01*
X38874926Y-72555076D01*
X38894654Y-72627605D01*
X38966353Y-72717654D01*
X39120268Y-72833971D01*
X39374645Y-72967490D01*
X39647497Y-73057300D01*
X39656259Y-73057300D01*
X39822203Y-73044805D01*
X39997985Y-73006009D01*
X40162096Y-72964460D01*
X40243969Y-72954505D01*
X40313532Y-72972033D01*
X40389708Y-73032254D01*
X40477315Y-73156286D01*
X40578429Y-73375091D01*
X40603433Y-73490282D01*
X40589014Y-73566124D01*
X40547400Y-73622923D01*
X40473282Y-73665099D01*
X40331492Y-73699202D01*
X40124503Y-73712543D01*
X39712466Y-73700361D01*
X39354711Y-73675784D01*
X39065772Y-73651421D01*
X38863172Y-73639026D01*
X38771244Y-73656828D01*
X38721581Y-73703517D01*
X38703529Y-73785419D01*
X38729929Y-73869526D01*
X38830485Y-73980245D01*
X39055941Y-74131206D01*
X39299147Y-74252328D01*
X39480689Y-74313120D01*
X39615013Y-74330386D01*
X39816885Y-74317185D01*
X39997985Y-74279095D01*
X40162096Y-74237545D01*
X40243969Y-74227590D01*
X40313532Y-74245118D01*
X40389708Y-74305339D01*
X40477315Y-74429371D01*
X40578429Y-74648176D01*
X40603433Y-74763367D01*
X40589014Y-74839209D01*
X40547400Y-74896009D01*
X40473282Y-74938184D01*
X40325915Y-74971654D01*
X40077487Y-74985628D01*
X39429965Y-74969398D01*
X39072610Y-74931773D01*
X38775132Y-74862397D01*
X38487760Y-74751679D01*
X38208143Y-74597740D01*
X38124635Y-74529782D01*
X38081343Y-74465175D01*
X38067948Y-74400911D01*
X38092009Y-74304054D01*
X38172659Y-74204290D01*
X38335943Y-74096371D01*
X38452417Y-74041019D01*
X38322866Y-73915671D01*
X38234974Y-73783822D01*
X38183267Y-73643251D01*
X38165828Y-73490282D01*
X38181522Y-73353164D01*
X38228093Y-73226952D01*
X38307306Y-73108378D01*
X38410884Y-73013785D01*
X38527585Y-72958575D01*
X38662282Y-72939759D01*
X38696690Y-72939759D01*
X38536125Y-72782408D01*
X38425669Y-72611988D01*
X38359735Y-72425315D01*
X38337226Y-72217197D01*
X38354584Y-72044323D01*
X38402049Y-71911954D01*
X38476353Y-71810716D01*
X38576234Y-71733378D01*
X38688764Y-71687382D01*
X38818079Y-71671589D01*
X39015313Y-71679368D01*
X39182459Y-71701081D01*
X39486572Y-71767332D01*
X39738539Y-71833369D01*
X39905662Y-71862648D01*
X39951167Y-71853003D01*
X39962937Y-71830377D01*
X39943980Y-71758655D01*
X39870827Y-71652782D01*
X39668655Y-71438642D01*
X39464559Y-71239248D01*
X39386831Y-71150798D01*
X39370526Y-71110380D01*
X39384403Y-71073830D01*
X39432830Y-71047216D01*
X39543846Y-71035153D01*
X39706465Y-71054649D01*
X39870100Y-71114761D01*
X40038545Y-71220973D01*
X40214690Y-71382436D01*
X40362349Y-71567021D01*
X40462364Y-71750335D01*
X40520514Y-71934900D01*
X40539747Y-72124018D01*
X40518273Y-72242946D01*
X40455757Y-72336203D01*
X40344692Y-72410196D01*
X40165809Y-72462676D01*
X39891343Y-72483482D01*
X39714835Y-72471916D01*
X39445111Y-72429627D01*
X39179391Y-72386743D01*
X39029654Y-72375771D01*
G37*
G36*
X40539747Y-70696419D02*
G01*
X40518695Y-70835076D01*
X40457816Y-70948218D01*
X40353206Y-71042508D01*
X40192131Y-71118836D01*
X39955018Y-71172234D01*
X39617150Y-71192873D01*
X39285020Y-71178489D01*
X38983471Y-71136995D01*
X38709299Y-71070415D01*
X38431229Y-70970078D01*
X38253263Y-70876557D01*
X38148102Y-70790477D01*
X38094243Y-70710521D01*
X38077779Y-70632732D01*
X38097023Y-70546788D01*
X38157253Y-70470781D01*
X38272685Y-70401282D01*
X38422172Y-70350228D01*
X38564616Y-70337168D01*
X38796426Y-70360073D01*
X39256617Y-70454710D01*
X39648469Y-70548051D01*
X39787265Y-70567123D01*
X39876692Y-70553145D01*
X39925537Y-70517969D01*
X39953345Y-70464761D01*
X39962937Y-70400427D01*
X39944171Y-70330748D01*
X39870827Y-70225183D01*
X39668655Y-70011043D01*
X39464559Y-69811649D01*
X39386831Y-69723199D01*
X39370526Y-69682780D01*
X39384403Y-69646231D01*
X39432830Y-69619616D01*
X39543846Y-69607553D01*
X39706469Y-69627019D01*
X39870490Y-69687088D01*
X40039709Y-69793302D01*
X40217041Y-69954836D01*
X40365676Y-70139641D01*
X40465465Y-70322939D01*
X40522477Y-70507375D01*
X40539747Y-70696419D01*
G37*
G36*
X37694806Y-70499376D02*
G01*
X37556165Y-70575362D01*
X37414471Y-70619848D01*
X37267167Y-70634656D01*
X37051600Y-70615345D01*
X36889537Y-70563276D01*
X36750814Y-70488526D01*
X36666635Y-70426713D01*
X36611547Y-70355053D01*
X36593973Y-70275405D01*
X36613165Y-70191680D01*
X36675966Y-70107974D01*
X36799778Y-70020232D01*
X37000871Y-69930777D01*
X37144496Y-69906110D01*
X37307680Y-69927258D01*
X37439924Y-69987395D01*
X37548627Y-70087124D01*
X37630179Y-70214076D01*
X37678460Y-70350341D01*
X37694806Y-70499376D01*
G37*
G36*
X39355779Y-67914309D02*
G01*
X39370343Y-67864738D01*
X39415440Y-67832685D01*
X39509225Y-67819207D01*
X39663200Y-67837343D01*
X39835350Y-67895716D01*
X40001231Y-67989310D01*
X40167887Y-68127167D01*
X40313181Y-68299412D01*
X40441225Y-68523604D01*
X40502359Y-68687996D01*
X40540778Y-68876191D01*
X40554279Y-69092293D01*
X40532129Y-69303917D01*
X40467334Y-69493786D01*
X40359160Y-69666966D01*
X40252906Y-69773452D01*
X40126795Y-69849710D01*
X39976836Y-69897208D01*
X39797096Y-69914017D01*
X39554457Y-69900559D01*
X39333835Y-69861596D01*
X39132450Y-69798612D01*
X38851969Y-69662600D01*
X38618685Y-69493645D01*
X38424867Y-69289627D01*
X38281660Y-69063014D01*
X38212522Y-68898832D01*
X38173418Y-68746854D01*
X38160913Y-68604601D01*
X38176112Y-68452495D01*
X38215797Y-68348216D01*
X38275338Y-68278587D01*
X38356407Y-68236156D01*
X38466522Y-68220773D01*
X38628448Y-68240405D01*
X38745203Y-68293435D01*
X38827594Y-68372270D01*
X38850349Y-68443034D01*
X38833241Y-68536935D01*
X38781961Y-68617210D01*
X38729180Y-68695345D01*
X38711009Y-68775998D01*
X38728974Y-68856263D01*
X38794998Y-68940557D01*
X38890661Y-69011504D01*
X39017473Y-69073272D01*
X39202428Y-69131134D01*
X39413997Y-69167689D01*
X39656259Y-69180556D01*
X39762162Y-69160661D01*
X39846652Y-69109161D01*
X39914851Y-69022409D01*
X39958231Y-68909546D01*
X39975332Y-68771510D01*
X39953597Y-68631589D01*
X39880657Y-68493043D01*
X39668655Y-68247060D01*
X39454728Y-68048093D01*
X39374110Y-67962250D01*
X39355779Y-67914309D01*
G37*
G36*
X44243726Y-91592798D02*
G01*
X44461479Y-91604639D01*
X44708431Y-91642445D01*
X44988514Y-91710126D01*
X45291131Y-91700509D01*
X45544167Y-91681061D01*
X45666068Y-91622665D01*
X45739971Y-91562420D01*
X45779250Y-91500261D01*
X45765369Y-91444758D01*
X45715883Y-91376942D01*
X45611913Y-91290822D01*
X45434883Y-91177127D01*
X45212271Y-91053388D01*
X44990592Y-91097641D01*
X44787197Y-91111731D01*
X44551100Y-91096870D01*
X44384071Y-91058330D01*
X44269158Y-91002952D01*
X44154009Y-90898965D01*
X44085027Y-90766269D01*
X44060574Y-90595402D01*
X44075331Y-90463192D01*
X44115745Y-90363112D01*
X44179720Y-90287413D01*
X44270226Y-90232091D01*
X44353383Y-90206254D01*
X44449317Y-90197256D01*
X44625662Y-90218607D01*
X44811774Y-90285733D01*
X45007888Y-90391183D01*
X45292413Y-90568688D01*
X45443290Y-90494372D01*
X45519949Y-90409860D01*
X45544167Y-90311806D01*
X45525152Y-90175764D01*
X45475690Y-90054443D01*
X45394354Y-89944220D01*
X45290704Y-89843134D01*
X45256076Y-89797848D01*
X45245610Y-89753589D01*
X45259303Y-89716699D01*
X45306562Y-89690121D01*
X45414016Y-89678148D01*
X45610484Y-89700227D01*
X45755584Y-89760117D01*
X45862171Y-89854247D01*
X45939133Y-89978417D01*
X45986700Y-90124195D01*
X46003435Y-90297059D01*
X45984396Y-90465008D01*
X45929323Y-90610182D01*
X45837798Y-90737811D01*
X45704878Y-90850788D01*
X46018675Y-91115109D01*
X46228027Y-91335887D01*
X46356591Y-91520419D01*
X46423843Y-91676010D01*
X46444110Y-91810144D01*
X46426986Y-91872072D01*
X46366841Y-91940869D01*
X46239695Y-92021176D01*
X46010701Y-92114684D01*
X45717309Y-92198525D01*
X45333628Y-92275103D01*
X44841907Y-92340792D01*
X44528293Y-92358670D01*
X44313885Y-92330752D01*
X44171278Y-92271335D01*
X44088447Y-92184576D01*
X44033076Y-92048956D01*
X44011634Y-91844338D01*
X44030913Y-91735072D01*
X44084724Y-91658408D01*
X44162386Y-91608642D01*
X44243726Y-91592798D01*
G37*
G36*
X43765651Y-89586038D02*
G01*
X43742226Y-89620287D01*
X43636569Y-89637115D01*
X43488034Y-89617894D01*
X43348364Y-89559990D01*
X43213632Y-89459306D01*
X43099725Y-89332272D01*
X43013780Y-89191440D01*
X42954185Y-89034660D01*
X42885797Y-88819451D01*
X42782787Y-88483281D01*
X42734783Y-88275299D01*
X42723803Y-88112063D01*
X42737446Y-88068665D01*
X42786736Y-88020289D01*
X42894559Y-87963746D01*
X42951962Y-87949765D01*
X43051210Y-87943871D01*
X43182645Y-87957156D01*
X43476071Y-88015037D01*
X44196282Y-88174253D01*
X44936037Y-88330484D01*
X45482054Y-88423159D01*
X45872215Y-88467253D01*
X45872215Y-87906471D01*
X45893870Y-87778989D01*
X45931482Y-87721090D01*
X45981850Y-87703872D01*
X46086569Y-87733578D01*
X46238518Y-87787434D01*
X46333257Y-87835253D01*
X46386397Y-87904027D01*
X46405001Y-87999864D01*
X46370807Y-89023119D01*
X46382403Y-89328070D01*
X46414831Y-89587748D01*
X46478304Y-89949990D01*
X46497965Y-90132714D01*
X46482814Y-90188389D01*
X46442186Y-90204949D01*
X46331660Y-90179329D01*
X46211503Y-90092835D01*
X46074601Y-89918788D01*
X45973497Y-89720476D01*
X45905280Y-89489901D01*
X45872429Y-89220803D01*
X45800835Y-89220803D01*
X45463569Y-89195078D01*
X44944260Y-89100519D01*
X44183032Y-88907287D01*
X43716318Y-88768288D01*
X43376908Y-88651901D01*
X43417941Y-88815604D01*
X43479859Y-88991056D01*
X43576729Y-89186609D01*
X43726114Y-89456314D01*
X43756815Y-89529346D01*
X43765651Y-89586038D01*
G37*
D11*
X33107200Y-126333332D02*
X33154819Y-126190475D01*
X33154819Y-126190475D02*
X33154819Y-125952380D01*
X33154819Y-125952380D02*
X33107200Y-125857142D01*
X33107200Y-125857142D02*
X33059580Y-125809523D01*
X33059580Y-125809523D02*
X32964342Y-125761904D01*
X32964342Y-125761904D02*
X32869104Y-125761904D01*
X32869104Y-125761904D02*
X32773866Y-125809523D01*
X32773866Y-125809523D02*
X32726247Y-125857142D01*
X32726247Y-125857142D02*
X32678628Y-125952380D01*
X32678628Y-125952380D02*
X32631009Y-126142856D01*
X32631009Y-126142856D02*
X32583390Y-126238094D01*
X32583390Y-126238094D02*
X32535771Y-126285713D01*
X32535771Y-126285713D02*
X32440533Y-126333332D01*
X32440533Y-126333332D02*
X32345295Y-126333332D01*
X32345295Y-126333332D02*
X32250057Y-126285713D01*
X32250057Y-126285713D02*
X32202438Y-126238094D01*
X32202438Y-126238094D02*
X32154819Y-126142856D01*
X32154819Y-126142856D02*
X32154819Y-125904761D01*
X32154819Y-125904761D02*
X32202438Y-125761904D01*
X32154819Y-125428570D02*
X33154819Y-125190475D01*
X33154819Y-125190475D02*
X32440533Y-124999999D01*
X32440533Y-124999999D02*
X33154819Y-124809523D01*
X33154819Y-124809523D02*
X32154819Y-124571428D01*
X33154819Y-123666666D02*
X33154819Y-124238094D01*
X33154819Y-123952380D02*
X32154819Y-123952380D01*
X32154819Y-123952380D02*
X32297676Y-124047618D01*
X32297676Y-124047618D02*
X32392914Y-124142856D01*
X32392914Y-124142856D02*
X32440533Y-124238094D01*
X99848200Y-73723332D02*
X99895819Y-73580475D01*
X99895819Y-73580475D02*
X99895819Y-73342380D01*
X99895819Y-73342380D02*
X99848200Y-73247142D01*
X99848200Y-73247142D02*
X99800580Y-73199523D01*
X99800580Y-73199523D02*
X99705342Y-73151904D01*
X99705342Y-73151904D02*
X99610104Y-73151904D01*
X99610104Y-73151904D02*
X99514866Y-73199523D01*
X99514866Y-73199523D02*
X99467247Y-73247142D01*
X99467247Y-73247142D02*
X99419628Y-73342380D01*
X99419628Y-73342380D02*
X99372009Y-73532856D01*
X99372009Y-73532856D02*
X99324390Y-73628094D01*
X99324390Y-73628094D02*
X99276771Y-73675713D01*
X99276771Y-73675713D02*
X99181533Y-73723332D01*
X99181533Y-73723332D02*
X99086295Y-73723332D01*
X99086295Y-73723332D02*
X98991057Y-73675713D01*
X98991057Y-73675713D02*
X98943438Y-73628094D01*
X98943438Y-73628094D02*
X98895819Y-73532856D01*
X98895819Y-73532856D02*
X98895819Y-73294761D01*
X98895819Y-73294761D02*
X98943438Y-73151904D01*
X98895819Y-72818570D02*
X99895819Y-72580475D01*
X99895819Y-72580475D02*
X99181533Y-72389999D01*
X99181533Y-72389999D02*
X99895819Y-72199523D01*
X99895819Y-72199523D02*
X98895819Y-71961428D01*
X99895819Y-71532856D02*
X99895819Y-71342380D01*
X99895819Y-71342380D02*
X99848200Y-71247142D01*
X99848200Y-71247142D02*
X99800580Y-71199523D01*
X99800580Y-71199523D02*
X99657723Y-71104285D01*
X99657723Y-71104285D02*
X99467247Y-71056666D01*
X99467247Y-71056666D02*
X99086295Y-71056666D01*
X99086295Y-71056666D02*
X98991057Y-71104285D01*
X98991057Y-71104285D02*
X98943438Y-71151904D01*
X98943438Y-71151904D02*
X98895819Y-71247142D01*
X98895819Y-71247142D02*
X98895819Y-71437618D01*
X98895819Y-71437618D02*
X98943438Y-71532856D01*
X98943438Y-71532856D02*
X98991057Y-71580475D01*
X98991057Y-71580475D02*
X99086295Y-71628094D01*
X99086295Y-71628094D02*
X99324390Y-71628094D01*
X99324390Y-71628094D02*
X99419628Y-71580475D01*
X99419628Y-71580475D02*
X99467247Y-71532856D01*
X99467247Y-71532856D02*
X99514866Y-71437618D01*
X99514866Y-71437618D02*
X99514866Y-71247142D01*
X99514866Y-71247142D02*
X99467247Y-71151904D01*
X99467247Y-71151904D02*
X99419628Y-71104285D01*
X99419628Y-71104285D02*
X99324390Y-71056666D01*
X99848200Y-92773332D02*
X99895819Y-92630475D01*
X99895819Y-92630475D02*
X99895819Y-92392380D01*
X99895819Y-92392380D02*
X99848200Y-92297142D01*
X99848200Y-92297142D02*
X99800580Y-92249523D01*
X99800580Y-92249523D02*
X99705342Y-92201904D01*
X99705342Y-92201904D02*
X99610104Y-92201904D01*
X99610104Y-92201904D02*
X99514866Y-92249523D01*
X99514866Y-92249523D02*
X99467247Y-92297142D01*
X99467247Y-92297142D02*
X99419628Y-92392380D01*
X99419628Y-92392380D02*
X99372009Y-92582856D01*
X99372009Y-92582856D02*
X99324390Y-92678094D01*
X99324390Y-92678094D02*
X99276771Y-92725713D01*
X99276771Y-92725713D02*
X99181533Y-92773332D01*
X99181533Y-92773332D02*
X99086295Y-92773332D01*
X99086295Y-92773332D02*
X98991057Y-92725713D01*
X98991057Y-92725713D02*
X98943438Y-92678094D01*
X98943438Y-92678094D02*
X98895819Y-92582856D01*
X98895819Y-92582856D02*
X98895819Y-92344761D01*
X98895819Y-92344761D02*
X98943438Y-92201904D01*
X98895819Y-91868570D02*
X99895819Y-91630475D01*
X99895819Y-91630475D02*
X99181533Y-91439999D01*
X99181533Y-91439999D02*
X99895819Y-91249523D01*
X99895819Y-91249523D02*
X98895819Y-91011428D01*
X98895819Y-90725713D02*
X98895819Y-90059047D01*
X98895819Y-90059047D02*
X99895819Y-90487618D01*
X147473200Y-121824523D02*
X147520819Y-121681666D01*
X147520819Y-121681666D02*
X147520819Y-121443571D01*
X147520819Y-121443571D02*
X147473200Y-121348333D01*
X147473200Y-121348333D02*
X147425580Y-121300714D01*
X147425580Y-121300714D02*
X147330342Y-121253095D01*
X147330342Y-121253095D02*
X147235104Y-121253095D01*
X147235104Y-121253095D02*
X147139866Y-121300714D01*
X147139866Y-121300714D02*
X147092247Y-121348333D01*
X147092247Y-121348333D02*
X147044628Y-121443571D01*
X147044628Y-121443571D02*
X146997009Y-121634047D01*
X146997009Y-121634047D02*
X146949390Y-121729285D01*
X146949390Y-121729285D02*
X146901771Y-121776904D01*
X146901771Y-121776904D02*
X146806533Y-121824523D01*
X146806533Y-121824523D02*
X146711295Y-121824523D01*
X146711295Y-121824523D02*
X146616057Y-121776904D01*
X146616057Y-121776904D02*
X146568438Y-121729285D01*
X146568438Y-121729285D02*
X146520819Y-121634047D01*
X146520819Y-121634047D02*
X146520819Y-121395952D01*
X146520819Y-121395952D02*
X146568438Y-121253095D01*
X146520819Y-120919761D02*
X147520819Y-120681666D01*
X147520819Y-120681666D02*
X146806533Y-120491190D01*
X146806533Y-120491190D02*
X147520819Y-120300714D01*
X147520819Y-120300714D02*
X146520819Y-120062619D01*
X147520819Y-119157857D02*
X147520819Y-119729285D01*
X147520819Y-119443571D02*
X146520819Y-119443571D01*
X146520819Y-119443571D02*
X146663676Y-119538809D01*
X146663676Y-119538809D02*
X146758914Y-119634047D01*
X146758914Y-119634047D02*
X146806533Y-119729285D01*
X146520819Y-118824523D02*
X146520819Y-118205476D01*
X146520819Y-118205476D02*
X146901771Y-118538809D01*
X146901771Y-118538809D02*
X146901771Y-118395952D01*
X146901771Y-118395952D02*
X146949390Y-118300714D01*
X146949390Y-118300714D02*
X146997009Y-118253095D01*
X146997009Y-118253095D02*
X147092247Y-118205476D01*
X147092247Y-118205476D02*
X147330342Y-118205476D01*
X147330342Y-118205476D02*
X147425580Y-118253095D01*
X147425580Y-118253095D02*
X147473200Y-118300714D01*
X147473200Y-118300714D02*
X147520819Y-118395952D01*
X147520819Y-118395952D02*
X147520819Y-118681666D01*
X147520819Y-118681666D02*
X147473200Y-118776904D01*
X147473200Y-118776904D02*
X147425580Y-118824523D01*
X29238095Y-62004819D02*
X29238095Y-61004819D01*
X29238095Y-61481009D02*
X29809523Y-61481009D01*
X29809523Y-62004819D02*
X29809523Y-61004819D01*
X30809523Y-62004819D02*
X30238095Y-62004819D01*
X30523809Y-62004819D02*
X30523809Y-61004819D01*
X30523809Y-61004819D02*
X30428571Y-61147676D01*
X30428571Y-61147676D02*
X30333333Y-61242914D01*
X30333333Y-61242914D02*
X30238095Y-61290533D01*
X184238095Y-134504819D02*
X184238095Y-133504819D01*
X184238095Y-133981009D02*
X184809523Y-133981009D01*
X184809523Y-134504819D02*
X184809523Y-133504819D01*
X185714285Y-133838152D02*
X185714285Y-134504819D01*
X185476190Y-133457200D02*
X185238095Y-134171485D01*
X185238095Y-134171485D02*
X185857142Y-134171485D01*
X106738095Y-134504819D02*
X106738095Y-133504819D01*
X106738095Y-133981009D02*
X107309523Y-133981009D01*
X107309523Y-134504819D02*
X107309523Y-133504819D01*
X108261904Y-133504819D02*
X107785714Y-133504819D01*
X107785714Y-133504819D02*
X107738095Y-133981009D01*
X107738095Y-133981009D02*
X107785714Y-133933390D01*
X107785714Y-133933390D02*
X107880952Y-133885771D01*
X107880952Y-133885771D02*
X108119047Y-133885771D01*
X108119047Y-133885771D02*
X108214285Y-133933390D01*
X108214285Y-133933390D02*
X108261904Y-133981009D01*
X108261904Y-133981009D02*
X108309523Y-134076247D01*
X108309523Y-134076247D02*
X108309523Y-134314342D01*
X108309523Y-134314342D02*
X108261904Y-134409580D01*
X108261904Y-134409580D02*
X108214285Y-134457200D01*
X108214285Y-134457200D02*
X108119047Y-134504819D01*
X108119047Y-134504819D02*
X107880952Y-134504819D01*
X107880952Y-134504819D02*
X107785714Y-134457200D01*
X107785714Y-134457200D02*
X107738095Y-134409580D01*
X99848200Y-117062023D02*
X99895819Y-116919166D01*
X99895819Y-116919166D02*
X99895819Y-116681071D01*
X99895819Y-116681071D02*
X99848200Y-116585833D01*
X99848200Y-116585833D02*
X99800580Y-116538214D01*
X99800580Y-116538214D02*
X99705342Y-116490595D01*
X99705342Y-116490595D02*
X99610104Y-116490595D01*
X99610104Y-116490595D02*
X99514866Y-116538214D01*
X99514866Y-116538214D02*
X99467247Y-116585833D01*
X99467247Y-116585833D02*
X99419628Y-116681071D01*
X99419628Y-116681071D02*
X99372009Y-116871547D01*
X99372009Y-116871547D02*
X99324390Y-116966785D01*
X99324390Y-116966785D02*
X99276771Y-117014404D01*
X99276771Y-117014404D02*
X99181533Y-117062023D01*
X99181533Y-117062023D02*
X99086295Y-117062023D01*
X99086295Y-117062023D02*
X98991057Y-117014404D01*
X98991057Y-117014404D02*
X98943438Y-116966785D01*
X98943438Y-116966785D02*
X98895819Y-116871547D01*
X98895819Y-116871547D02*
X98895819Y-116633452D01*
X98895819Y-116633452D02*
X98943438Y-116490595D01*
X98895819Y-116157261D02*
X99895819Y-115919166D01*
X99895819Y-115919166D02*
X99181533Y-115728690D01*
X99181533Y-115728690D02*
X99895819Y-115538214D01*
X99895819Y-115538214D02*
X98895819Y-115300119D01*
X99895819Y-114395357D02*
X99895819Y-114966785D01*
X99895819Y-114681071D02*
X98895819Y-114681071D01*
X98895819Y-114681071D02*
X99038676Y-114776309D01*
X99038676Y-114776309D02*
X99133914Y-114871547D01*
X99133914Y-114871547D02*
X99181533Y-114966785D01*
X98991057Y-114014404D02*
X98943438Y-113966785D01*
X98943438Y-113966785D02*
X98895819Y-113871547D01*
X98895819Y-113871547D02*
X98895819Y-113633452D01*
X98895819Y-113633452D02*
X98943438Y-113538214D01*
X98943438Y-113538214D02*
X98991057Y-113490595D01*
X98991057Y-113490595D02*
X99086295Y-113442976D01*
X99086295Y-113442976D02*
X99181533Y-113442976D01*
X99181533Y-113442976D02*
X99324390Y-113490595D01*
X99324390Y-113490595D02*
X99895819Y-114062023D01*
X99895819Y-114062023D02*
X99895819Y-113442976D01*
X118898200Y-83724523D02*
X118945819Y-83581666D01*
X118945819Y-83581666D02*
X118945819Y-83343571D01*
X118945819Y-83343571D02*
X118898200Y-83248333D01*
X118898200Y-83248333D02*
X118850580Y-83200714D01*
X118850580Y-83200714D02*
X118755342Y-83153095D01*
X118755342Y-83153095D02*
X118660104Y-83153095D01*
X118660104Y-83153095D02*
X118564866Y-83200714D01*
X118564866Y-83200714D02*
X118517247Y-83248333D01*
X118517247Y-83248333D02*
X118469628Y-83343571D01*
X118469628Y-83343571D02*
X118422009Y-83534047D01*
X118422009Y-83534047D02*
X118374390Y-83629285D01*
X118374390Y-83629285D02*
X118326771Y-83676904D01*
X118326771Y-83676904D02*
X118231533Y-83724523D01*
X118231533Y-83724523D02*
X118136295Y-83724523D01*
X118136295Y-83724523D02*
X118041057Y-83676904D01*
X118041057Y-83676904D02*
X117993438Y-83629285D01*
X117993438Y-83629285D02*
X117945819Y-83534047D01*
X117945819Y-83534047D02*
X117945819Y-83295952D01*
X117945819Y-83295952D02*
X117993438Y-83153095D01*
X117945819Y-82819761D02*
X118945819Y-82581666D01*
X118945819Y-82581666D02*
X118231533Y-82391190D01*
X118231533Y-82391190D02*
X118945819Y-82200714D01*
X118945819Y-82200714D02*
X117945819Y-81962619D01*
X118945819Y-81057857D02*
X118945819Y-81629285D01*
X118945819Y-81343571D02*
X117945819Y-81343571D01*
X117945819Y-81343571D02*
X118088676Y-81438809D01*
X118088676Y-81438809D02*
X118183914Y-81534047D01*
X118183914Y-81534047D02*
X118231533Y-81629285D01*
X117945819Y-80438809D02*
X117945819Y-80343571D01*
X117945819Y-80343571D02*
X117993438Y-80248333D01*
X117993438Y-80248333D02*
X118041057Y-80200714D01*
X118041057Y-80200714D02*
X118136295Y-80153095D01*
X118136295Y-80153095D02*
X118326771Y-80105476D01*
X118326771Y-80105476D02*
X118564866Y-80105476D01*
X118564866Y-80105476D02*
X118755342Y-80153095D01*
X118755342Y-80153095D02*
X118850580Y-80200714D01*
X118850580Y-80200714D02*
X118898200Y-80248333D01*
X118898200Y-80248333D02*
X118945819Y-80343571D01*
X118945819Y-80343571D02*
X118945819Y-80438809D01*
X118945819Y-80438809D02*
X118898200Y-80534047D01*
X118898200Y-80534047D02*
X118850580Y-80581666D01*
X118850580Y-80581666D02*
X118755342Y-80629285D01*
X118755342Y-80629285D02*
X118564866Y-80676904D01*
X118564866Y-80676904D02*
X118326771Y-80676904D01*
X118326771Y-80676904D02*
X118136295Y-80629285D01*
X118136295Y-80629285D02*
X118041057Y-80581666D01*
X118041057Y-80581666D02*
X117993438Y-80534047D01*
X117993438Y-80534047D02*
X117945819Y-80438809D01*
X147473200Y-102774523D02*
X147520819Y-102631666D01*
X147520819Y-102631666D02*
X147520819Y-102393571D01*
X147520819Y-102393571D02*
X147473200Y-102298333D01*
X147473200Y-102298333D02*
X147425580Y-102250714D01*
X147425580Y-102250714D02*
X147330342Y-102203095D01*
X147330342Y-102203095D02*
X147235104Y-102203095D01*
X147235104Y-102203095D02*
X147139866Y-102250714D01*
X147139866Y-102250714D02*
X147092247Y-102298333D01*
X147092247Y-102298333D02*
X147044628Y-102393571D01*
X147044628Y-102393571D02*
X146997009Y-102584047D01*
X146997009Y-102584047D02*
X146949390Y-102679285D01*
X146949390Y-102679285D02*
X146901771Y-102726904D01*
X146901771Y-102726904D02*
X146806533Y-102774523D01*
X146806533Y-102774523D02*
X146711295Y-102774523D01*
X146711295Y-102774523D02*
X146616057Y-102726904D01*
X146616057Y-102726904D02*
X146568438Y-102679285D01*
X146568438Y-102679285D02*
X146520819Y-102584047D01*
X146520819Y-102584047D02*
X146520819Y-102345952D01*
X146520819Y-102345952D02*
X146568438Y-102203095D01*
X146520819Y-101869761D02*
X147520819Y-101631666D01*
X147520819Y-101631666D02*
X146806533Y-101441190D01*
X146806533Y-101441190D02*
X147520819Y-101250714D01*
X147520819Y-101250714D02*
X146520819Y-101012619D01*
X147520819Y-100107857D02*
X147520819Y-100679285D01*
X147520819Y-100393571D02*
X146520819Y-100393571D01*
X146520819Y-100393571D02*
X146663676Y-100488809D01*
X146663676Y-100488809D02*
X146758914Y-100584047D01*
X146758914Y-100584047D02*
X146806533Y-100679285D01*
X146854152Y-99250714D02*
X147520819Y-99250714D01*
X146473200Y-99488809D02*
X147187485Y-99726904D01*
X147187485Y-99726904D02*
X147187485Y-99107857D01*
X80798200Y-107537023D02*
X80845819Y-107394166D01*
X80845819Y-107394166D02*
X80845819Y-107156071D01*
X80845819Y-107156071D02*
X80798200Y-107060833D01*
X80798200Y-107060833D02*
X80750580Y-107013214D01*
X80750580Y-107013214D02*
X80655342Y-106965595D01*
X80655342Y-106965595D02*
X80560104Y-106965595D01*
X80560104Y-106965595D02*
X80464866Y-107013214D01*
X80464866Y-107013214D02*
X80417247Y-107060833D01*
X80417247Y-107060833D02*
X80369628Y-107156071D01*
X80369628Y-107156071D02*
X80322009Y-107346547D01*
X80322009Y-107346547D02*
X80274390Y-107441785D01*
X80274390Y-107441785D02*
X80226771Y-107489404D01*
X80226771Y-107489404D02*
X80131533Y-107537023D01*
X80131533Y-107537023D02*
X80036295Y-107537023D01*
X80036295Y-107537023D02*
X79941057Y-107489404D01*
X79941057Y-107489404D02*
X79893438Y-107441785D01*
X79893438Y-107441785D02*
X79845819Y-107346547D01*
X79845819Y-107346547D02*
X79845819Y-107108452D01*
X79845819Y-107108452D02*
X79893438Y-106965595D01*
X79845819Y-106632261D02*
X80845819Y-106394166D01*
X80845819Y-106394166D02*
X80131533Y-106203690D01*
X80131533Y-106203690D02*
X80845819Y-106013214D01*
X80845819Y-106013214D02*
X79845819Y-105775119D01*
X80845819Y-104870357D02*
X80845819Y-105441785D01*
X80845819Y-105156071D02*
X79845819Y-105156071D01*
X79845819Y-105156071D02*
X79988676Y-105251309D01*
X79988676Y-105251309D02*
X80083914Y-105346547D01*
X80083914Y-105346547D02*
X80131533Y-105441785D01*
X80845819Y-103917976D02*
X80845819Y-104489404D01*
X80845819Y-104203690D02*
X79845819Y-104203690D01*
X79845819Y-104203690D02*
X79988676Y-104298928D01*
X79988676Y-104298928D02*
X80083914Y-104394166D01*
X80083914Y-104394166D02*
X80131533Y-104489404D01*
X147473200Y-83724523D02*
X147520819Y-83581666D01*
X147520819Y-83581666D02*
X147520819Y-83343571D01*
X147520819Y-83343571D02*
X147473200Y-83248333D01*
X147473200Y-83248333D02*
X147425580Y-83200714D01*
X147425580Y-83200714D02*
X147330342Y-83153095D01*
X147330342Y-83153095D02*
X147235104Y-83153095D01*
X147235104Y-83153095D02*
X147139866Y-83200714D01*
X147139866Y-83200714D02*
X147092247Y-83248333D01*
X147092247Y-83248333D02*
X147044628Y-83343571D01*
X147044628Y-83343571D02*
X146997009Y-83534047D01*
X146997009Y-83534047D02*
X146949390Y-83629285D01*
X146949390Y-83629285D02*
X146901771Y-83676904D01*
X146901771Y-83676904D02*
X146806533Y-83724523D01*
X146806533Y-83724523D02*
X146711295Y-83724523D01*
X146711295Y-83724523D02*
X146616057Y-83676904D01*
X146616057Y-83676904D02*
X146568438Y-83629285D01*
X146568438Y-83629285D02*
X146520819Y-83534047D01*
X146520819Y-83534047D02*
X146520819Y-83295952D01*
X146520819Y-83295952D02*
X146568438Y-83153095D01*
X146520819Y-82819761D02*
X147520819Y-82581666D01*
X147520819Y-82581666D02*
X146806533Y-82391190D01*
X146806533Y-82391190D02*
X147520819Y-82200714D01*
X147520819Y-82200714D02*
X146520819Y-81962619D01*
X147520819Y-81057857D02*
X147520819Y-81629285D01*
X147520819Y-81343571D02*
X146520819Y-81343571D01*
X146520819Y-81343571D02*
X146663676Y-81438809D01*
X146663676Y-81438809D02*
X146758914Y-81534047D01*
X146758914Y-81534047D02*
X146806533Y-81629285D01*
X146520819Y-80153095D02*
X146520819Y-80629285D01*
X146520819Y-80629285D02*
X146997009Y-80676904D01*
X146997009Y-80676904D02*
X146949390Y-80629285D01*
X146949390Y-80629285D02*
X146901771Y-80534047D01*
X146901771Y-80534047D02*
X146901771Y-80295952D01*
X146901771Y-80295952D02*
X146949390Y-80200714D01*
X146949390Y-80200714D02*
X146997009Y-80153095D01*
X146997009Y-80153095D02*
X147092247Y-80105476D01*
X147092247Y-80105476D02*
X147330342Y-80105476D01*
X147330342Y-80105476D02*
X147425580Y-80153095D01*
X147425580Y-80153095D02*
X147473200Y-80200714D01*
X147473200Y-80200714D02*
X147520819Y-80295952D01*
X147520819Y-80295952D02*
X147520819Y-80534047D01*
X147520819Y-80534047D02*
X147473200Y-80629285D01*
X147473200Y-80629285D02*
X147425580Y-80676904D01*
X184238095Y-62004819D02*
X184238095Y-61004819D01*
X184238095Y-61481009D02*
X184809523Y-61481009D01*
X184809523Y-62004819D02*
X184809523Y-61004819D01*
X185190476Y-61004819D02*
X185809523Y-61004819D01*
X185809523Y-61004819D02*
X185476190Y-61385771D01*
X185476190Y-61385771D02*
X185619047Y-61385771D01*
X185619047Y-61385771D02*
X185714285Y-61433390D01*
X185714285Y-61433390D02*
X185761904Y-61481009D01*
X185761904Y-61481009D02*
X185809523Y-61576247D01*
X185809523Y-61576247D02*
X185809523Y-61814342D01*
X185809523Y-61814342D02*
X185761904Y-61909580D01*
X185761904Y-61909580D02*
X185714285Y-61957200D01*
X185714285Y-61957200D02*
X185619047Y-62004819D01*
X185619047Y-62004819D02*
X185333333Y-62004819D01*
X185333333Y-62004819D02*
X185238095Y-61957200D01*
X185238095Y-61957200D02*
X185190476Y-61909580D01*
X56985700Y-73723332D02*
X57033319Y-73580475D01*
X57033319Y-73580475D02*
X57033319Y-73342380D01*
X57033319Y-73342380D02*
X56985700Y-73247142D01*
X56985700Y-73247142D02*
X56938080Y-73199523D01*
X56938080Y-73199523D02*
X56842842Y-73151904D01*
X56842842Y-73151904D02*
X56747604Y-73151904D01*
X56747604Y-73151904D02*
X56652366Y-73199523D01*
X56652366Y-73199523D02*
X56604747Y-73247142D01*
X56604747Y-73247142D02*
X56557128Y-73342380D01*
X56557128Y-73342380D02*
X56509509Y-73532856D01*
X56509509Y-73532856D02*
X56461890Y-73628094D01*
X56461890Y-73628094D02*
X56414271Y-73675713D01*
X56414271Y-73675713D02*
X56319033Y-73723332D01*
X56319033Y-73723332D02*
X56223795Y-73723332D01*
X56223795Y-73723332D02*
X56128557Y-73675713D01*
X56128557Y-73675713D02*
X56080938Y-73628094D01*
X56080938Y-73628094D02*
X56033319Y-73532856D01*
X56033319Y-73532856D02*
X56033319Y-73294761D01*
X56033319Y-73294761D02*
X56080938Y-73151904D01*
X56033319Y-72818570D02*
X57033319Y-72580475D01*
X57033319Y-72580475D02*
X56319033Y-72389999D01*
X56319033Y-72389999D02*
X57033319Y-72199523D01*
X57033319Y-72199523D02*
X56033319Y-71961428D01*
X56033319Y-71104285D02*
X56033319Y-71580475D01*
X56033319Y-71580475D02*
X56509509Y-71628094D01*
X56509509Y-71628094D02*
X56461890Y-71580475D01*
X56461890Y-71580475D02*
X56414271Y-71485237D01*
X56414271Y-71485237D02*
X56414271Y-71247142D01*
X56414271Y-71247142D02*
X56461890Y-71151904D01*
X56461890Y-71151904D02*
X56509509Y-71104285D01*
X56509509Y-71104285D02*
X56604747Y-71056666D01*
X56604747Y-71056666D02*
X56842842Y-71056666D01*
X56842842Y-71056666D02*
X56938080Y-71104285D01*
X56938080Y-71104285D02*
X56985700Y-71151904D01*
X56985700Y-71151904D02*
X57033319Y-71247142D01*
X57033319Y-71247142D02*
X57033319Y-71485237D01*
X57033319Y-71485237D02*
X56985700Y-71580475D01*
X56985700Y-71580475D02*
X56938080Y-71628094D01*
X56985700Y-111823332D02*
X57033319Y-111680475D01*
X57033319Y-111680475D02*
X57033319Y-111442380D01*
X57033319Y-111442380D02*
X56985700Y-111347142D01*
X56985700Y-111347142D02*
X56938080Y-111299523D01*
X56938080Y-111299523D02*
X56842842Y-111251904D01*
X56842842Y-111251904D02*
X56747604Y-111251904D01*
X56747604Y-111251904D02*
X56652366Y-111299523D01*
X56652366Y-111299523D02*
X56604747Y-111347142D01*
X56604747Y-111347142D02*
X56557128Y-111442380D01*
X56557128Y-111442380D02*
X56509509Y-111632856D01*
X56509509Y-111632856D02*
X56461890Y-111728094D01*
X56461890Y-111728094D02*
X56414271Y-111775713D01*
X56414271Y-111775713D02*
X56319033Y-111823332D01*
X56319033Y-111823332D02*
X56223795Y-111823332D01*
X56223795Y-111823332D02*
X56128557Y-111775713D01*
X56128557Y-111775713D02*
X56080938Y-111728094D01*
X56080938Y-111728094D02*
X56033319Y-111632856D01*
X56033319Y-111632856D02*
X56033319Y-111394761D01*
X56033319Y-111394761D02*
X56080938Y-111251904D01*
X56033319Y-110918570D02*
X57033319Y-110680475D01*
X57033319Y-110680475D02*
X56319033Y-110489999D01*
X56319033Y-110489999D02*
X57033319Y-110299523D01*
X57033319Y-110299523D02*
X56033319Y-110061428D01*
X56033319Y-109775713D02*
X56033319Y-109156666D01*
X56033319Y-109156666D02*
X56414271Y-109489999D01*
X56414271Y-109489999D02*
X56414271Y-109347142D01*
X56414271Y-109347142D02*
X56461890Y-109251904D01*
X56461890Y-109251904D02*
X56509509Y-109204285D01*
X56509509Y-109204285D02*
X56604747Y-109156666D01*
X56604747Y-109156666D02*
X56842842Y-109156666D01*
X56842842Y-109156666D02*
X56938080Y-109204285D01*
X56938080Y-109204285D02*
X56985700Y-109251904D01*
X56985700Y-109251904D02*
X57033319Y-109347142D01*
X57033319Y-109347142D02*
X57033319Y-109632856D01*
X57033319Y-109632856D02*
X56985700Y-109728094D01*
X56985700Y-109728094D02*
X56938080Y-109775713D01*
X56985700Y-92773332D02*
X57033319Y-92630475D01*
X57033319Y-92630475D02*
X57033319Y-92392380D01*
X57033319Y-92392380D02*
X56985700Y-92297142D01*
X56985700Y-92297142D02*
X56938080Y-92249523D01*
X56938080Y-92249523D02*
X56842842Y-92201904D01*
X56842842Y-92201904D02*
X56747604Y-92201904D01*
X56747604Y-92201904D02*
X56652366Y-92249523D01*
X56652366Y-92249523D02*
X56604747Y-92297142D01*
X56604747Y-92297142D02*
X56557128Y-92392380D01*
X56557128Y-92392380D02*
X56509509Y-92582856D01*
X56509509Y-92582856D02*
X56461890Y-92678094D01*
X56461890Y-92678094D02*
X56414271Y-92725713D01*
X56414271Y-92725713D02*
X56319033Y-92773332D01*
X56319033Y-92773332D02*
X56223795Y-92773332D01*
X56223795Y-92773332D02*
X56128557Y-92725713D01*
X56128557Y-92725713D02*
X56080938Y-92678094D01*
X56080938Y-92678094D02*
X56033319Y-92582856D01*
X56033319Y-92582856D02*
X56033319Y-92344761D01*
X56033319Y-92344761D02*
X56080938Y-92201904D01*
X56033319Y-91868570D02*
X57033319Y-91630475D01*
X57033319Y-91630475D02*
X56319033Y-91439999D01*
X56319033Y-91439999D02*
X57033319Y-91249523D01*
X57033319Y-91249523D02*
X56033319Y-91011428D01*
X56366652Y-90201904D02*
X57033319Y-90201904D01*
X55985700Y-90439999D02*
X56699985Y-90678094D01*
X56699985Y-90678094D02*
X56699985Y-90059047D01*
X29238095Y-134504819D02*
X29238095Y-133504819D01*
X29238095Y-133981009D02*
X29809523Y-133981009D01*
X29809523Y-134504819D02*
X29809523Y-133504819D01*
X30238095Y-133600057D02*
X30285714Y-133552438D01*
X30285714Y-133552438D02*
X30380952Y-133504819D01*
X30380952Y-133504819D02*
X30619047Y-133504819D01*
X30619047Y-133504819D02*
X30714285Y-133552438D01*
X30714285Y-133552438D02*
X30761904Y-133600057D01*
X30761904Y-133600057D02*
X30809523Y-133695295D01*
X30809523Y-133695295D02*
X30809523Y-133790533D01*
X30809523Y-133790533D02*
X30761904Y-133933390D01*
X30761904Y-133933390D02*
X30190476Y-134504819D01*
X30190476Y-134504819D02*
X30809523Y-134504819D01*
D12*
X188082547Y-91479707D02*
X188730166Y-91479707D01*
X188730166Y-91479707D02*
X188806356Y-91441612D01*
X188806356Y-91441612D02*
X188844452Y-91403517D01*
X188844452Y-91403517D02*
X188882547Y-91327326D01*
X188882547Y-91327326D02*
X188882547Y-91174945D01*
X188882547Y-91174945D02*
X188844452Y-91098755D01*
X188844452Y-91098755D02*
X188806356Y-91060660D01*
X188806356Y-91060660D02*
X188730166Y-91022564D01*
X188730166Y-91022564D02*
X188082547Y-91022564D01*
X188882547Y-90222565D02*
X188882547Y-90679708D01*
X188882547Y-90451136D02*
X188082547Y-90451136D01*
X188082547Y-90451136D02*
X188196832Y-90527327D01*
X188196832Y-90527327D02*
X188273023Y-90603517D01*
X188273023Y-90603517D02*
X188311118Y-90679708D01*
D11*
X80798200Y-83248332D02*
X80845819Y-83105475D01*
X80845819Y-83105475D02*
X80845819Y-82867380D01*
X80845819Y-82867380D02*
X80798200Y-82772142D01*
X80798200Y-82772142D02*
X80750580Y-82724523D01*
X80750580Y-82724523D02*
X80655342Y-82676904D01*
X80655342Y-82676904D02*
X80560104Y-82676904D01*
X80560104Y-82676904D02*
X80464866Y-82724523D01*
X80464866Y-82724523D02*
X80417247Y-82772142D01*
X80417247Y-82772142D02*
X80369628Y-82867380D01*
X80369628Y-82867380D02*
X80322009Y-83057856D01*
X80322009Y-83057856D02*
X80274390Y-83153094D01*
X80274390Y-83153094D02*
X80226771Y-83200713D01*
X80226771Y-83200713D02*
X80131533Y-83248332D01*
X80131533Y-83248332D02*
X80036295Y-83248332D01*
X80036295Y-83248332D02*
X79941057Y-83200713D01*
X79941057Y-83200713D02*
X79893438Y-83153094D01*
X79893438Y-83153094D02*
X79845819Y-83057856D01*
X79845819Y-83057856D02*
X79845819Y-82819761D01*
X79845819Y-82819761D02*
X79893438Y-82676904D01*
X79845819Y-82343570D02*
X80845819Y-82105475D01*
X80845819Y-82105475D02*
X80131533Y-81914999D01*
X80131533Y-81914999D02*
X80845819Y-81724523D01*
X80845819Y-81724523D02*
X79845819Y-81486428D01*
X80274390Y-80962618D02*
X80226771Y-81057856D01*
X80226771Y-81057856D02*
X80179152Y-81105475D01*
X80179152Y-81105475D02*
X80083914Y-81153094D01*
X80083914Y-81153094D02*
X80036295Y-81153094D01*
X80036295Y-81153094D02*
X79941057Y-81105475D01*
X79941057Y-81105475D02*
X79893438Y-81057856D01*
X79893438Y-81057856D02*
X79845819Y-80962618D01*
X79845819Y-80962618D02*
X79845819Y-80772142D01*
X79845819Y-80772142D02*
X79893438Y-80676904D01*
X79893438Y-80676904D02*
X79941057Y-80629285D01*
X79941057Y-80629285D02*
X80036295Y-80581666D01*
X80036295Y-80581666D02*
X80083914Y-80581666D01*
X80083914Y-80581666D02*
X80179152Y-80629285D01*
X80179152Y-80629285D02*
X80226771Y-80676904D01*
X80226771Y-80676904D02*
X80274390Y-80772142D01*
X80274390Y-80772142D02*
X80274390Y-80962618D01*
X80274390Y-80962618D02*
X80322009Y-81057856D01*
X80322009Y-81057856D02*
X80369628Y-81105475D01*
X80369628Y-81105475D02*
X80464866Y-81153094D01*
X80464866Y-81153094D02*
X80655342Y-81153094D01*
X80655342Y-81153094D02*
X80750580Y-81105475D01*
X80750580Y-81105475D02*
X80798200Y-81057856D01*
X80798200Y-81057856D02*
X80845819Y-80962618D01*
X80845819Y-80962618D02*
X80845819Y-80772142D01*
X80845819Y-80772142D02*
X80798200Y-80676904D01*
X80798200Y-80676904D02*
X80750580Y-80629285D01*
X80750580Y-80629285D02*
X80655342Y-80581666D01*
X80655342Y-80581666D02*
X80464866Y-80581666D01*
X80464866Y-80581666D02*
X80369628Y-80629285D01*
X80369628Y-80629285D02*
X80322009Y-80676904D01*
X80322009Y-80676904D02*
X80274390Y-80772142D01*
X118898200Y-107060832D02*
X118945819Y-106917975D01*
X118945819Y-106917975D02*
X118945819Y-106679880D01*
X118945819Y-106679880D02*
X118898200Y-106584642D01*
X118898200Y-106584642D02*
X118850580Y-106537023D01*
X118850580Y-106537023D02*
X118755342Y-106489404D01*
X118755342Y-106489404D02*
X118660104Y-106489404D01*
X118660104Y-106489404D02*
X118564866Y-106537023D01*
X118564866Y-106537023D02*
X118517247Y-106584642D01*
X118517247Y-106584642D02*
X118469628Y-106679880D01*
X118469628Y-106679880D02*
X118422009Y-106870356D01*
X118422009Y-106870356D02*
X118374390Y-106965594D01*
X118374390Y-106965594D02*
X118326771Y-107013213D01*
X118326771Y-107013213D02*
X118231533Y-107060832D01*
X118231533Y-107060832D02*
X118136295Y-107060832D01*
X118136295Y-107060832D02*
X118041057Y-107013213D01*
X118041057Y-107013213D02*
X117993438Y-106965594D01*
X117993438Y-106965594D02*
X117945819Y-106870356D01*
X117945819Y-106870356D02*
X117945819Y-106632261D01*
X117945819Y-106632261D02*
X117993438Y-106489404D01*
X117945819Y-106156070D02*
X118945819Y-105917975D01*
X118945819Y-105917975D02*
X118231533Y-105727499D01*
X118231533Y-105727499D02*
X118945819Y-105537023D01*
X118945819Y-105537023D02*
X117945819Y-105298928D01*
X117945819Y-104489404D02*
X117945819Y-104679880D01*
X117945819Y-104679880D02*
X117993438Y-104775118D01*
X117993438Y-104775118D02*
X118041057Y-104822737D01*
X118041057Y-104822737D02*
X118183914Y-104917975D01*
X118183914Y-104917975D02*
X118374390Y-104965594D01*
X118374390Y-104965594D02*
X118755342Y-104965594D01*
X118755342Y-104965594D02*
X118850580Y-104917975D01*
X118850580Y-104917975D02*
X118898200Y-104870356D01*
X118898200Y-104870356D02*
X118945819Y-104775118D01*
X118945819Y-104775118D02*
X118945819Y-104584642D01*
X118945819Y-104584642D02*
X118898200Y-104489404D01*
X118898200Y-104489404D02*
X118850580Y-104441785D01*
X118850580Y-104441785D02*
X118755342Y-104394166D01*
X118755342Y-104394166D02*
X118517247Y-104394166D01*
X118517247Y-104394166D02*
X118422009Y-104441785D01*
X118422009Y-104441785D02*
X118374390Y-104489404D01*
X118374390Y-104489404D02*
X118326771Y-104584642D01*
X118326771Y-104584642D02*
X118326771Y-104775118D01*
X118326771Y-104775118D02*
X118374390Y-104870356D01*
X118374390Y-104870356D02*
X118422009Y-104917975D01*
X118422009Y-104917975D02*
X118517247Y-104965594D01*
X56985700Y-130873332D02*
X57033319Y-130730475D01*
X57033319Y-130730475D02*
X57033319Y-130492380D01*
X57033319Y-130492380D02*
X56985700Y-130397142D01*
X56985700Y-130397142D02*
X56938080Y-130349523D01*
X56938080Y-130349523D02*
X56842842Y-130301904D01*
X56842842Y-130301904D02*
X56747604Y-130301904D01*
X56747604Y-130301904D02*
X56652366Y-130349523D01*
X56652366Y-130349523D02*
X56604747Y-130397142D01*
X56604747Y-130397142D02*
X56557128Y-130492380D01*
X56557128Y-130492380D02*
X56509509Y-130682856D01*
X56509509Y-130682856D02*
X56461890Y-130778094D01*
X56461890Y-130778094D02*
X56414271Y-130825713D01*
X56414271Y-130825713D02*
X56319033Y-130873332D01*
X56319033Y-130873332D02*
X56223795Y-130873332D01*
X56223795Y-130873332D02*
X56128557Y-130825713D01*
X56128557Y-130825713D02*
X56080938Y-130778094D01*
X56080938Y-130778094D02*
X56033319Y-130682856D01*
X56033319Y-130682856D02*
X56033319Y-130444761D01*
X56033319Y-130444761D02*
X56080938Y-130301904D01*
X56033319Y-129968570D02*
X57033319Y-129730475D01*
X57033319Y-129730475D02*
X56319033Y-129539999D01*
X56319033Y-129539999D02*
X57033319Y-129349523D01*
X57033319Y-129349523D02*
X56033319Y-129111428D01*
X56128557Y-128778094D02*
X56080938Y-128730475D01*
X56080938Y-128730475D02*
X56033319Y-128635237D01*
X56033319Y-128635237D02*
X56033319Y-128397142D01*
X56033319Y-128397142D02*
X56080938Y-128301904D01*
X56080938Y-128301904D02*
X56128557Y-128254285D01*
X56128557Y-128254285D02*
X56223795Y-128206666D01*
X56223795Y-128206666D02*
X56319033Y-128206666D01*
X56319033Y-128206666D02*
X56461890Y-128254285D01*
X56461890Y-128254285D02*
X57033319Y-128825713D01*
X57033319Y-128825713D02*
X57033319Y-128206666D01*
X129238095Y-62004819D02*
X129238095Y-61004819D01*
X129238095Y-61481009D02*
X129809523Y-61481009D01*
X129809523Y-62004819D02*
X129809523Y-61004819D01*
X130714285Y-61004819D02*
X130523809Y-61004819D01*
X130523809Y-61004819D02*
X130428571Y-61052438D01*
X130428571Y-61052438D02*
X130380952Y-61100057D01*
X130380952Y-61100057D02*
X130285714Y-61242914D01*
X130285714Y-61242914D02*
X130238095Y-61433390D01*
X130238095Y-61433390D02*
X130238095Y-61814342D01*
X130238095Y-61814342D02*
X130285714Y-61909580D01*
X130285714Y-61909580D02*
X130333333Y-61957200D01*
X130333333Y-61957200D02*
X130428571Y-62004819D01*
X130428571Y-62004819D02*
X130619047Y-62004819D01*
X130619047Y-62004819D02*
X130714285Y-61957200D01*
X130714285Y-61957200D02*
X130761904Y-61909580D01*
X130761904Y-61909580D02*
X130809523Y-61814342D01*
X130809523Y-61814342D02*
X130809523Y-61576247D01*
X130809523Y-61576247D02*
X130761904Y-61481009D01*
X130761904Y-61481009D02*
X130714285Y-61433390D01*
X130714285Y-61433390D02*
X130619047Y-61385771D01*
X130619047Y-61385771D02*
X130428571Y-61385771D01*
X130428571Y-61385771D02*
X130333333Y-61433390D01*
X130333333Y-61433390D02*
X130285714Y-61481009D01*
X130285714Y-61481009D02*
X130238095Y-61576247D01*
D13*
%TO.C,SW9*%
X100330000Y-65405000D02*
X114300000Y-65405000D01*
X100330000Y-79375000D02*
X100330000Y-65405000D01*
X114300000Y-65405000D02*
X114300000Y-79375000D01*
X114300000Y-79375000D02*
X100330000Y-79375000D01*
%TO.C,SW7*%
X100330000Y-84455000D02*
X114300000Y-84455000D01*
X100330000Y-98425000D02*
X100330000Y-84455000D01*
X114300000Y-84455000D02*
X114300000Y-98425000D01*
X114300000Y-98425000D02*
X100330000Y-98425000D01*
%TO.C,SW1*%
X33655000Y-117792500D02*
X47625000Y-117792500D01*
X33655000Y-131762500D02*
X33655000Y-117792500D01*
X47625000Y-117792500D02*
X47625000Y-131762500D01*
X47625000Y-131762500D02*
X33655000Y-131762500D01*
%TO.C,SW13*%
X147955000Y-113030000D02*
X161925000Y-113030000D01*
X147955000Y-127000000D02*
X147955000Y-113030000D01*
X161925000Y-113030000D02*
X161925000Y-127000000D01*
X161925000Y-127000000D02*
X147955000Y-127000000D01*
%TO.C,SW12*%
X100330000Y-108267500D02*
X114300000Y-108267500D01*
X100330000Y-122237500D02*
X100330000Y-108267500D01*
X114300000Y-108267500D02*
X114300000Y-122237500D01*
X114300000Y-122237500D02*
X100330000Y-122237500D01*
%TO.C,SW10*%
X119380000Y-74930000D02*
X133350000Y-74930000D01*
X119380000Y-88900000D02*
X119380000Y-74930000D01*
X133350000Y-74930000D02*
X133350000Y-88900000D01*
X133350000Y-88900000D02*
X119380000Y-88900000D01*
%TO.C,SW14*%
X147955000Y-93980000D02*
X161925000Y-93980000D01*
X147955000Y-107950000D02*
X147955000Y-93980000D01*
X161925000Y-93980000D02*
X161925000Y-107950000D01*
X161925000Y-107950000D02*
X147955000Y-107950000D01*
%TO.C,SW11*%
X81280000Y-98742500D02*
X95250000Y-98742500D01*
X81280000Y-112712500D02*
X81280000Y-98742500D01*
X95250000Y-98742500D02*
X95250000Y-112712500D01*
X95250000Y-112712500D02*
X81280000Y-112712500D01*
%TO.C,SW15*%
X147955000Y-74930000D02*
X161925000Y-74930000D01*
X147955000Y-88900000D02*
X147955000Y-74930000D01*
X161925000Y-74930000D02*
X161925000Y-88900000D01*
X161925000Y-88900000D02*
X147955000Y-88900000D01*
%TO.C,SW5*%
X57467500Y-65405000D02*
X71437500Y-65405000D01*
X57467500Y-79375000D02*
X57467500Y-65405000D01*
X71437500Y-65405000D02*
X71437500Y-79375000D01*
X71437500Y-79375000D02*
X57467500Y-79375000D01*
%TO.C,SW3*%
X57467500Y-103505000D02*
X71437500Y-103505000D01*
X57467500Y-117475000D02*
X57467500Y-103505000D01*
X71437500Y-103505000D02*
X71437500Y-117475000D01*
X71437500Y-117475000D02*
X57467500Y-117475000D01*
%TO.C,SW4*%
X57467500Y-84455000D02*
X71437500Y-84455000D01*
X57467500Y-98425000D02*
X57467500Y-84455000D01*
X71437500Y-84455000D02*
X71437500Y-98425000D01*
X71437500Y-98425000D02*
X57467500Y-98425000D01*
D14*
%TO.C,U1*%
X168752236Y-94785000D02*
G75*
G02*
X170231500Y-92880000I1966267J-2D01*
G01*
X170231500Y-110660000D02*
G75*
G02*
X168752236Y-108755000I487000J1905000D01*
G01*
X188231500Y-92880001D02*
G75*
G02*
X189806963Y-94785000I-364002J-1905001D01*
G01*
X189803727Y-108755001D02*
G75*
G02*
X188231500Y-110660000I-1940277J51D01*
G01*
D15*
X188887500Y-93944000D02*
G75*
G02*
X188383500Y-93944000I-252000J0D01*
G01*
X188383500Y-93944000D02*
G75*
G02*
X188887500Y-93944000I252000J0D01*
G01*
X189604500Y-92670000D02*
G75*
G02*
X189100500Y-92670000I-252000J0D01*
G01*
X189100500Y-92670000D02*
G75*
G02*
X189604500Y-92670000I252000J0D01*
G01*
D13*
%TO.C,SW8*%
X81280000Y-74930000D02*
X95250000Y-74930000D01*
X81280000Y-88900000D02*
X81280000Y-74930000D01*
X95250000Y-74930000D02*
X95250000Y-88900000D01*
X95250000Y-88900000D02*
X81280000Y-88900000D01*
%TO.C,SW6*%
X119380000Y-98742500D02*
X133350000Y-98742500D01*
X119380000Y-112712500D02*
X119380000Y-98742500D01*
X133350000Y-98742500D02*
X133350000Y-112712500D01*
X133350000Y-112712500D02*
X119380000Y-112712500D01*
%TO.C,SW2*%
X57467500Y-122555000D02*
X71437500Y-122555000D01*
X57467500Y-136525000D02*
X57467500Y-122555000D01*
X71437500Y-122555000D02*
X71437500Y-136525000D01*
X71437500Y-136525000D02*
X57467500Y-136525000D01*
%TD*%
M02*
