%TF.GenerationSoftware,KiCad,Pcbnew,9.0.6*%
%TF.CreationDate,2026-01-24T17:24:49-08:00*%
%TF.ProjectId,board,626f6172-642e-46b6-9963-61645f706362,rev?*%
%TF.SameCoordinates,Original*%
%TF.FileFunction,Copper,L1,Top*%
%TF.FilePolarity,Positive*%
%FSLAX46Y46*%
G04 Gerber Fmt 4.6, Leading zero omitted, Abs format (unit mm)*
G04 Created by KiCad (PCBNEW 9.0.6) date 2026-01-24 17:24:49*
%MOMM*%
%LPD*%
G01*
G04 APERTURE LIST*
G04 Aperture macros list*
%AMRoundRect*
0 Rectangle with rounded corners*
0 $1 Rounding radius*
0 $2 $3 $4 $5 $6 $7 $8 $9 X,Y pos of 4 corners*
0 Add a 4 corners polygon primitive as box body*
4,1,4,$2,$3,$4,$5,$6,$7,$8,$9,$2,$3,0*
0 Add four circle primitives for the rounded corners*
1,1,$1+$1,$2,$3*
1,1,$1+$1,$4,$5*
1,1,$1+$1,$6,$7*
1,1,$1+$1,$8,$9*
0 Add four rect primitives between the rounded corners*
20,1,$1+$1,$2,$3,$4,$5,0*
20,1,$1+$1,$4,$5,$6,$7,0*
20,1,$1+$1,$6,$7,$8,$9,0*
20,1,$1+$1,$8,$9,$2,$3,0*%
G04 Aperture macros list end*
%ADD10C,0.300000*%
%TA.AperFunction,NonConductor*%
%ADD11C,0.300000*%
%TD*%
%TA.AperFunction,NonConductor*%
%ADD12C,0.200000*%
%TD*%
%TA.AperFunction,ComponentPad*%
%ADD13C,2.200000*%
%TD*%
%TA.AperFunction,ComponentPad*%
%ADD14C,5.000000*%
%TD*%
%TA.AperFunction,SMDPad,CuDef*%
%ADD15RoundRect,0.500000X-0.500000X0.875000X-0.500000X-0.875000X0.500000X-0.875000X0.500000X0.875000X0*%
%TD*%
%TA.AperFunction,SMDPad,CuDef*%
%ADD16RoundRect,0.275000X0.275000X-0.975000X0.275000X0.975000X-0.275000X0.975000X-0.275000X-0.975000X0*%
%TD*%
%TA.AperFunction,SMDPad,CuDef*%
%ADD17RoundRect,0.275000X0.975000X0.275000X-0.975000X0.275000X-0.975000X-0.275000X0.975000X-0.275000X0*%
%TD*%
%TA.AperFunction,SMDPad,CuDef*%
%ADD18C,1.700000*%
%TD*%
%TA.AperFunction,ComponentPad*%
%ADD19RoundRect,0.250000X0.625000X-0.350000X0.625000X0.350000X-0.625000X0.350000X-0.625000X-0.350000X0*%
%TD*%
%TA.AperFunction,ComponentPad*%
%ADD20O,1.750000X1.200000*%
%TD*%
%TA.AperFunction,ViaPad*%
%ADD21C,0.600000*%
%TD*%
%TA.AperFunction,Conductor*%
%ADD22C,0.400000*%
%TD*%
G04 APERTURE END LIST*
D10*
D11*
X218571185Y-103178570D02*
X218499757Y-103321427D01*
X218499757Y-103321427D02*
X218428328Y-103392856D01*
X218428328Y-103392856D02*
X218285471Y-103464284D01*
X218285471Y-103464284D02*
X218214042Y-103464284D01*
X218214042Y-103464284D02*
X218071185Y-103392856D01*
X218071185Y-103392856D02*
X217999757Y-103321427D01*
X217999757Y-103321427D02*
X217928328Y-103178570D01*
X217928328Y-103178570D02*
X217928328Y-102892856D01*
X217928328Y-102892856D02*
X217999757Y-102749999D01*
X217999757Y-102749999D02*
X218071185Y-102678570D01*
X218071185Y-102678570D02*
X218214042Y-102607141D01*
X218214042Y-102607141D02*
X218285471Y-102607141D01*
X218285471Y-102607141D02*
X218428328Y-102678570D01*
X218428328Y-102678570D02*
X218499757Y-102749999D01*
X218499757Y-102749999D02*
X218571185Y-102892856D01*
X218571185Y-102892856D02*
X218571185Y-103178570D01*
X218571185Y-103178570D02*
X218642614Y-103321427D01*
X218642614Y-103321427D02*
X218714042Y-103392856D01*
X218714042Y-103392856D02*
X218856900Y-103464284D01*
X218856900Y-103464284D02*
X219142614Y-103464284D01*
X219142614Y-103464284D02*
X219285471Y-103392856D01*
X219285471Y-103392856D02*
X219356900Y-103321427D01*
X219356900Y-103321427D02*
X219428328Y-103178570D01*
X219428328Y-103178570D02*
X219428328Y-102892856D01*
X219428328Y-102892856D02*
X219356900Y-102749999D01*
X219356900Y-102749999D02*
X219285471Y-102678570D01*
X219285471Y-102678570D02*
X219142614Y-102607141D01*
X219142614Y-102607141D02*
X218856900Y-102607141D01*
X218856900Y-102607141D02*
X218714042Y-102678570D01*
X218714042Y-102678570D02*
X218642614Y-102749999D01*
X218642614Y-102749999D02*
X218571185Y-102892856D01*
X218071185Y-102035713D02*
X217999757Y-101964285D01*
X217999757Y-101964285D02*
X217928328Y-101821428D01*
X217928328Y-101821428D02*
X217928328Y-101464285D01*
X217928328Y-101464285D02*
X217999757Y-101321428D01*
X217999757Y-101321428D02*
X218071185Y-101249999D01*
X218071185Y-101249999D02*
X218214042Y-101178570D01*
X218214042Y-101178570D02*
X218356900Y-101178570D01*
X218356900Y-101178570D02*
X218571185Y-101249999D01*
X218571185Y-101249999D02*
X219428328Y-102107142D01*
X219428328Y-102107142D02*
X219428328Y-101178570D01*
X219285471Y-100535714D02*
X219356900Y-100464285D01*
X219356900Y-100464285D02*
X219428328Y-100535714D01*
X219428328Y-100535714D02*
X219356900Y-100607142D01*
X219356900Y-100607142D02*
X219285471Y-100535714D01*
X219285471Y-100535714D02*
X219428328Y-100535714D01*
X217928328Y-99107142D02*
X217928328Y-99821428D01*
X217928328Y-99821428D02*
X218642614Y-99892856D01*
X218642614Y-99892856D02*
X218571185Y-99821428D01*
X218571185Y-99821428D02*
X218499757Y-99678571D01*
X218499757Y-99678571D02*
X218499757Y-99321428D01*
X218499757Y-99321428D02*
X218571185Y-99178571D01*
X218571185Y-99178571D02*
X218642614Y-99107142D01*
X218642614Y-99107142D02*
X218785471Y-99035713D01*
X218785471Y-99035713D02*
X219142614Y-99035713D01*
X219142614Y-99035713D02*
X219285471Y-99107142D01*
X219285471Y-99107142D02*
X219356900Y-99178571D01*
X219356900Y-99178571D02*
X219428328Y-99321428D01*
X219428328Y-99321428D02*
X219428328Y-99678571D01*
X219428328Y-99678571D02*
X219356900Y-99821428D01*
X219356900Y-99821428D02*
X219285471Y-99892856D01*
D12*
X190500000Y-60000000D02*
X221136420Y-60000000D01*
X221136420Y-142500000D02*
X190500000Y-142500000D01*
X220550000Y-60000000D02*
X220550000Y-142500000D01*
X220550000Y-60000000D02*
X221136421Y-61126504D01*
X220550000Y-60000000D02*
X219963579Y-61126504D01*
X220550000Y-142500000D02*
X219963579Y-141373496D01*
X220550000Y-142500000D02*
X221136421Y-141373496D01*
D10*
D11*
X106500001Y-169038328D02*
X105642858Y-169038328D01*
X106071429Y-169038328D02*
X106071429Y-167538328D01*
X106071429Y-167538328D02*
X105928572Y-167752614D01*
X105928572Y-167752614D02*
X105785715Y-167895471D01*
X105785715Y-167895471D02*
X105642858Y-167966900D01*
X107785715Y-167538328D02*
X107500000Y-167538328D01*
X107500000Y-167538328D02*
X107357143Y-167609757D01*
X107357143Y-167609757D02*
X107285715Y-167681185D01*
X107285715Y-167681185D02*
X107142857Y-167895471D01*
X107142857Y-167895471D02*
X107071429Y-168181185D01*
X107071429Y-168181185D02*
X107071429Y-168752614D01*
X107071429Y-168752614D02*
X107142857Y-168895471D01*
X107142857Y-168895471D02*
X107214286Y-168966900D01*
X107214286Y-168966900D02*
X107357143Y-169038328D01*
X107357143Y-169038328D02*
X107642857Y-169038328D01*
X107642857Y-169038328D02*
X107785715Y-168966900D01*
X107785715Y-168966900D02*
X107857143Y-168895471D01*
X107857143Y-168895471D02*
X107928572Y-168752614D01*
X107928572Y-168752614D02*
X107928572Y-168395471D01*
X107928572Y-168395471D02*
X107857143Y-168252614D01*
X107857143Y-168252614D02*
X107785715Y-168181185D01*
X107785715Y-168181185D02*
X107642857Y-168109757D01*
X107642857Y-168109757D02*
X107357143Y-168109757D01*
X107357143Y-168109757D02*
X107214286Y-168181185D01*
X107214286Y-168181185D02*
X107142857Y-168252614D01*
X107142857Y-168252614D02*
X107071429Y-168395471D01*
X109285714Y-167538328D02*
X108571428Y-167538328D01*
X108571428Y-167538328D02*
X108500000Y-168252614D01*
X108500000Y-168252614D02*
X108571428Y-168181185D01*
X108571428Y-168181185D02*
X108714286Y-168109757D01*
X108714286Y-168109757D02*
X109071428Y-168109757D01*
X109071428Y-168109757D02*
X109214286Y-168181185D01*
X109214286Y-168181185D02*
X109285714Y-168252614D01*
X109285714Y-168252614D02*
X109357143Y-168395471D01*
X109357143Y-168395471D02*
X109357143Y-168752614D01*
X109357143Y-168752614D02*
X109285714Y-168895471D01*
X109285714Y-168895471D02*
X109214286Y-168966900D01*
X109214286Y-168966900D02*
X109071428Y-169038328D01*
X109071428Y-169038328D02*
X108714286Y-169038328D01*
X108714286Y-169038328D02*
X108571428Y-168966900D01*
X108571428Y-168966900D02*
X108500000Y-168895471D01*
D12*
X25000000Y-143000000D02*
X25000000Y-170746420D01*
X190000000Y-170746420D02*
X190000000Y-143000000D01*
X25000000Y-170160000D02*
X190000000Y-170160000D01*
X25000000Y-170160000D02*
X26126504Y-169573579D01*
X25000000Y-170160000D02*
X26126504Y-170746421D01*
X190000000Y-170160000D02*
X188873496Y-170746421D01*
X190000000Y-170160000D02*
X188873496Y-169573579D01*
D13*
%TO.P,SW9,1,1*%
%TO.N,COL3*%
X102235000Y-69850000D03*
%TO.P,SW9,2,2*%
%TO.N,Net-(D9-A)*%
X104775000Y-76200000D03*
%TD*%
%TO.P,SW7,1,1*%
%TO.N,COL1*%
X102235000Y-88900000D03*
%TO.P,SW7,2,2*%
%TO.N,Net-(D7-A)*%
X104775000Y-95250000D03*
%TD*%
%TO.P,SW1,1,1*%
%TO.N,COL0*%
X35560000Y-122237500D03*
%TO.P,SW1,2,2*%
%TO.N,Net-(D1-A)*%
X38100000Y-128587500D03*
%TD*%
%TO.P,SW13,1,1*%
%TO.N,COL2*%
X149860000Y-117475000D03*
%TO.P,SW13,2,2*%
%TO.N,Net-(D13-A)*%
X152400000Y-123825000D03*
%TD*%
D14*
%TO.P,H1,1,1*%
%TO.N,GND*%
X30000000Y-65000000D03*
%TD*%
%TO.P,H4,1,1*%
%TO.N,GND*%
X185000000Y-137500000D03*
%TD*%
%TO.P,H5,1,1*%
%TO.N,GND*%
X107500000Y-137500000D03*
%TD*%
D13*
%TO.P,SW12,1,1*%
%TO.N,COL1*%
X102235000Y-112712500D03*
%TO.P,SW12,2,2*%
%TO.N,Net-(D12-A)*%
X104775000Y-119062500D03*
%TD*%
%TO.P,SW10,1,1*%
%TO.N,COL4*%
X121285000Y-79375000D03*
%TO.P,SW10,2,2*%
%TO.N,Net-(D10-A)*%
X123825000Y-85725000D03*
%TD*%
%TO.P,SW14,1,1*%
%TO.N,COL3*%
X149860000Y-98425000D03*
%TO.P,SW14,2,2*%
%TO.N,Net-(D14-A)*%
X152400000Y-104775000D03*
%TD*%
%TO.P,SW11,1,1*%
%TO.N,COL0*%
X83185000Y-103187500D03*
%TO.P,SW11,2,2*%
%TO.N,Net-(D11-A)*%
X85725000Y-109537500D03*
%TD*%
%TO.P,SW15,1,1*%
%TO.N,COL4*%
X149860000Y-79375000D03*
%TO.P,SW15,2,2*%
%TO.N,Net-(D15-A)*%
X152400000Y-85725000D03*
%TD*%
D14*
%TO.P,H3,1,1*%
%TO.N,GND*%
X185000000Y-65000000D03*
%TD*%
D13*
%TO.P,SW5,1,1*%
%TO.N,COL4*%
X59372500Y-69850000D03*
%TO.P,SW5,2,2*%
%TO.N,Net-(D5-A)*%
X61912500Y-76200000D03*
%TD*%
%TO.P,SW3,1,1*%
%TO.N,COL2*%
X59372500Y-107950000D03*
%TO.P,SW3,2,2*%
%TO.N,Net-(D3-A)*%
X61912500Y-114300000D03*
%TD*%
%TO.P,SW4,1,1*%
%TO.N,COL3*%
X59372500Y-88900000D03*
%TO.P,SW4,2,2*%
%TO.N,Net-(D4-A)*%
X61912500Y-95250000D03*
%TD*%
D14*
%TO.P,H2,1,1*%
%TO.N,GND*%
X30000000Y-137500000D03*
%TD*%
D15*
%TO.P,U1,1,P0.02_A0_D0*%
%TO.N,unconnected-(U1-P0.02_A0_D0-Pad1)*%
X186851500Y-93715000D03*
%TO.P,U1,2,P0.03_A1_D1*%
%TO.N,COL1*%
X184311500Y-93715000D03*
%TO.P,U1,3,P0.28_A2_D2*%
%TO.N,COL4*%
X181771500Y-93715000D03*
%TO.P,U1,4,P0.29_A3_D3*%
%TO.N,COL3*%
X179231500Y-93715000D03*
%TO.P,U1,5,P0.04_A4_D4_SDA*%
%TO.N,COL0*%
X176691500Y-93715000D03*
%TO.P,U1,6,P0.05_A5_D5_SCL*%
%TO.N,ROW0*%
X174151500Y-93715000D03*
%TO.P,U1,7,P1.11_D6_TX*%
%TO.N,unconnected-(U1-P1.11_D6_TX-Pad7)*%
X171611500Y-93715000D03*
%TO.P,U1,8,P1.12_D7_RX*%
%TO.N,unconnected-(U1-P1.12_D7_RX-Pad8)*%
X171611500Y-109880000D03*
%TO.P,U1,9,P1.13_D8_SCK*%
%TO.N,ROW2*%
X174151500Y-109880000D03*
%TO.P,U1,10,P1.14_D9_MISO*%
%TO.N,COL2*%
X176691500Y-109880000D03*
%TO.P,U1,11,P1.15_D10_MOSI*%
%TO.N,ROW1*%
X179231500Y-109880000D03*
%TO.P,U1,12,3V3*%
%TO.N,unconnected-(U1-3V3-Pad12)*%
X181771500Y-109880000D03*
%TO.P,U1,13,GND*%
%TO.N,GND*%
X184311500Y-109880000D03*
%TO.P,U1,14,5V*%
%TO.N,unconnected-(U1-5V-Pad14)*%
X186851500Y-109880000D03*
D16*
%TO.P,U1,15,BAT*%
%TO.N,Net-(J1-Pin_2)*%
X179545000Y-97325000D03*
%TO.P,U1,16,GND*%
%TO.N,GND*%
X181450000Y-97325000D03*
D17*
%TO.P,U1,17,NFC1*%
%TO.N,unconnected-(U1-NFC1-Pad17)*%
X169994600Y-105580000D03*
%TO.P,U1,18,NFC2*%
%TO.N,unconnected-(U1-NFC2-Pad18)*%
X169994600Y-107485000D03*
D18*
%TO.P,U1,19,PA31_SWDIO*%
%TO.N,unconnected-(U1-PA31_SWDIO-Pad19)*%
X187800000Y-100500000D03*
%TO.P,U1,20,PA30_SWCLK*%
%TO.N,unconnected-(U1-PA30_SWCLK-Pad20)*%
X187800000Y-103040000D03*
%TO.P,U1,21,RESET*%
%TO.N,unconnected-(U1-RESET-Pad21)*%
X185260000Y-100500000D03*
%TO.P,U1,22,GND*%
%TO.N,GND*%
X185260000Y-103040000D03*
%TD*%
D13*
%TO.P,SW8,1,1*%
%TO.N,COL2*%
X83185000Y-79375000D03*
%TO.P,SW8,2,2*%
%TO.N,Net-(D8-A)*%
X85725000Y-85725000D03*
%TD*%
%TO.P,SW6,1,1*%
%TO.N,COL0*%
X121285000Y-103187500D03*
%TO.P,SW6,2,2*%
%TO.N,Net-(D6-A)*%
X123825000Y-109537500D03*
%TD*%
%TO.P,SW2,1,1*%
%TO.N,COL1*%
X59372500Y-127000000D03*
%TO.P,SW2,2,2*%
%TO.N,Net-(D2-A)*%
X61912500Y-133350000D03*
%TD*%
D14*
%TO.P,H6,1,1*%
%TO.N,GND*%
X130000000Y-65000000D03*
%TD*%
D19*
%TO.P,J1,1,Pin_1*%
%TO.N,GND*%
X179784526Y-124634478D03*
D20*
%TO.P,J1,2,Pin_2*%
%TO.N,Net-(J1-Pin_2)*%
X179784526Y-122634478D03*
%TD*%
D21*
%TO.N,ROW0*%
X174050000Y-89710000D03*
%TO.N,ROW1*%
X120310000Y-120090000D03*
%TO.N,ROW2*%
X174250000Y-116070000D03*
%TO.N,COL0*%
X166270000Y-83900000D03*
%TO.N,COL1*%
X141830000Y-76780000D03*
%TO.N,Net-(J1-Pin_2)*%
X179500000Y-102750000D03*
%TO.N,GND*%
X162500000Y-117500000D03*
X180000000Y-117500000D03*
X167500000Y-117500000D03*
X30000000Y-100000000D03*
X172500000Y-117500000D03*
X162500000Y-102500000D03*
X162500000Y-105000000D03*
X165000000Y-117500000D03*
X177500000Y-85000000D03*
X162500000Y-110000000D03*
X47500000Y-137500000D03*
X180000000Y-85000000D03*
X162500000Y-92500000D03*
X182500000Y-117500000D03*
X162500000Y-95000000D03*
X162500000Y-87500000D03*
X162500000Y-107500000D03*
X170000000Y-117500000D03*
X47500000Y-87500000D03*
X40000000Y-112500000D03*
X162500000Y-112500000D03*
X162500000Y-115000000D03*
X40000000Y-100000000D03*
X40000000Y-87500000D03*
X172500000Y-85000000D03*
X30000000Y-87500000D03*
X30000000Y-112500000D03*
X185000000Y-117500000D03*
X162500000Y-97500000D03*
X167500000Y-85000000D03*
X30000000Y-120000000D03*
X47500000Y-112500000D03*
X30000000Y-75000000D03*
X182500000Y-85000000D03*
X187500000Y-85000000D03*
X47500000Y-100000000D03*
X162500000Y-100000000D03*
X40000000Y-75000000D03*
X187500000Y-117500000D03*
X47500000Y-75000000D03*
X162500000Y-90000000D03*
%TD*%
D22*
%TO.N,ROW0*%
X174050000Y-90070000D02*
X174151500Y-90171500D01*
X174151500Y-90171500D02*
X174151500Y-93715000D01*
X174050000Y-89710000D02*
X174050000Y-90070000D01*
%TO.N,ROW1*%
X120310000Y-120090000D02*
X122610000Y-122390000D01*
X179231500Y-114118443D02*
X179231500Y-109880000D01*
X170959943Y-122390000D02*
X171124971Y-122224971D01*
X171124971Y-122224971D02*
X179231500Y-114118443D01*
X122610000Y-122390000D02*
X122676000Y-122324000D01*
X170883942Y-122466000D02*
X171124971Y-122224971D01*
X122676000Y-122324000D02*
X153782763Y-122324000D01*
X153924763Y-122466000D02*
X170883942Y-122466000D01*
X153782763Y-122324000D02*
X153924763Y-122466000D01*
%TO.N,ROW2*%
X174151500Y-115971500D02*
X174151500Y-109880000D01*
X174250000Y-116070000D02*
X174151500Y-115971500D01*
%TO.N,COL0*%
X35560000Y-122237500D02*
X35560000Y-123022316D01*
X102856735Y-87399000D02*
X98973500Y-87399000D01*
X64135000Y-122237500D02*
X83185000Y-103187500D01*
X35560000Y-122237500D02*
X64135000Y-122237500D01*
X121285000Y-103187500D02*
X121285000Y-101631866D01*
X173050057Y-83900000D02*
X176691500Y-87541443D01*
X98973500Y-87399000D02*
X83185000Y-103187500D01*
X121285000Y-101631866D02*
X107314134Y-87661000D01*
X107314134Y-87661000D02*
X103118735Y-87661000D01*
X103118735Y-87661000D02*
X102856735Y-87399000D01*
X176691500Y-87541443D02*
X176691500Y-93715000D01*
X166270000Y-83900000D02*
X173050057Y-83900000D01*
%TO.N,COL1*%
X178133942Y-75634000D02*
X184150000Y-81650058D01*
X141830000Y-76780000D02*
X143076000Y-75534000D01*
X178033942Y-75534000D02*
X178133942Y-75634000D01*
X102235000Y-112712500D02*
X87947500Y-127000000D01*
X102235000Y-112712500D02*
X102235000Y-88900000D01*
X184150000Y-81650058D02*
X184150000Y-81900000D01*
X184311500Y-82094400D02*
X184311500Y-93715000D01*
X143076000Y-75534000D02*
X178033942Y-75534000D01*
X87947500Y-127000000D02*
X59372500Y-127000000D01*
%TO.N,COL2*%
X174551000Y-116799000D02*
X150536000Y-116799000D01*
X107000000Y-79375000D02*
X83185000Y-79375000D01*
X83185000Y-84137500D02*
X83185000Y-79375000D01*
X150536000Y-116799000D02*
X149860000Y-117475000D01*
X176691500Y-109880000D02*
X176691500Y-114658500D01*
X59372500Y-107950000D02*
X83185000Y-84137500D01*
X145100000Y-117475000D02*
X107000000Y-79375000D01*
X176691500Y-114658500D02*
X174551000Y-116799000D01*
X145100000Y-117475000D02*
X149860000Y-117475000D01*
%TO.N,COL3*%
X102235000Y-71405634D02*
X106779366Y-75950000D01*
X106779366Y-75950000D02*
X107634892Y-75950000D01*
X102235000Y-69850000D02*
X102235000Y-71405634D01*
X149860000Y-96790057D02*
X164030057Y-82620000D01*
X130025184Y-98425000D02*
X149860000Y-98425000D01*
X149860000Y-98425000D02*
X149860000Y-96790057D01*
X59372500Y-88900000D02*
X78422500Y-69850000D01*
X130025184Y-98340292D02*
X130025184Y-98425000D01*
X164030057Y-82620000D02*
X176770057Y-82620000D01*
X107634892Y-75950000D02*
X130025184Y-98340292D01*
X176770057Y-82620000D02*
X179231500Y-85081443D01*
X78422500Y-69850000D02*
X102235000Y-69850000D01*
X179231500Y-85081443D02*
X179231500Y-93715000D01*
%TO.N,COL4*%
X121285000Y-79375000D02*
X149860000Y-79375000D01*
X149860000Y-79375000D02*
X181025000Y-79375000D01*
X107751461Y-65841461D02*
X121285000Y-79375000D01*
X59372500Y-69850000D02*
X63381039Y-65841461D01*
X181025000Y-79375000D02*
X181771500Y-80121500D01*
X181771500Y-80121500D02*
X181771500Y-93715000D01*
X63381039Y-65841461D02*
X107751461Y-65841461D01*
%TO.N,Net-(J1-Pin_2)*%
X179502713Y-102747287D02*
X179502713Y-97298523D01*
X179500000Y-102750000D02*
X179502713Y-102747287D01*
%TO.N,GND*%
X184311500Y-109880000D02*
X184311500Y-103988500D01*
X184311500Y-109880000D02*
X184311500Y-112521500D01*
X184311500Y-103988500D02*
X185260000Y-103040000D01*
%TD*%
%TA.AperFunction,Conductor*%
%TO.N,GND*%
G36*
X108506687Y-77821851D02*
G01*
X108539707Y-77845472D01*
X129353989Y-98659754D01*
X129380869Y-98699982D01*
X129404408Y-98756809D01*
X129404410Y-98756813D01*
X129481066Y-98871537D01*
X129481072Y-98871545D01*
X129578638Y-98969111D01*
X129578642Y-98969114D01*
X129693366Y-99045771D01*
X129693379Y-99045778D01*
X129799565Y-99089761D01*
X129820856Y-99098580D01*
X129820860Y-99098580D01*
X129820861Y-99098581D01*
X129956188Y-99125500D01*
X129956191Y-99125500D01*
X130094177Y-99125500D01*
X148344652Y-99125500D01*
X148411691Y-99145185D01*
X148455137Y-99193205D01*
X148483282Y-99248443D01*
X148491132Y-99263848D01*
X148639201Y-99467649D01*
X148639205Y-99467654D01*
X148817345Y-99645794D01*
X148817350Y-99645798D01*
X148995117Y-99774952D01*
X149021155Y-99793870D01*
X149164184Y-99866747D01*
X149245616Y-99908239D01*
X149245618Y-99908239D01*
X149245621Y-99908241D01*
X149485215Y-99986090D01*
X149734038Y-100025500D01*
X149734039Y-100025500D01*
X149985961Y-100025500D01*
X149985962Y-100025500D01*
X150234785Y-99986090D01*
X150474379Y-99908241D01*
X150698845Y-99793870D01*
X150902656Y-99645793D01*
X151080793Y-99467656D01*
X151228870Y-99263845D01*
X151343241Y-99039379D01*
X151421090Y-98799785D01*
X151460500Y-98550962D01*
X151460500Y-98299038D01*
X151421090Y-98050215D01*
X151343241Y-97810621D01*
X151343239Y-97810618D01*
X151343239Y-97810616D01*
X151280855Y-97688181D01*
X151228870Y-97586155D01*
X151186715Y-97528134D01*
X151080798Y-97382350D01*
X151080794Y-97382345D01*
X150902654Y-97204205D01*
X150902649Y-97204201D01*
X150750123Y-97093384D01*
X150707457Y-97038054D01*
X150701478Y-96968441D01*
X150734084Y-96906646D01*
X150735257Y-96905455D01*
X151842323Y-95798389D01*
X153839500Y-95798389D01*
X153839500Y-95971610D01*
X153859447Y-96097555D01*
X153866598Y-96142701D01*
X153920127Y-96307445D01*
X153998768Y-96461788D01*
X154100586Y-96601928D01*
X154223072Y-96724414D01*
X154363212Y-96826232D01*
X154517555Y-96904873D01*
X154682299Y-96958402D01*
X154853389Y-96985500D01*
X154853390Y-96985500D01*
X155026610Y-96985500D01*
X155026611Y-96985500D01*
X155197701Y-96958402D01*
X155362445Y-96904873D01*
X155516788Y-96826232D01*
X155656928Y-96724414D01*
X155779414Y-96601928D01*
X155881232Y-96461788D01*
X155959873Y-96307445D01*
X156013402Y-96142701D01*
X156040500Y-95971611D01*
X156040500Y-95798389D01*
X156013402Y-95627299D01*
X155959873Y-95462555D01*
X155881232Y-95308212D01*
X155779414Y-95168072D01*
X155656928Y-95045586D01*
X155516788Y-94943768D01*
X155362445Y-94865127D01*
X155197701Y-94811598D01*
X155197699Y-94811597D01*
X155197698Y-94811597D01*
X155066271Y-94790781D01*
X155026611Y-94784500D01*
X154853389Y-94784500D01*
X154813728Y-94790781D01*
X154682302Y-94811597D01*
X154517552Y-94865128D01*
X154363211Y-94943768D01*
X154283256Y-95001859D01*
X154223072Y-95045586D01*
X154223070Y-95045588D01*
X154223069Y-95045588D01*
X154100588Y-95168069D01*
X154100588Y-95168070D01*
X154100586Y-95168072D01*
X154056859Y-95228256D01*
X153998768Y-95308211D01*
X153920128Y-95462552D01*
X153866597Y-95627302D01*
X153839500Y-95798389D01*
X151842323Y-95798389D01*
X164283895Y-83356819D01*
X164345218Y-83323334D01*
X164371576Y-83320500D01*
X165462468Y-83320500D01*
X165529507Y-83340185D01*
X165575262Y-83392989D01*
X165585206Y-83462147D01*
X165565570Y-83513391D01*
X165560609Y-83520815D01*
X165560602Y-83520827D01*
X165500264Y-83666498D01*
X165500261Y-83666510D01*
X165469500Y-83821153D01*
X165469500Y-83978846D01*
X165500261Y-84133489D01*
X165500264Y-84133501D01*
X165560602Y-84279172D01*
X165560609Y-84279185D01*
X165648210Y-84410288D01*
X165648213Y-84410292D01*
X165759707Y-84521786D01*
X165759711Y-84521789D01*
X165890814Y-84609390D01*
X165890827Y-84609397D01*
X165952398Y-84634900D01*
X166036503Y-84669737D01*
X166191153Y-84700499D01*
X166191156Y-84700500D01*
X166191158Y-84700500D01*
X166348844Y-84700500D01*
X166348845Y-84700499D01*
X166503497Y-84669737D01*
X166587609Y-84634897D01*
X166647864Y-84609939D01*
X166695316Y-84600500D01*
X172708538Y-84600500D01*
X172775577Y-84620185D01*
X172796219Y-84636819D01*
X175954681Y-87795281D01*
X175988166Y-87856604D01*
X175991000Y-87882962D01*
X175991000Y-91763222D01*
X175971315Y-91830261D01*
X175918511Y-91876016D01*
X175901113Y-91882437D01*
X175818456Y-91906088D01*
X175776414Y-91928049D01*
X175638093Y-92000302D01*
X175638091Y-92000303D01*
X175638090Y-92000304D01*
X175499861Y-92113015D01*
X175435464Y-92140124D01*
X175366635Y-92128115D01*
X175343139Y-92113015D01*
X175304929Y-92081859D01*
X175204907Y-92000302D01*
X175204904Y-92000300D01*
X175066588Y-91928049D01*
X175016281Y-91879562D01*
X175000000Y-91818141D01*
X175000000Y-87500000D01*
X165000000Y-87500000D01*
X165000000Y-115000000D01*
X173327000Y-115000000D01*
X173394039Y-115019685D01*
X173439794Y-115072489D01*
X173451000Y-115124000D01*
X173451000Y-115971403D01*
X173449986Y-115985120D01*
X173450093Y-115985131D01*
X173449939Y-115986690D01*
X173449855Y-115986897D01*
X173449654Y-115989621D01*
X173449194Y-115992718D01*
X173448666Y-115993858D01*
X173448616Y-115995600D01*
X173448310Y-115997138D01*
X173447248Y-115996926D01*
X173435757Y-116021780D01*
X173423760Y-116051469D01*
X173421193Y-116053284D01*
X173419874Y-116056138D01*
X173392858Y-116073322D01*
X173366714Y-116091812D01*
X173362755Y-116092470D01*
X173360921Y-116093638D01*
X173355886Y-116093614D01*
X173326540Y-116098500D01*
X155592495Y-116098500D01*
X155525456Y-116078815D01*
X155479701Y-116026011D01*
X155469757Y-115956853D01*
X155498782Y-115893297D01*
X155519606Y-115874184D01*
X155656928Y-115774414D01*
X155779414Y-115651928D01*
X155881232Y-115511788D01*
X155959873Y-115357445D01*
X156013402Y-115192701D01*
X156040500Y-115021611D01*
X156040500Y-114848389D01*
X156013402Y-114677299D01*
X155959873Y-114512555D01*
X155881232Y-114358212D01*
X155779414Y-114218072D01*
X155656928Y-114095586D01*
X155516788Y-113993768D01*
X155362445Y-113915127D01*
X155197701Y-113861598D01*
X155197699Y-113861597D01*
X155197698Y-113861597D01*
X155066271Y-113840781D01*
X155026611Y-113834500D01*
X154853389Y-113834500D01*
X154813728Y-113840781D01*
X154682302Y-113861597D01*
X154517552Y-113915128D01*
X154363211Y-113993768D01*
X154286574Y-114049449D01*
X154223072Y-114095586D01*
X154223070Y-114095588D01*
X154223069Y-114095588D01*
X154100588Y-114218069D01*
X154100588Y-114218070D01*
X154100586Y-114218072D01*
X154078050Y-114249090D01*
X153998768Y-114358211D01*
X153920128Y-114512552D01*
X153866597Y-114677302D01*
X153839500Y-114848389D01*
X153839500Y-115021610D01*
X153859447Y-115147555D01*
X153866598Y-115192701D01*
X153920127Y-115357445D01*
X153998768Y-115511788D01*
X154100586Y-115651928D01*
X154223072Y-115774414D01*
X154360391Y-115874182D01*
X154403056Y-115929512D01*
X154409035Y-115999126D01*
X154376429Y-116060921D01*
X154315590Y-116095278D01*
X154287505Y-116098500D01*
X150713640Y-116098500D01*
X150657345Y-116084985D01*
X150474383Y-115991760D01*
X150234785Y-115913910D01*
X149985962Y-115874500D01*
X149734038Y-115874500D01*
X149615359Y-115893297D01*
X149485214Y-115913910D01*
X149245616Y-115991760D01*
X149021151Y-116106132D01*
X148817350Y-116254201D01*
X148817345Y-116254205D01*
X148639205Y-116432345D01*
X148639201Y-116432350D01*
X148491132Y-116636151D01*
X148455137Y-116706795D01*
X148407162Y-116757591D01*
X148344652Y-116774500D01*
X145441519Y-116774500D01*
X145374480Y-116754815D01*
X145353838Y-116738181D01*
X133264695Y-104649038D01*
X150799500Y-104649038D01*
X150799500Y-104900961D01*
X150838910Y-105149785D01*
X150916760Y-105389383D01*
X151031132Y-105613848D01*
X151179201Y-105817649D01*
X151179205Y-105817654D01*
X151357345Y-105995794D01*
X151357350Y-105995798D01*
X151535117Y-106124952D01*
X151561155Y-106143870D01*
X151704184Y-106216747D01*
X151785616Y-106258239D01*
X151785618Y-106258239D01*
X151785621Y-106258241D01*
X152025215Y-106336090D01*
X152274038Y-106375500D01*
X152274039Y-106375500D01*
X152525961Y-106375500D01*
X152525962Y-106375500D01*
X152774785Y-106336090D01*
X153014379Y-106258241D01*
X153238845Y-106143870D01*
X153442656Y-105995793D01*
X153620793Y-105817656D01*
X153625380Y-105811341D01*
X153680708Y-105768675D01*
X153750322Y-105762693D01*
X153812118Y-105795296D01*
X153846477Y-105856134D01*
X153848174Y-105903621D01*
X153839500Y-105958389D01*
X153839500Y-106131611D01*
X153847677Y-106183239D01*
X153858157Y-106249411D01*
X153866598Y-106302701D01*
X153920127Y-106467445D01*
X153998768Y-106621788D01*
X154100586Y-106761928D01*
X154223072Y-106884414D01*
X154363212Y-106986232D01*
X154517555Y-107064873D01*
X154682299Y-107118402D01*
X154853389Y-107145500D01*
X154853390Y-107145500D01*
X155026610Y-107145500D01*
X155026611Y-107145500D01*
X155197701Y-107118402D01*
X155362445Y-107064873D01*
X155516788Y-106986232D01*
X155656928Y-106884414D01*
X155779414Y-106761928D01*
X155881232Y-106621788D01*
X155959873Y-106467445D01*
X156013402Y-106302701D01*
X156040500Y-106131611D01*
X156040500Y-105958389D01*
X156013402Y-105787299D01*
X155959873Y-105622555D01*
X155881232Y-105468212D01*
X155779414Y-105328072D01*
X155656928Y-105205586D01*
X155516788Y-105103768D01*
X155362445Y-105025127D01*
X155197701Y-104971598D01*
X155197699Y-104971597D01*
X155197698Y-104971597D01*
X155066271Y-104950781D01*
X155026611Y-104944500D01*
X154853389Y-104944500D01*
X154813728Y-104950781D01*
X154682302Y-104971597D01*
X154517552Y-105025128D01*
X154363211Y-105103768D01*
X154327993Y-105129356D01*
X154223072Y-105205586D01*
X154223070Y-105205588D01*
X154223068Y-105205589D01*
X154171139Y-105257518D01*
X154109816Y-105291002D01*
X154040124Y-105286017D01*
X153984191Y-105244146D01*
X153959775Y-105178681D01*
X153960986Y-105150438D01*
X153961088Y-105149788D01*
X153961090Y-105149785D01*
X154000500Y-104900962D01*
X154000500Y-104649038D01*
X153961090Y-104400215D01*
X153883241Y-104160621D01*
X153883239Y-104160618D01*
X153883239Y-104160616D01*
X153817630Y-104031852D01*
X153768870Y-103936155D01*
X153749952Y-103910117D01*
X153620798Y-103732350D01*
X153620794Y-103732345D01*
X153442654Y-103554205D01*
X153442649Y-103554201D01*
X153238848Y-103406132D01*
X153238847Y-103406131D01*
X153238845Y-103406130D01*
X153140936Y-103356243D01*
X153014383Y-103291760D01*
X152774785Y-103213910D01*
X152525962Y-103174500D01*
X152274038Y-103174500D01*
X152149626Y-103194205D01*
X152025214Y-103213910D01*
X151785616Y-103291760D01*
X151561151Y-103406132D01*
X151357350Y-103554201D01*
X151357345Y-103554205D01*
X151179205Y-103732345D01*
X151179201Y-103732350D01*
X151031132Y-103936151D01*
X150916760Y-104160616D01*
X150838910Y-104400214D01*
X150799500Y-104649038D01*
X133264695Y-104649038D01*
X129516773Y-100901116D01*
X129433143Y-100817486D01*
X152689500Y-100817486D01*
X152689500Y-101112513D01*
X152714192Y-101300061D01*
X152728007Y-101404993D01*
X152800191Y-101674390D01*
X152804361Y-101689951D01*
X152804364Y-101689961D01*
X152917254Y-101962500D01*
X152917258Y-101962510D01*
X153064761Y-102217993D01*
X153244352Y-102452040D01*
X153244358Y-102452047D01*
X153452952Y-102660641D01*
X153452959Y-102660647D01*
X153687006Y-102840238D01*
X153942489Y-102987741D01*
X153942490Y-102987741D01*
X153942493Y-102987743D01*
X154215048Y-103100639D01*
X154500007Y-103176993D01*
X154792494Y-103215500D01*
X154792501Y-103215500D01*
X155087499Y-103215500D01*
X155087506Y-103215500D01*
X155379993Y-103176993D01*
X155664952Y-103100639D01*
X155937507Y-102987743D01*
X156192994Y-102840238D01*
X156427042Y-102660646D01*
X156635646Y-102452042D01*
X156815238Y-102217994D01*
X156962743Y-101962507D01*
X157075639Y-101689952D01*
X157151993Y-101404993D01*
X157190500Y-101112506D01*
X157190500Y-100817494D01*
X157151993Y-100525007D01*
X157075639Y-100240048D01*
X157069427Y-100225052D01*
X157050060Y-100178296D01*
X156962743Y-99967493D01*
X156956203Y-99956166D01*
X156815238Y-99712006D01*
X156635647Y-99477959D01*
X156635641Y-99477952D01*
X156427047Y-99269358D01*
X156427040Y-99269352D01*
X156192993Y-99089761D01*
X155937510Y-98942258D01*
X155937500Y-98942254D01*
X155664961Y-98829364D01*
X155664954Y-98829362D01*
X155664952Y-98829361D01*
X155379993Y-98753007D01*
X155331113Y-98746571D01*
X155087513Y-98714500D01*
X155087506Y-98714500D01*
X154792494Y-98714500D01*
X154792486Y-98714500D01*
X154514085Y-98751153D01*
X154500007Y-98753007D01*
X154215048Y-98829361D01*
X154215038Y-98829364D01*
X153942499Y-98942254D01*
X153942489Y-98942258D01*
X153687006Y-99089761D01*
X153452959Y-99269352D01*
X153452952Y-99269358D01*
X153244358Y-99477952D01*
X153244352Y-99477959D01*
X153064761Y-99712006D01*
X152917258Y-99967489D01*
X152917254Y-99967499D01*
X152804364Y-100240038D01*
X152804361Y-100240048D01*
X152728008Y-100525004D01*
X152728006Y-100525015D01*
X152689500Y-100817486D01*
X129433143Y-100817486D01*
X107446546Y-78830888D01*
X107446538Y-78830882D01*
X107386334Y-78790655D01*
X107341528Y-78737043D01*
X107332821Y-78667718D01*
X107362975Y-78604691D01*
X107422418Y-78567971D01*
X107435814Y-78565082D01*
X107572701Y-78543402D01*
X107737445Y-78489873D01*
X107891788Y-78411232D01*
X108031928Y-78309414D01*
X108154414Y-78186928D01*
X108256232Y-78046788D01*
X108334873Y-77892445D01*
X108334876Y-77892435D01*
X108336734Y-77887952D01*
X108338356Y-77888624D01*
X108373489Y-77837195D01*
X108437835Y-77809968D01*
X108506687Y-77821851D01*
G37*
%TD.AperFunction*%
%TA.AperFunction,Conductor*%
G36*
X176495577Y-83340185D02*
G01*
X176516219Y-83356819D01*
X178494681Y-85335281D01*
X178528166Y-85396604D01*
X178531000Y-85422962D01*
X178531000Y-91763222D01*
X178511315Y-91830261D01*
X178458511Y-91876016D01*
X178441113Y-91882437D01*
X178358456Y-91906088D01*
X178316414Y-91928049D01*
X178178093Y-92000302D01*
X178178091Y-92000303D01*
X178178090Y-92000304D01*
X178039861Y-92113015D01*
X177975464Y-92140124D01*
X177906635Y-92128115D01*
X177883139Y-92113015D01*
X177744909Y-92000304D01*
X177744910Y-92000304D01*
X177744907Y-92000302D01*
X177564549Y-91906091D01*
X177564548Y-91906090D01*
X177564543Y-91906088D01*
X177481887Y-91882437D01*
X177422850Y-91845070D01*
X177393387Y-91781716D01*
X177392000Y-91763222D01*
X177392000Y-87472452D01*
X177391999Y-87472442D01*
X177391114Y-87467996D01*
X177391111Y-87467981D01*
X177373585Y-87379873D01*
X177365080Y-87337115D01*
X177350217Y-87301232D01*
X177312277Y-87209635D01*
X177235612Y-87094897D01*
X173672896Y-83532181D01*
X173639411Y-83470858D01*
X173644395Y-83401166D01*
X173686267Y-83345233D01*
X173751731Y-83320816D01*
X173760577Y-83320500D01*
X176428538Y-83320500D01*
X176495577Y-83340185D01*
G37*
%TD.AperFunction*%
%TA.AperFunction,Conductor*%
G36*
X182677203Y-81168364D02*
G01*
X182683681Y-81174396D01*
X183415755Y-81906470D01*
X183449240Y-81967793D01*
X183449691Y-81969959D01*
X183476418Y-82104322D01*
X183476421Y-82104332D01*
X183529221Y-82231804D01*
X183529228Y-82231817D01*
X183590102Y-82322920D01*
X183610980Y-82389597D01*
X183611000Y-82391811D01*
X183611000Y-91763222D01*
X183591315Y-91830261D01*
X183538511Y-91876016D01*
X183521113Y-91882437D01*
X183438456Y-91906088D01*
X183396414Y-91928049D01*
X183258093Y-92000302D01*
X183258091Y-92000303D01*
X183258090Y-92000304D01*
X183119861Y-92113015D01*
X183055464Y-92140124D01*
X182986635Y-92128115D01*
X182963139Y-92113015D01*
X182824909Y-92000304D01*
X182824910Y-92000304D01*
X182824907Y-92000302D01*
X182644549Y-91906091D01*
X182644548Y-91906090D01*
X182644543Y-91906088D01*
X182561887Y-91882437D01*
X182502850Y-91845070D01*
X182473387Y-91781716D01*
X182472000Y-91763222D01*
X182472000Y-81262077D01*
X182491685Y-81195038D01*
X182544489Y-81149283D01*
X182613647Y-81139339D01*
X182677203Y-81168364D01*
G37*
%TD.AperFunction*%
%TA.AperFunction,Conductor*%
G36*
X189442539Y-60520185D02*
G01*
X189488294Y-60572989D01*
X189499500Y-60624500D01*
X189499500Y-141875500D01*
X189479815Y-141942539D01*
X189427011Y-141988294D01*
X189375500Y-141999500D01*
X25624500Y-141999500D01*
X25557461Y-141979815D01*
X25511706Y-141927011D01*
X25500500Y-141875500D01*
X25500500Y-133224038D01*
X60312000Y-133224038D01*
X60312000Y-133475961D01*
X60351410Y-133724785D01*
X60429260Y-133964383D01*
X60543632Y-134188848D01*
X60691701Y-134392649D01*
X60691705Y-134392654D01*
X60869845Y-134570794D01*
X60869850Y-134570798D01*
X61047617Y-134699952D01*
X61073655Y-134718870D01*
X61216684Y-134791747D01*
X61298116Y-134833239D01*
X61298118Y-134833239D01*
X61298121Y-134833241D01*
X61537715Y-134911090D01*
X61786538Y-134950500D01*
X61786539Y-134950500D01*
X62038461Y-134950500D01*
X62038462Y-134950500D01*
X62287285Y-134911090D01*
X62526879Y-134833241D01*
X62751345Y-134718870D01*
X62955156Y-134570793D01*
X63133293Y-134392656D01*
X63137880Y-134386341D01*
X63193208Y-134343675D01*
X63262822Y-134337693D01*
X63324618Y-134370296D01*
X63358977Y-134431134D01*
X63360674Y-134478621D01*
X63352000Y-134533389D01*
X63352000Y-134706611D01*
X63379098Y-134877701D01*
X63432627Y-135042445D01*
X63511268Y-135196788D01*
X63613086Y-135336928D01*
X63735572Y-135459414D01*
X63875712Y-135561232D01*
X64030055Y-135639873D01*
X64194799Y-135693402D01*
X64365889Y-135720500D01*
X64365890Y-135720500D01*
X64539110Y-135720500D01*
X64539111Y-135720500D01*
X64710201Y-135693402D01*
X64874945Y-135639873D01*
X65029288Y-135561232D01*
X65169428Y-135459414D01*
X65291914Y-135336928D01*
X65393732Y-135196788D01*
X65472373Y-135042445D01*
X65525902Y-134877701D01*
X65553000Y-134706611D01*
X65553000Y-134533389D01*
X65525902Y-134362299D01*
X65472373Y-134197555D01*
X65393732Y-134043212D01*
X65291914Y-133903072D01*
X65169428Y-133780586D01*
X65029288Y-133678768D01*
X64874945Y-133600127D01*
X64710201Y-133546598D01*
X64710199Y-133546597D01*
X64710198Y-133546597D01*
X64578771Y-133525781D01*
X64539111Y-133519500D01*
X64365889Y-133519500D01*
X64326228Y-133525781D01*
X64194802Y-133546597D01*
X64030052Y-133600128D01*
X63875711Y-133678768D01*
X63812375Y-133724785D01*
X63735572Y-133780586D01*
X63735570Y-133780588D01*
X63735568Y-133780589D01*
X63683639Y-133832518D01*
X63622316Y-133866002D01*
X63552624Y-133861017D01*
X63496691Y-133819146D01*
X63472275Y-133753681D01*
X63473486Y-133725438D01*
X63473588Y-133724788D01*
X63473590Y-133724785D01*
X63513000Y-133475962D01*
X63513000Y-133224038D01*
X63473590Y-132975215D01*
X63395741Y-132735621D01*
X63395739Y-132735618D01*
X63395739Y-132735616D01*
X63354247Y-132654184D01*
X63281370Y-132511155D01*
X63262452Y-132485117D01*
X63133298Y-132307350D01*
X63133294Y-132307345D01*
X62955154Y-132129205D01*
X62955149Y-132129201D01*
X62751348Y-131981132D01*
X62751347Y-131981131D01*
X62751345Y-131981130D01*
X62681247Y-131945413D01*
X62526883Y-131866760D01*
X62287285Y-131788910D01*
X62038462Y-131749500D01*
X61786538Y-131749500D01*
X61662126Y-131769205D01*
X61537714Y-131788910D01*
X61298116Y-131866760D01*
X61073651Y-131981132D01*
X60869850Y-132129201D01*
X60869845Y-132129205D01*
X60691705Y-132307345D01*
X60691701Y-132307350D01*
X60543632Y-132511151D01*
X60429260Y-132735616D01*
X60351410Y-132975214D01*
X60312000Y-133224038D01*
X25500500Y-133224038D01*
X25500500Y-128461538D01*
X36499500Y-128461538D01*
X36499500Y-128713461D01*
X36538910Y-128962285D01*
X36616760Y-129201883D01*
X36731132Y-129426348D01*
X36879201Y-129630149D01*
X36879205Y-129630154D01*
X37057345Y-129808294D01*
X37057350Y-129808298D01*
X37235117Y-129937452D01*
X37261155Y-129956370D01*
X37404184Y-130029247D01*
X37485616Y-130070739D01*
X37485618Y-130070739D01*
X37485621Y-130070741D01*
X37725215Y-130148590D01*
X37974038Y-130188000D01*
X37974039Y-130188000D01*
X38225961Y-130188000D01*
X38225962Y-130188000D01*
X38474785Y-130148590D01*
X38714379Y-130070741D01*
X38938845Y-129956370D01*
X39142656Y-129808293D01*
X39320793Y-129630156D01*
X39325380Y-129623841D01*
X39380708Y-129581175D01*
X39450322Y-129575193D01*
X39512118Y-129607796D01*
X39546477Y-129668634D01*
X39548174Y-129716121D01*
X39539500Y-129770889D01*
X39539500Y-129944111D01*
X39566598Y-130115201D01*
X39620127Y-130279945D01*
X39698768Y-130434288D01*
X39800586Y-130574428D01*
X39923072Y-130696914D01*
X40063212Y-130798732D01*
X40217555Y-130877373D01*
X40382299Y-130930902D01*
X40553389Y-130958000D01*
X40553390Y-130958000D01*
X40726610Y-130958000D01*
X40726611Y-130958000D01*
X40897701Y-130930902D01*
X41062445Y-130877373D01*
X41216788Y-130798732D01*
X41356928Y-130696914D01*
X41479414Y-130574428D01*
X41581232Y-130434288D01*
X41659873Y-130279945D01*
X41713402Y-130115201D01*
X41740500Y-129944111D01*
X41740500Y-129770889D01*
X41713402Y-129599799D01*
X41659873Y-129435055D01*
X41581232Y-129280712D01*
X41479414Y-129140572D01*
X41356928Y-129018086D01*
X41216788Y-128916268D01*
X41062445Y-128837627D01*
X40897701Y-128784098D01*
X40897699Y-128784097D01*
X40897698Y-128784097D01*
X40766271Y-128763281D01*
X40726611Y-128757000D01*
X40553389Y-128757000D01*
X40513728Y-128763281D01*
X40382302Y-128784097D01*
X40217552Y-128837628D01*
X40063211Y-128916268D01*
X39999875Y-128962285D01*
X39923072Y-129018086D01*
X39923070Y-129018088D01*
X39923068Y-129018089D01*
X39871139Y-129070018D01*
X39809816Y-129103502D01*
X39740124Y-129098517D01*
X39684191Y-129056646D01*
X39659775Y-128991181D01*
X39660986Y-128962938D01*
X39661088Y-128962288D01*
X39661090Y-128962285D01*
X39700500Y-128713462D01*
X39700500Y-128461538D01*
X39661090Y-128212715D01*
X39583241Y-127973121D01*
X39583239Y-127973118D01*
X39583239Y-127973116D01*
X39516506Y-127842147D01*
X39468870Y-127748655D01*
X39434113Y-127700816D01*
X39320798Y-127544850D01*
X39320794Y-127544845D01*
X39142654Y-127366705D01*
X39142649Y-127366701D01*
X38938848Y-127218632D01*
X38938847Y-127218631D01*
X38938845Y-127218630D01*
X38868747Y-127182913D01*
X38714383Y-127104260D01*
X38474785Y-127026410D01*
X38225962Y-126987000D01*
X37974038Y-126987000D01*
X37849626Y-127006705D01*
X37725214Y-127026410D01*
X37485616Y-127104260D01*
X37261151Y-127218632D01*
X37057350Y-127366701D01*
X37057345Y-127366705D01*
X36879205Y-127544845D01*
X36879201Y-127544850D01*
X36731132Y-127748651D01*
X36616760Y-127973116D01*
X36538910Y-128212714D01*
X36499500Y-128461538D01*
X25500500Y-128461538D01*
X25500500Y-122111538D01*
X33959500Y-122111538D01*
X33959500Y-122363462D01*
X33974048Y-122455314D01*
X33998910Y-122612285D01*
X34076760Y-122851883D01*
X34133242Y-122962733D01*
X34186901Y-123068046D01*
X34191132Y-123076348D01*
X34339201Y-123280149D01*
X34339205Y-123280154D01*
X34517345Y-123458294D01*
X34517350Y-123458298D01*
X34678955Y-123575710D01*
X34721155Y-123606370D01*
X34864184Y-123679247D01*
X34945616Y-123720739D01*
X34945618Y-123720739D01*
X34945621Y-123720741D01*
X35185215Y-123798590D01*
X35434038Y-123838000D01*
X35434039Y-123838000D01*
X35685961Y-123838000D01*
X35685962Y-123838000D01*
X35934785Y-123798590D01*
X36174379Y-123720741D01*
X36398845Y-123606370D01*
X36602656Y-123458293D01*
X36780793Y-123280156D01*
X36928870Y-123076345D01*
X36959202Y-123016813D01*
X36964863Y-123005705D01*
X37012838Y-122954909D01*
X37075348Y-122938000D01*
X38997449Y-122938000D01*
X39064488Y-122957685D01*
X39110243Y-123010489D01*
X39120187Y-123079647D01*
X39091162Y-123143203D01*
X39085130Y-123149681D01*
X38944358Y-123290452D01*
X38944352Y-123290459D01*
X38764761Y-123524506D01*
X38617258Y-123779989D01*
X38617254Y-123779999D01*
X38504364Y-124052538D01*
X38504361Y-124052548D01*
X38436043Y-124307518D01*
X38428008Y-124337504D01*
X38428006Y-124337515D01*
X38389500Y-124629986D01*
X38389500Y-124925013D01*
X38417432Y-125137168D01*
X38428007Y-125217493D01*
X38498311Y-125479873D01*
X38504361Y-125502451D01*
X38504364Y-125502461D01*
X38617254Y-125775000D01*
X38617258Y-125775010D01*
X38764761Y-126030493D01*
X38944352Y-126264540D01*
X38944358Y-126264547D01*
X39152952Y-126473141D01*
X39152959Y-126473147D01*
X39387006Y-126652738D01*
X39642489Y-126800241D01*
X39642490Y-126800241D01*
X39642493Y-126800243D01*
X39915048Y-126913139D01*
X40200007Y-126989493D01*
X40492494Y-127028000D01*
X40492501Y-127028000D01*
X40787499Y-127028000D01*
X40787506Y-127028000D01*
X41079993Y-126989493D01*
X41364952Y-126913139D01*
X41637507Y-126800243D01*
X41892994Y-126652738D01*
X42127042Y-126473146D01*
X42335646Y-126264542D01*
X42515238Y-126030494D01*
X42662743Y-125775007D01*
X42775639Y-125502452D01*
X42851993Y-125217493D01*
X42890500Y-124925006D01*
X42890500Y-124629994D01*
X42856717Y-124373389D01*
X63352000Y-124373389D01*
X63352000Y-124546610D01*
X63371947Y-124672555D01*
X63379098Y-124717701D01*
X63432627Y-124882445D01*
X63511268Y-125036788D01*
X63613086Y-125176928D01*
X63735572Y-125299414D01*
X63875712Y-125401232D01*
X64030055Y-125479873D01*
X64194799Y-125533402D01*
X64365889Y-125560500D01*
X64365890Y-125560500D01*
X64539110Y-125560500D01*
X64539111Y-125560500D01*
X64710201Y-125533402D01*
X64874945Y-125479873D01*
X65029288Y-125401232D01*
X65169428Y-125299414D01*
X65291914Y-125176928D01*
X65393732Y-125036788D01*
X65472373Y-124882445D01*
X65525902Y-124717701D01*
X65553000Y-124546611D01*
X65553000Y-124373389D01*
X65525902Y-124202299D01*
X65472373Y-124037555D01*
X65393732Y-123883212D01*
X65291914Y-123743072D01*
X65169428Y-123620586D01*
X65029288Y-123518768D01*
X64874945Y-123440127D01*
X64710201Y-123386598D01*
X64710199Y-123386597D01*
X64710198Y-123386597D01*
X64578771Y-123365781D01*
X64539111Y-123359500D01*
X64365889Y-123359500D01*
X64326228Y-123365781D01*
X64194802Y-123386597D01*
X64030052Y-123440128D01*
X63875711Y-123518768D01*
X63858021Y-123531621D01*
X63735572Y-123620586D01*
X63735570Y-123620588D01*
X63735569Y-123620588D01*
X63613088Y-123743069D01*
X63613088Y-123743070D01*
X63613086Y-123743072D01*
X63586264Y-123779989D01*
X63511268Y-123883211D01*
X63432628Y-124037552D01*
X63379097Y-124202302D01*
X63352000Y-124373389D01*
X42856717Y-124373389D01*
X42851993Y-124337507D01*
X42775639Y-124052548D01*
X42769427Y-124037552D01*
X42733560Y-123950960D01*
X42662743Y-123779993D01*
X42515238Y-123524506D01*
X42458231Y-123450213D01*
X42335647Y-123290459D01*
X42335641Y-123290452D01*
X42194870Y-123149681D01*
X42161385Y-123088358D01*
X42166369Y-123018666D01*
X42208241Y-122962733D01*
X42273705Y-122938316D01*
X42282551Y-122938000D01*
X64203996Y-122938000D01*
X64295040Y-122919889D01*
X64339328Y-122911080D01*
X64403069Y-122884677D01*
X64466807Y-122858277D01*
X64466808Y-122858276D01*
X64466811Y-122858275D01*
X64581543Y-122781614D01*
X77951617Y-109411538D01*
X84124500Y-109411538D01*
X84124500Y-109663461D01*
X84163910Y-109912285D01*
X84241760Y-110151883D01*
X84356132Y-110376348D01*
X84504201Y-110580149D01*
X84504205Y-110580154D01*
X84682345Y-110758294D01*
X84682350Y-110758298D01*
X84860117Y-110887452D01*
X84886155Y-110906370D01*
X85029184Y-110979247D01*
X85110616Y-111020739D01*
X85110618Y-111020739D01*
X85110621Y-111020741D01*
X85350215Y-111098590D01*
X85599038Y-111138000D01*
X85599039Y-111138000D01*
X85850961Y-111138000D01*
X85850962Y-111138000D01*
X86099785Y-111098590D01*
X86339379Y-111020741D01*
X86563845Y-110906370D01*
X86767656Y-110758293D01*
X86945793Y-110580156D01*
X86950380Y-110573841D01*
X87005708Y-110531175D01*
X87075322Y-110525193D01*
X87137118Y-110557796D01*
X87171477Y-110618634D01*
X87173174Y-110666121D01*
X87164500Y-110720889D01*
X87164500Y-110894111D01*
X87170566Y-110932413D01*
X87183157Y-111011911D01*
X87191598Y-111065201D01*
X87245127Y-111229945D01*
X87323768Y-111384288D01*
X87425586Y-111524428D01*
X87548072Y-111646914D01*
X87688212Y-111748732D01*
X87842555Y-111827373D01*
X88007299Y-111880902D01*
X88178389Y-111908000D01*
X88178390Y-111908000D01*
X88351610Y-111908000D01*
X88351611Y-111908000D01*
X88522701Y-111880902D01*
X88687445Y-111827373D01*
X88841788Y-111748732D01*
X88981928Y-111646914D01*
X89104414Y-111524428D01*
X89206232Y-111384288D01*
X89284873Y-111229945D01*
X89338402Y-111065201D01*
X89365500Y-110894111D01*
X89365500Y-110720889D01*
X89338402Y-110549799D01*
X89284873Y-110385055D01*
X89206232Y-110230712D01*
X89104414Y-110090572D01*
X88981928Y-109968086D01*
X88841788Y-109866268D01*
X88687445Y-109787627D01*
X88522701Y-109734098D01*
X88522699Y-109734097D01*
X88522698Y-109734097D01*
X88391271Y-109713281D01*
X88351611Y-109707000D01*
X88178389Y-109707000D01*
X88138728Y-109713281D01*
X88007302Y-109734097D01*
X87842552Y-109787628D01*
X87688211Y-109866268D01*
X87624875Y-109912285D01*
X87548072Y-109968086D01*
X87548070Y-109968088D01*
X87548068Y-109968089D01*
X87496139Y-110020018D01*
X87434816Y-110053502D01*
X87365124Y-110048517D01*
X87309191Y-110006646D01*
X87284775Y-109941181D01*
X87285986Y-109912938D01*
X87286088Y-109912288D01*
X87286090Y-109912285D01*
X87325500Y-109663462D01*
X87325500Y-109411538D01*
X87286090Y-109162715D01*
X87208241Y-108923121D01*
X87208239Y-108923118D01*
X87208239Y-108923116D01*
X87166747Y-108841684D01*
X87093870Y-108698655D01*
X87045407Y-108631951D01*
X86945798Y-108494850D01*
X86945794Y-108494845D01*
X86767654Y-108316705D01*
X86767649Y-108316701D01*
X86563848Y-108168632D01*
X86563847Y-108168631D01*
X86563845Y-108168630D01*
X86493747Y-108132913D01*
X86339383Y-108054260D01*
X86099785Y-107976410D01*
X85850962Y-107937000D01*
X85599038Y-107937000D01*
X85474626Y-107956705D01*
X85350214Y-107976410D01*
X85110616Y-108054260D01*
X84886151Y-108168632D01*
X84682350Y-108316701D01*
X84682345Y-108316705D01*
X84504205Y-108494845D01*
X84504201Y-108494850D01*
X84356132Y-108698651D01*
X84241760Y-108923116D01*
X84163910Y-109162714D01*
X84124500Y-109411538D01*
X77951617Y-109411538D01*
X81783168Y-105579986D01*
X86014500Y-105579986D01*
X86014500Y-105875013D01*
X86046571Y-106118613D01*
X86053007Y-106167493D01*
X86123311Y-106429873D01*
X86129361Y-106452451D01*
X86129364Y-106452461D01*
X86242254Y-106725000D01*
X86242258Y-106725010D01*
X86389761Y-106980493D01*
X86569352Y-107214540D01*
X86569358Y-107214547D01*
X86777952Y-107423141D01*
X86777959Y-107423147D01*
X87012006Y-107602738D01*
X87267489Y-107750241D01*
X87267490Y-107750241D01*
X87267493Y-107750243D01*
X87540048Y-107863139D01*
X87825007Y-107939493D01*
X88117494Y-107978000D01*
X88117501Y-107978000D01*
X88412499Y-107978000D01*
X88412506Y-107978000D01*
X88704993Y-107939493D01*
X88989952Y-107863139D01*
X89262507Y-107750243D01*
X89517994Y-107602738D01*
X89752042Y-107423146D01*
X89960646Y-107214542D01*
X90140238Y-106980494D01*
X90287743Y-106725007D01*
X90400639Y-106452452D01*
X90476993Y-106167493D01*
X90515500Y-105875006D01*
X90515500Y-105579994D01*
X90476993Y-105287507D01*
X90400639Y-105002548D01*
X90394427Y-104987552D01*
X90358560Y-104900960D01*
X90287743Y-104729993D01*
X90281203Y-104718666D01*
X90140238Y-104474506D01*
X89960647Y-104240459D01*
X89960641Y-104240452D01*
X89752047Y-104031858D01*
X89752040Y-104031852D01*
X89517993Y-103852261D01*
X89262510Y-103704758D01*
X89262500Y-103704754D01*
X88989961Y-103591864D01*
X88989954Y-103591862D01*
X88989952Y-103591861D01*
X88704993Y-103515507D01*
X88656113Y-103509071D01*
X88412513Y-103477000D01*
X88412506Y-103477000D01*
X88117494Y-103477000D01*
X88117486Y-103477000D01*
X87839085Y-103513653D01*
X87825007Y-103515507D01*
X87664875Y-103558414D01*
X87540048Y-103591861D01*
X87540038Y-103591864D01*
X87267499Y-103704754D01*
X87267489Y-103704758D01*
X87012006Y-103852261D01*
X86777959Y-104031852D01*
X86777952Y-104031858D01*
X86569358Y-104240452D01*
X86569352Y-104240459D01*
X86389761Y-104474506D01*
X86242258Y-104729989D01*
X86242254Y-104729999D01*
X86129364Y-105002538D01*
X86129361Y-105002548D01*
X86061043Y-105257518D01*
X86053008Y-105287504D01*
X86053006Y-105287515D01*
X86014500Y-105579986D01*
X81783168Y-105579986D01*
X82608816Y-104754338D01*
X82670137Y-104720855D01*
X82734812Y-104724089D01*
X82810215Y-104748590D01*
X83059038Y-104788000D01*
X83059039Y-104788000D01*
X83310961Y-104788000D01*
X83310962Y-104788000D01*
X83559785Y-104748590D01*
X83799379Y-104670741D01*
X84023845Y-104556370D01*
X84227656Y-104408293D01*
X84405793Y-104230156D01*
X84553870Y-104026345D01*
X84668241Y-103801879D01*
X84746090Y-103562285D01*
X84785500Y-103313462D01*
X84785500Y-103061538D01*
X84746090Y-102812715D01*
X84721589Y-102737312D01*
X84719595Y-102667473D01*
X84751838Y-102611317D01*
X86962816Y-100400339D01*
X87024137Y-100366856D01*
X87093829Y-100371840D01*
X87149762Y-100413712D01*
X87174179Y-100479176D01*
X87172969Y-100507417D01*
X87164500Y-100560889D01*
X87164500Y-100560893D01*
X87164500Y-100734110D01*
X87177707Y-100817500D01*
X87191598Y-100905201D01*
X87245127Y-101069945D01*
X87323768Y-101224288D01*
X87425586Y-101364428D01*
X87548072Y-101486914D01*
X87688212Y-101588732D01*
X87842555Y-101667373D01*
X88007299Y-101720902D01*
X88178389Y-101748000D01*
X88178390Y-101748000D01*
X88351610Y-101748000D01*
X88351611Y-101748000D01*
X88522701Y-101720902D01*
X88687445Y-101667373D01*
X88841788Y-101588732D01*
X88981928Y-101486914D01*
X89104414Y-101364428D01*
X89206232Y-101224288D01*
X89284873Y-101069945D01*
X89338402Y-100905201D01*
X89365500Y-100734111D01*
X89365500Y-100560889D01*
X89338402Y-100389799D01*
X89284873Y-100225055D01*
X89206232Y-100070712D01*
X89104414Y-99930572D01*
X88981928Y-99808086D01*
X88841788Y-99706268D01*
X88687445Y-99627627D01*
X88522701Y-99574098D01*
X88522699Y-99574097D01*
X88522698Y-99574097D01*
X88391271Y-99553281D01*
X88351611Y-99547000D01*
X88178389Y-99547000D01*
X88124918Y-99555469D01*
X88055625Y-99546513D01*
X88002174Y-99501516D01*
X87981535Y-99434764D01*
X88000261Y-99367451D01*
X88017836Y-99345319D01*
X99227338Y-88135819D01*
X99288661Y-88102334D01*
X99315019Y-88099500D01*
X100644242Y-88099500D01*
X100711281Y-88119185D01*
X100757036Y-88171989D01*
X100766980Y-88241147D01*
X100754728Y-88279792D01*
X100751762Y-88285613D01*
X100751760Y-88285618D01*
X100751759Y-88285621D01*
X100726515Y-88363315D01*
X100673910Y-88525214D01*
X100634500Y-88774038D01*
X100634500Y-89025961D01*
X100673910Y-89274785D01*
X100751760Y-89514383D01*
X100866132Y-89738848D01*
X101014201Y-89942649D01*
X101014205Y-89942654D01*
X101192345Y-90120794D01*
X101192350Y-90120798D01*
X101396153Y-90268869D01*
X101466794Y-90304862D01*
X101517590Y-90352836D01*
X101534500Y-90415347D01*
X101534500Y-111197151D01*
X101514815Y-111264190D01*
X101466796Y-111307635D01*
X101396153Y-111343630D01*
X101192350Y-111491701D01*
X101192345Y-111491705D01*
X101014205Y-111669845D01*
X101014201Y-111669850D01*
X100866132Y-111873651D01*
X100751760Y-112098116D01*
X100673910Y-112337714D01*
X100634500Y-112586538D01*
X100634500Y-112838461D01*
X100673910Y-113087286D01*
X100673910Y-113087289D01*
X100698408Y-113162684D01*
X100700403Y-113232525D01*
X100668158Y-113288683D01*
X87693662Y-126263181D01*
X87632339Y-126296666D01*
X87605981Y-126299500D01*
X60887848Y-126299500D01*
X60820809Y-126279815D01*
X60777363Y-126231795D01*
X60769369Y-126216108D01*
X60741370Y-126161155D01*
X60707743Y-126114871D01*
X60593298Y-125957350D01*
X60593294Y-125957345D01*
X60415154Y-125779205D01*
X60415149Y-125779201D01*
X60211348Y-125631132D01*
X60211347Y-125631131D01*
X60211345Y-125631130D01*
X60104703Y-125576793D01*
X59986883Y-125516760D01*
X59747285Y-125438910D01*
X59662618Y-125425500D01*
X59498462Y-125399500D01*
X59246538Y-125399500D01*
X59122126Y-125419205D01*
X58997714Y-125438910D01*
X58758116Y-125516760D01*
X58533651Y-125631132D01*
X58329850Y-125779201D01*
X58329845Y-125779205D01*
X58151705Y-125957345D01*
X58151701Y-125957350D01*
X58003632Y-126161151D01*
X57889260Y-126385616D01*
X57811410Y-126625214D01*
X57772000Y-126874038D01*
X57772000Y-127125961D01*
X57811410Y-127374785D01*
X57889260Y-127614383D01*
X58003632Y-127838848D01*
X58151701Y-128042649D01*
X58151705Y-128042654D01*
X58329845Y-128220794D01*
X58329850Y-128220798D01*
X58507617Y-128349952D01*
X58533655Y-128368870D01*
X58676684Y-128441747D01*
X58758116Y-128483239D01*
X58758118Y-128483239D01*
X58758121Y-128483241D01*
X58997715Y-128561090D01*
X59246538Y-128600500D01*
X59246539Y-128600500D01*
X59498461Y-128600500D01*
X59498462Y-128600500D01*
X59747285Y-128561090D01*
X59986879Y-128483241D01*
X60211345Y-128368870D01*
X60415156Y-128220793D01*
X60593293Y-128042656D01*
X60741370Y-127838845D01*
X60777363Y-127768205D01*
X60825338Y-127717409D01*
X60887848Y-127700500D01*
X62809949Y-127700500D01*
X62876988Y-127720185D01*
X62922743Y-127772989D01*
X62932687Y-127842147D01*
X62903662Y-127905703D01*
X62897630Y-127912181D01*
X62756858Y-128052952D01*
X62756852Y-128052959D01*
X62577261Y-128287006D01*
X62429758Y-128542489D01*
X62429754Y-128542499D01*
X62316864Y-128815038D01*
X62316861Y-128815048D01*
X62248543Y-129070018D01*
X62240508Y-129100004D01*
X62240506Y-129100015D01*
X62202000Y-129392486D01*
X62202000Y-129687513D01*
X62234071Y-129931113D01*
X62240507Y-129979993D01*
X62264823Y-130070741D01*
X62316861Y-130264951D01*
X62316864Y-130264961D01*
X62429754Y-130537500D01*
X62429758Y-130537510D01*
X62577261Y-130792993D01*
X62756852Y-131027040D01*
X62756858Y-131027047D01*
X62965452Y-131235641D01*
X62965459Y-131235647D01*
X63199506Y-131415238D01*
X63454989Y-131562741D01*
X63454990Y-131562741D01*
X63454993Y-131562743D01*
X63727548Y-131675639D01*
X64012507Y-131751993D01*
X64304994Y-131790500D01*
X64305001Y-131790500D01*
X64599999Y-131790500D01*
X64600006Y-131790500D01*
X64892493Y-131751993D01*
X65177452Y-131675639D01*
X65450007Y-131562743D01*
X65705494Y-131415238D01*
X65939542Y-131235646D01*
X66148146Y-131027042D01*
X66327738Y-130792994D01*
X66475243Y-130537507D01*
X66588139Y-130264952D01*
X66664493Y-129979993D01*
X66703000Y-129687506D01*
X66703000Y-129392494D01*
X66664493Y-129100007D01*
X66588139Y-128815048D01*
X66475243Y-128542493D01*
X66327738Y-128287006D01*
X66148146Y-128052958D01*
X66148141Y-128052952D01*
X66007370Y-127912181D01*
X65973885Y-127850858D01*
X65978869Y-127781166D01*
X66020741Y-127725233D01*
X66086205Y-127700816D01*
X66095051Y-127700500D01*
X88016496Y-127700500D01*
X88107540Y-127682389D01*
X88151828Y-127673580D01*
X88215569Y-127647177D01*
X88279307Y-127620777D01*
X88279308Y-127620776D01*
X88279311Y-127620775D01*
X88394043Y-127544114D01*
X97001618Y-118936538D01*
X103174500Y-118936538D01*
X103174500Y-119188461D01*
X103213910Y-119437285D01*
X103291760Y-119676883D01*
X103331926Y-119755712D01*
X103383285Y-119856510D01*
X103406132Y-119901348D01*
X103554201Y-120105149D01*
X103554205Y-120105154D01*
X103732345Y-120283294D01*
X103732350Y-120283298D01*
X103910117Y-120412452D01*
X103936155Y-120431370D01*
X104079184Y-120504247D01*
X104160616Y-120545739D01*
X104160618Y-120545739D01*
X104160621Y-120545741D01*
X104400215Y-120623590D01*
X104649038Y-120663000D01*
X104649039Y-120663000D01*
X104900961Y-120663000D01*
X104900962Y-120663000D01*
X105149785Y-120623590D01*
X105389379Y-120545741D01*
X105613845Y-120431370D01*
X105817656Y-120283293D01*
X105995793Y-120105156D01*
X106000380Y-120098841D01*
X106055708Y-120056175D01*
X106125322Y-120050193D01*
X106187118Y-120082796D01*
X106221477Y-120143634D01*
X106223174Y-120191121D01*
X106214500Y-120245889D01*
X106214500Y-120419111D01*
X106222429Y-120469172D01*
X106233157Y-120536911D01*
X106241598Y-120590201D01*
X106295127Y-120754945D01*
X106373768Y-120909288D01*
X106475586Y-121049428D01*
X106598072Y-121171914D01*
X106738212Y-121273732D01*
X106892555Y-121352373D01*
X107057299Y-121405902D01*
X107228389Y-121433000D01*
X107228390Y-121433000D01*
X107401610Y-121433000D01*
X107401611Y-121433000D01*
X107572701Y-121405902D01*
X107737445Y-121352373D01*
X107891788Y-121273732D01*
X108031928Y-121171914D01*
X108154414Y-121049428D01*
X108256232Y-120909288D01*
X108334873Y-120754945D01*
X108388402Y-120590201D01*
X108415500Y-120419111D01*
X108415500Y-120245889D01*
X108388402Y-120074799D01*
X108334873Y-119910055D01*
X108256232Y-119755712D01*
X108154414Y-119615572D01*
X108031928Y-119493086D01*
X107891788Y-119391268D01*
X107737445Y-119312627D01*
X107572701Y-119259098D01*
X107572699Y-119259097D01*
X107572698Y-119259097D01*
X107441271Y-119238281D01*
X107401611Y-119232000D01*
X107228389Y-119232000D01*
X107188728Y-119238281D01*
X107057302Y-119259097D01*
X106892552Y-119312628D01*
X106738211Y-119391268D01*
X106674875Y-119437285D01*
X106598072Y-119493086D01*
X106598070Y-119493088D01*
X106598068Y-119493089D01*
X106546139Y-119545018D01*
X106484816Y-119578502D01*
X106415124Y-119573517D01*
X106359191Y-119531646D01*
X106334775Y-119466181D01*
X106335986Y-119437938D01*
X106336088Y-119437288D01*
X106336090Y-119437285D01*
X106375500Y-119188462D01*
X106375500Y-118936538D01*
X106336090Y-118687715D01*
X106258241Y-118448121D01*
X106258239Y-118448118D01*
X106258239Y-118448116D01*
X106192630Y-118319352D01*
X106143870Y-118223655D01*
X106123185Y-118195185D01*
X105995798Y-118019850D01*
X105995794Y-118019845D01*
X105817654Y-117841705D01*
X105817649Y-117841701D01*
X105613848Y-117693632D01*
X105613847Y-117693631D01*
X105613845Y-117693630D01*
X105543747Y-117657913D01*
X105389383Y-117579260D01*
X105149785Y-117501410D01*
X105137726Y-117499500D01*
X104900962Y-117462000D01*
X104649038Y-117462000D01*
X104582239Y-117472580D01*
X104400214Y-117501410D01*
X104160616Y-117579260D01*
X103936151Y-117693632D01*
X103732350Y-117841701D01*
X103732345Y-117841705D01*
X103554205Y-118019845D01*
X103554201Y-118019850D01*
X103406132Y-118223651D01*
X103291760Y-118448116D01*
X103213910Y-118687714D01*
X103174500Y-118936538D01*
X97001618Y-118936538D01*
X100833169Y-115104986D01*
X105064500Y-115104986D01*
X105064500Y-115400013D01*
X105096571Y-115643613D01*
X105103007Y-115692493D01*
X105162335Y-115913910D01*
X105179361Y-115977451D01*
X105179364Y-115977461D01*
X105292254Y-116250000D01*
X105292258Y-116250010D01*
X105439761Y-116505493D01*
X105619352Y-116739540D01*
X105619358Y-116739547D01*
X105827952Y-116948141D01*
X105827959Y-116948147D01*
X106062006Y-117127738D01*
X106317489Y-117275241D01*
X106317490Y-117275241D01*
X106317493Y-117275243D01*
X106590048Y-117388139D01*
X106875007Y-117464493D01*
X107167494Y-117503000D01*
X107167501Y-117503000D01*
X107462499Y-117503000D01*
X107462506Y-117503000D01*
X107754993Y-117464493D01*
X108039952Y-117388139D01*
X108312507Y-117275243D01*
X108567994Y-117127738D01*
X108802042Y-116948146D01*
X109010646Y-116739542D01*
X109190238Y-116505494D01*
X109337743Y-116250007D01*
X109450639Y-115977452D01*
X109526993Y-115692493D01*
X109565500Y-115400006D01*
X109565500Y-115104994D01*
X109526993Y-114812507D01*
X109450639Y-114527548D01*
X109444427Y-114512552D01*
X109384694Y-114368343D01*
X109337743Y-114254993D01*
X109190238Y-113999506D01*
X109125492Y-113915128D01*
X109010647Y-113765459D01*
X109010641Y-113765452D01*
X108802047Y-113556858D01*
X108802040Y-113556852D01*
X108567993Y-113377261D01*
X108312510Y-113229758D01*
X108312500Y-113229754D01*
X108039961Y-113116864D01*
X108039954Y-113116862D01*
X108039952Y-113116861D01*
X107754993Y-113040507D01*
X107706113Y-113034071D01*
X107462513Y-113002000D01*
X107462506Y-113002000D01*
X107167494Y-113002000D01*
X107167486Y-113002000D01*
X106889085Y-113038653D01*
X106875007Y-113040507D01*
X106730598Y-113079201D01*
X106590048Y-113116861D01*
X106590038Y-113116864D01*
X106317499Y-113229754D01*
X106317489Y-113229758D01*
X106062006Y-113377261D01*
X105827959Y-113556852D01*
X105827952Y-113556858D01*
X105619358Y-113765452D01*
X105619352Y-113765459D01*
X105439761Y-113999506D01*
X105292258Y-114254989D01*
X105292254Y-114254999D01*
X105179364Y-114527538D01*
X105179361Y-114527548D01*
X105111043Y-114782518D01*
X105103008Y-114812504D01*
X105103006Y-114812515D01*
X105064500Y-115104986D01*
X100833169Y-115104986D01*
X101658817Y-114279338D01*
X101720138Y-114245855D01*
X101784812Y-114249089D01*
X101860215Y-114273590D01*
X102109038Y-114313000D01*
X102109039Y-114313000D01*
X102360961Y-114313000D01*
X102360962Y-114313000D01*
X102609785Y-114273590D01*
X102849379Y-114195741D01*
X103073845Y-114081370D01*
X103277656Y-113933293D01*
X103455793Y-113755156D01*
X103603870Y-113551345D01*
X103718241Y-113326879D01*
X103796090Y-113087285D01*
X103835500Y-112838462D01*
X103835500Y-112586538D01*
X103796090Y-112337715D01*
X103718241Y-112098121D01*
X103718239Y-112098118D01*
X103718239Y-112098116D01*
X103656547Y-111977040D01*
X103603870Y-111873655D01*
X103560007Y-111813282D01*
X103455798Y-111669850D01*
X103455794Y-111669845D01*
X103277654Y-111491705D01*
X103277649Y-111491701D01*
X103073846Y-111343630D01*
X103003204Y-111307635D01*
X102952408Y-111259660D01*
X102935500Y-111197151D01*
X102935500Y-110085889D01*
X106214500Y-110085889D01*
X106214500Y-110259110D01*
X106234447Y-110385055D01*
X106241598Y-110430201D01*
X106295127Y-110594945D01*
X106373768Y-110749288D01*
X106475586Y-110889428D01*
X106598072Y-111011914D01*
X106738212Y-111113732D01*
X106892555Y-111192373D01*
X107057299Y-111245902D01*
X107228389Y-111273000D01*
X107228390Y-111273000D01*
X107401610Y-111273000D01*
X107401611Y-111273000D01*
X107572701Y-111245902D01*
X107737445Y-111192373D01*
X107891788Y-111113732D01*
X108031928Y-111011914D01*
X108154414Y-110889428D01*
X108256232Y-110749288D01*
X108334873Y-110594945D01*
X108388402Y-110430201D01*
X108415500Y-110259111D01*
X108415500Y-110085889D01*
X108388402Y-109914799D01*
X108334873Y-109750055D01*
X108256232Y-109595712D01*
X108154414Y-109455572D01*
X108110380Y-109411538D01*
X122224500Y-109411538D01*
X122224500Y-109663461D01*
X122263910Y-109912285D01*
X122341760Y-110151883D01*
X122456132Y-110376348D01*
X122604201Y-110580149D01*
X122604205Y-110580154D01*
X122782345Y-110758294D01*
X122782350Y-110758298D01*
X122960117Y-110887452D01*
X122986155Y-110906370D01*
X123129184Y-110979247D01*
X123210616Y-111020739D01*
X123210618Y-111020739D01*
X123210621Y-111020741D01*
X123450215Y-111098590D01*
X123699038Y-111138000D01*
X123699039Y-111138000D01*
X123950961Y-111138000D01*
X123950962Y-111138000D01*
X124199785Y-111098590D01*
X124439379Y-111020741D01*
X124663845Y-110906370D01*
X124867656Y-110758293D01*
X125045793Y-110580156D01*
X125050380Y-110573841D01*
X125105708Y-110531175D01*
X125175322Y-110525193D01*
X125237118Y-110557796D01*
X125271477Y-110618634D01*
X125273174Y-110666121D01*
X125264500Y-110720889D01*
X125264500Y-110894111D01*
X125270566Y-110932413D01*
X125283157Y-111011911D01*
X125291598Y-111065201D01*
X125345127Y-111229945D01*
X125423768Y-111384288D01*
X125525586Y-111524428D01*
X125648072Y-111646914D01*
X125788212Y-111748732D01*
X125942555Y-111827373D01*
X126107299Y-111880902D01*
X126278389Y-111908000D01*
X126278390Y-111908000D01*
X126451610Y-111908000D01*
X126451611Y-111908000D01*
X126622701Y-111880902D01*
X126787445Y-111827373D01*
X126941788Y-111748732D01*
X127081928Y-111646914D01*
X127204414Y-111524428D01*
X127306232Y-111384288D01*
X127384873Y-111229945D01*
X127438402Y-111065201D01*
X127465500Y-110894111D01*
X127465500Y-110720889D01*
X127438402Y-110549799D01*
X127384873Y-110385055D01*
X127306232Y-110230712D01*
X127204414Y-110090572D01*
X127081928Y-109968086D01*
X126941788Y-109866268D01*
X126787445Y-109787627D01*
X126622701Y-109734098D01*
X126622699Y-109734097D01*
X126622698Y-109734097D01*
X126491271Y-109713281D01*
X126451611Y-109707000D01*
X126278389Y-109707000D01*
X126238728Y-109713281D01*
X126107302Y-109734097D01*
X125942552Y-109787628D01*
X125788211Y-109866268D01*
X125724875Y-109912285D01*
X125648072Y-109968086D01*
X125648070Y-109968088D01*
X125648068Y-109968089D01*
X125596139Y-110020018D01*
X125534816Y-110053502D01*
X125465124Y-110048517D01*
X125409191Y-110006646D01*
X125384775Y-109941181D01*
X125385986Y-109912938D01*
X125386088Y-109912288D01*
X125386090Y-109912285D01*
X125425500Y-109663462D01*
X125425500Y-109411538D01*
X125386090Y-109162715D01*
X125308241Y-108923121D01*
X125308239Y-108923118D01*
X125308239Y-108923116D01*
X125266747Y-108841684D01*
X125193870Y-108698655D01*
X125145407Y-108631951D01*
X125045798Y-108494850D01*
X125045794Y-108494845D01*
X124867654Y-108316705D01*
X124867649Y-108316701D01*
X124663848Y-108168632D01*
X124663847Y-108168631D01*
X124663845Y-108168630D01*
X124593747Y-108132913D01*
X124439383Y-108054260D01*
X124199785Y-107976410D01*
X123950962Y-107937000D01*
X123699038Y-107937000D01*
X123574626Y-107956705D01*
X123450214Y-107976410D01*
X123210616Y-108054260D01*
X122986151Y-108168632D01*
X122782350Y-108316701D01*
X122782345Y-108316705D01*
X122604205Y-108494845D01*
X122604201Y-108494850D01*
X122456132Y-108698651D01*
X122341760Y-108923116D01*
X122263910Y-109162714D01*
X122224500Y-109411538D01*
X108110380Y-109411538D01*
X108031928Y-109333086D01*
X107891788Y-109231268D01*
X107737445Y-109152627D01*
X107572701Y-109099098D01*
X107572699Y-109099097D01*
X107572698Y-109099097D01*
X107441271Y-109078281D01*
X107401611Y-109072000D01*
X107228389Y-109072000D01*
X107188728Y-109078281D01*
X107057302Y-109099097D01*
X106892552Y-109152628D01*
X106738211Y-109231268D01*
X106658256Y-109289359D01*
X106598072Y-109333086D01*
X106598070Y-109333088D01*
X106598069Y-109333088D01*
X106475588Y-109455569D01*
X106475588Y-109455570D01*
X106475586Y-109455572D01*
X106448764Y-109492489D01*
X106373768Y-109595711D01*
X106295128Y-109750052D01*
X106241597Y-109914802D01*
X106214500Y-110085889D01*
X102935500Y-110085889D01*
X102935500Y-105579986D01*
X124114500Y-105579986D01*
X124114500Y-105875013D01*
X124146571Y-106118613D01*
X124153007Y-106167493D01*
X124223311Y-106429873D01*
X124229361Y-106452451D01*
X124229364Y-106452461D01*
X124342254Y-106725000D01*
X124342258Y-106725010D01*
X124489761Y-106980493D01*
X124669352Y-107214540D01*
X124669358Y-107214547D01*
X124877952Y-107423141D01*
X124877959Y-107423147D01*
X125112006Y-107602738D01*
X125367489Y-107750241D01*
X125367490Y-107750241D01*
X125367493Y-107750243D01*
X125640048Y-107863139D01*
X125925007Y-107939493D01*
X126217494Y-107978000D01*
X126217501Y-107978000D01*
X126512499Y-107978000D01*
X126512506Y-107978000D01*
X126804993Y-107939493D01*
X127089952Y-107863139D01*
X127362507Y-107750243D01*
X127617994Y-107602738D01*
X127852042Y-107423146D01*
X128060646Y-107214542D01*
X128240238Y-106980494D01*
X128387743Y-106725007D01*
X128500639Y-106452452D01*
X128576993Y-106167493D01*
X128615500Y-105875006D01*
X128615500Y-105579994D01*
X128576993Y-105287507D01*
X128500639Y-105002548D01*
X128494427Y-104987552D01*
X128458560Y-104900960D01*
X128387743Y-104729993D01*
X128381203Y-104718666D01*
X128240238Y-104474506D01*
X128060647Y-104240459D01*
X128060641Y-104240452D01*
X127852047Y-104031858D01*
X127852040Y-104031852D01*
X127617993Y-103852261D01*
X127362510Y-103704758D01*
X127362500Y-103704754D01*
X127089961Y-103591864D01*
X127089954Y-103591862D01*
X127089952Y-103591861D01*
X126804993Y-103515507D01*
X126756113Y-103509071D01*
X126512513Y-103477000D01*
X126512506Y-103477000D01*
X126217494Y-103477000D01*
X126217486Y-103477000D01*
X125939085Y-103513653D01*
X125925007Y-103515507D01*
X125764875Y-103558414D01*
X125640048Y-103591861D01*
X125640038Y-103591864D01*
X125367499Y-103704754D01*
X125367489Y-103704758D01*
X125112006Y-103852261D01*
X124877959Y-104031852D01*
X124877952Y-104031858D01*
X124669358Y-104240452D01*
X124669352Y-104240459D01*
X124489761Y-104474506D01*
X124342258Y-104729989D01*
X124342254Y-104729999D01*
X124229364Y-105002538D01*
X124229361Y-105002548D01*
X124161043Y-105257518D01*
X124153008Y-105287504D01*
X124153006Y-105287515D01*
X124114500Y-105579986D01*
X102935500Y-105579986D01*
X102935500Y-95442541D01*
X102955185Y-95375502D01*
X103007989Y-95329747D01*
X103077147Y-95319803D01*
X103140703Y-95348828D01*
X103178477Y-95407606D01*
X103181972Y-95423139D01*
X103206799Y-95579886D01*
X103213910Y-95624785D01*
X103291760Y-95864383D01*
X103406132Y-96088848D01*
X103554201Y-96292649D01*
X103554205Y-96292654D01*
X103732345Y-96470794D01*
X103732350Y-96470798D01*
X103890533Y-96585724D01*
X103936155Y-96618870D01*
X104079184Y-96691747D01*
X104160616Y-96733239D01*
X104160618Y-96733239D01*
X104160621Y-96733241D01*
X104400215Y-96811090D01*
X104649038Y-96850500D01*
X104649039Y-96850500D01*
X104900961Y-96850500D01*
X104900962Y-96850500D01*
X105149785Y-96811090D01*
X105389379Y-96733241D01*
X105613845Y-96618870D01*
X105817656Y-96470793D01*
X105995793Y-96292656D01*
X106000380Y-96286341D01*
X106055708Y-96243675D01*
X106125322Y-96237693D01*
X106187118Y-96270296D01*
X106221477Y-96331134D01*
X106223174Y-96378621D01*
X106214500Y-96433388D01*
X106214500Y-96606610D01*
X106233157Y-96724411D01*
X106241598Y-96777701D01*
X106284471Y-96909651D01*
X106295128Y-96942447D01*
X106312576Y-96976690D01*
X106373768Y-97096788D01*
X106475586Y-97236928D01*
X106598072Y-97359414D01*
X106738212Y-97461232D01*
X106892555Y-97539873D01*
X107057299Y-97593402D01*
X107228389Y-97620500D01*
X107228390Y-97620500D01*
X107401610Y-97620500D01*
X107401611Y-97620500D01*
X107572701Y-97593402D01*
X107737445Y-97539873D01*
X107891788Y-97461232D01*
X108031928Y-97359414D01*
X108154414Y-97236928D01*
X108256232Y-97096788D01*
X108334873Y-96942445D01*
X108388402Y-96777701D01*
X108415500Y-96606611D01*
X108415500Y-96433389D01*
X108388402Y-96262299D01*
X108334873Y-96097555D01*
X108256232Y-95943212D01*
X108154414Y-95803072D01*
X108031928Y-95680586D01*
X107891788Y-95578768D01*
X107737445Y-95500127D01*
X107572701Y-95446598D01*
X107572699Y-95446597D01*
X107572698Y-95446597D01*
X107424612Y-95423143D01*
X107401611Y-95419500D01*
X107228389Y-95419500D01*
X107205388Y-95423143D01*
X107057302Y-95446597D01*
X106892552Y-95500128D01*
X106738211Y-95578768D01*
X106674875Y-95624785D01*
X106598072Y-95680586D01*
X106598070Y-95680588D01*
X106598068Y-95680589D01*
X106546139Y-95732518D01*
X106484816Y-95766002D01*
X106415124Y-95761017D01*
X106359191Y-95719146D01*
X106334775Y-95653681D01*
X106335986Y-95625438D01*
X106336088Y-95624788D01*
X106336090Y-95624785D01*
X106375500Y-95375962D01*
X106375500Y-95124038D01*
X106336090Y-94875215D01*
X106258241Y-94635621D01*
X106258239Y-94635618D01*
X106258239Y-94635616D01*
X106216747Y-94554184D01*
X106143870Y-94411155D01*
X106124952Y-94385117D01*
X105995798Y-94207350D01*
X105995794Y-94207345D01*
X105817654Y-94029205D01*
X105817649Y-94029201D01*
X105613848Y-93881132D01*
X105613847Y-93881131D01*
X105613845Y-93881130D01*
X105543747Y-93845413D01*
X105389383Y-93766760D01*
X105149785Y-93688910D01*
X104900962Y-93649500D01*
X104649038Y-93649500D01*
X104524626Y-93669205D01*
X104400214Y-93688910D01*
X104160616Y-93766760D01*
X103936151Y-93881132D01*
X103732350Y-94029201D01*
X103732345Y-94029205D01*
X103554205Y-94207345D01*
X103554201Y-94207350D01*
X103406132Y-94411151D01*
X103291760Y-94635616D01*
X103213909Y-94875214D01*
X103181973Y-95076856D01*
X103152044Y-95139991D01*
X103092732Y-95176922D01*
X103022870Y-95175924D01*
X102964637Y-95137314D01*
X102936523Y-95073351D01*
X102935500Y-95057458D01*
X102935500Y-90415347D01*
X102955185Y-90348308D01*
X103003206Y-90304862D01*
X103073845Y-90268870D01*
X103277656Y-90120793D01*
X103455793Y-89942656D01*
X103603870Y-89738845D01*
X103718241Y-89514379D01*
X103796090Y-89274785D01*
X103835500Y-89025962D01*
X103835500Y-88774038D01*
X103796090Y-88525215D01*
X103796068Y-88525149D01*
X103795635Y-88523813D01*
X103795618Y-88523251D01*
X103794951Y-88520468D01*
X103795535Y-88520327D01*
X103793643Y-88453972D01*
X103829726Y-88394141D01*
X103892428Y-88363315D01*
X103913568Y-88361500D01*
X106972615Y-88361500D01*
X107039654Y-88381185D01*
X107060296Y-88397819D01*
X107652725Y-88990248D01*
X107686210Y-89051571D01*
X107681226Y-89121263D01*
X107639354Y-89177196D01*
X107573890Y-89201613D01*
X107548859Y-89200868D01*
X107462516Y-89189501D01*
X107462511Y-89189500D01*
X107462506Y-89189500D01*
X107167494Y-89189500D01*
X107167486Y-89189500D01*
X106889085Y-89226153D01*
X106875007Y-89228007D01*
X106700428Y-89274785D01*
X106590048Y-89304361D01*
X106590038Y-89304364D01*
X106317499Y-89417254D01*
X106317489Y-89417258D01*
X106062006Y-89564761D01*
X105827959Y-89744352D01*
X105827952Y-89744358D01*
X105619358Y-89952952D01*
X105619352Y-89952959D01*
X105439761Y-90187006D01*
X105292258Y-90442489D01*
X105292254Y-90442499D01*
X105179364Y-90715038D01*
X105179361Y-90715048D01*
X105103008Y-91000004D01*
X105103006Y-91000015D01*
X105064500Y-91292486D01*
X105064500Y-91587513D01*
X105090068Y-91781716D01*
X105103007Y-91879993D01*
X105179361Y-92164951D01*
X105179364Y-92164961D01*
X105292254Y-92437500D01*
X105292258Y-92437510D01*
X105439761Y-92692993D01*
X105619352Y-92927040D01*
X105619358Y-92927047D01*
X105827952Y-93135641D01*
X105827959Y-93135647D01*
X106062006Y-93315238D01*
X106317489Y-93462741D01*
X106317490Y-93462741D01*
X106317493Y-93462743D01*
X106590048Y-93575639D01*
X106875007Y-93651993D01*
X107167494Y-93690500D01*
X107167501Y-93690500D01*
X107462499Y-93690500D01*
X107462506Y-93690500D01*
X107754993Y-93651993D01*
X108039952Y-93575639D01*
X108312507Y-93462743D01*
X108567994Y-93315238D01*
X108802042Y-93135646D01*
X109010646Y-92927042D01*
X109190238Y-92692994D01*
X109337743Y-92437507D01*
X109450639Y-92164952D01*
X109526993Y-91879993D01*
X109565500Y-91587506D01*
X109565500Y-91292494D01*
X109554131Y-91206139D01*
X109564896Y-91137106D01*
X109611276Y-91084850D01*
X109678545Y-91065964D01*
X109745345Y-91086444D01*
X109764751Y-91102274D01*
X120363737Y-101701260D01*
X120397222Y-101762583D01*
X120392238Y-101832275D01*
X120350366Y-101888208D01*
X120348941Y-101889259D01*
X120242350Y-101966701D01*
X120242345Y-101966705D01*
X120064205Y-102144845D01*
X120064201Y-102144850D01*
X119916132Y-102348651D01*
X119801760Y-102573116D01*
X119748409Y-102737315D01*
X119723910Y-102812715D01*
X119684500Y-103061538D01*
X119684500Y-103313462D01*
X119699177Y-103406130D01*
X119723910Y-103562285D01*
X119801760Y-103801883D01*
X119916132Y-104026348D01*
X120064201Y-104230149D01*
X120064205Y-104230154D01*
X120242345Y-104408294D01*
X120242350Y-104408298D01*
X120420117Y-104537452D01*
X120446155Y-104556370D01*
X120589184Y-104629247D01*
X120670616Y-104670739D01*
X120670618Y-104670739D01*
X120670621Y-104670741D01*
X120910215Y-104748590D01*
X121159038Y-104788000D01*
X121159039Y-104788000D01*
X121410961Y-104788000D01*
X121410962Y-104788000D01*
X121659785Y-104748590D01*
X121899379Y-104670741D01*
X122123845Y-104556370D01*
X122327656Y-104408293D01*
X122505793Y-104230156D01*
X122653870Y-104026345D01*
X122768241Y-103801879D01*
X122846090Y-103562285D01*
X122885500Y-103313462D01*
X122885500Y-103061538D01*
X122846090Y-102812715D01*
X122768241Y-102573121D01*
X122768239Y-102573118D01*
X122768239Y-102573116D01*
X122706547Y-102452040D01*
X122653870Y-102348655D01*
X122602741Y-102278282D01*
X122505798Y-102144850D01*
X122505794Y-102144845D01*
X122327654Y-101966705D01*
X122327649Y-101966701D01*
X122123846Y-101818630D01*
X122053204Y-101782635D01*
X122002408Y-101734660D01*
X121985500Y-101672151D01*
X121985500Y-101562870D01*
X121958581Y-101427543D01*
X121958580Y-101427542D01*
X121958580Y-101427538D01*
X121958578Y-101427533D01*
X121905778Y-101300061D01*
X121905771Y-101300048D01*
X121844143Y-101207816D01*
X121829112Y-101185320D01*
X121829109Y-101185317D01*
X108024992Y-87381201D01*
X107991507Y-87319878D01*
X107996491Y-87250186D01*
X108029146Y-87203522D01*
X108028483Y-87202859D01*
X108031931Y-87199411D01*
X108154414Y-87076928D01*
X108256232Y-86936788D01*
X108334873Y-86782445D01*
X108388402Y-86617701D01*
X108415500Y-86446611D01*
X108415500Y-86273389D01*
X108388402Y-86102299D01*
X108334873Y-85937555D01*
X108256232Y-85783212D01*
X108154414Y-85643072D01*
X108031928Y-85520586D01*
X107891788Y-85418768D01*
X107737445Y-85340127D01*
X107572701Y-85286598D01*
X107572699Y-85286597D01*
X107572698Y-85286597D01*
X107441271Y-85265781D01*
X107401611Y-85259500D01*
X107228389Y-85259500D01*
X107188728Y-85265781D01*
X107057302Y-85286597D01*
X106892552Y-85340128D01*
X106738211Y-85418768D01*
X106732439Y-85422962D01*
X106598072Y-85520586D01*
X106598070Y-85520588D01*
X106598069Y-85520588D01*
X106475588Y-85643069D01*
X106475588Y-85643070D01*
X106475586Y-85643072D01*
X106456992Y-85668665D01*
X106373768Y-85783211D01*
X106295128Y-85937552D01*
X106241597Y-86102302D01*
X106214500Y-86273389D01*
X106214500Y-86446610D01*
X106241597Y-86617697D01*
X106295129Y-86782452D01*
X106296994Y-86786954D01*
X106295373Y-86787625D01*
X106306884Y-86848852D01*
X106280620Y-86913597D01*
X106223521Y-86953864D01*
X106183501Y-86960500D01*
X103460254Y-86960500D01*
X103393215Y-86940815D01*
X103372577Y-86924185D01*
X103303278Y-86854886D01*
X103294247Y-86848852D01*
X103188542Y-86778222D01*
X103061067Y-86725421D01*
X103061057Y-86725418D01*
X102925731Y-86698500D01*
X102925729Y-86698500D01*
X102925728Y-86698500D01*
X99042494Y-86698500D01*
X98904506Y-86698500D01*
X98904504Y-86698500D01*
X98769177Y-86725418D01*
X98769167Y-86725421D01*
X98641692Y-86778222D01*
X98526954Y-86854887D01*
X83761183Y-101620658D01*
X83699860Y-101654143D01*
X83635184Y-101650908D01*
X83559787Y-101626410D01*
X83393903Y-101600136D01*
X83310962Y-101587000D01*
X83059038Y-101587000D01*
X82934626Y-101606705D01*
X82810214Y-101626410D01*
X82570616Y-101704260D01*
X82346151Y-101818632D01*
X82142350Y-101966701D01*
X82142345Y-101966705D01*
X81964205Y-102144845D01*
X81964201Y-102144850D01*
X81816132Y-102348651D01*
X81701760Y-102573116D01*
X81623910Y-102812714D01*
X81584500Y-103061538D01*
X81584500Y-103313461D01*
X81623910Y-103562288D01*
X81648408Y-103637686D01*
X81650403Y-103707527D01*
X81618158Y-103763684D01*
X63881162Y-121500681D01*
X63819839Y-121534166D01*
X63793481Y-121537000D01*
X37075348Y-121537000D01*
X37008309Y-121517315D01*
X36964863Y-121469295D01*
X36956869Y-121453608D01*
X36928870Y-121398655D01*
X36895243Y-121352371D01*
X36780798Y-121194850D01*
X36780794Y-121194845D01*
X36602654Y-121016705D01*
X36602649Y-121016701D01*
X36398848Y-120868632D01*
X36398847Y-120868631D01*
X36398845Y-120868630D01*
X36328747Y-120832913D01*
X36174383Y-120754260D01*
X35934785Y-120676410D01*
X35850118Y-120663000D01*
X35685962Y-120637000D01*
X35434038Y-120637000D01*
X35309626Y-120656705D01*
X35185214Y-120676410D01*
X34945616Y-120754260D01*
X34721151Y-120868632D01*
X34517350Y-121016701D01*
X34517345Y-121016705D01*
X34339205Y-121194845D01*
X34339201Y-121194850D01*
X34191132Y-121398651D01*
X34076760Y-121623116D01*
X33998910Y-121862714D01*
X33998910Y-121862715D01*
X33959500Y-122111538D01*
X25500500Y-122111538D01*
X25500500Y-119610889D01*
X39539500Y-119610889D01*
X39539500Y-119784110D01*
X39559447Y-119910055D01*
X39566598Y-119955201D01*
X39620127Y-120119945D01*
X39698768Y-120274288D01*
X39800586Y-120414428D01*
X39923072Y-120536914D01*
X40063212Y-120638732D01*
X40217555Y-120717373D01*
X40382299Y-120770902D01*
X40553389Y-120798000D01*
X40553390Y-120798000D01*
X40726610Y-120798000D01*
X40726611Y-120798000D01*
X40897701Y-120770902D01*
X41062445Y-120717373D01*
X41216788Y-120638732D01*
X41356928Y-120536914D01*
X41479414Y-120414428D01*
X41581232Y-120274288D01*
X41659873Y-120119945D01*
X41713402Y-119955201D01*
X41740500Y-119784111D01*
X41740500Y-119610889D01*
X41713402Y-119439799D01*
X41659873Y-119275055D01*
X41581232Y-119120712D01*
X41479414Y-118980572D01*
X41356928Y-118858086D01*
X41216788Y-118756268D01*
X41062445Y-118677627D01*
X40897701Y-118624098D01*
X40897699Y-118624097D01*
X40897698Y-118624097D01*
X40766271Y-118603281D01*
X40726611Y-118597000D01*
X40553389Y-118597000D01*
X40513728Y-118603281D01*
X40382302Y-118624097D01*
X40217552Y-118677628D01*
X40063211Y-118756268D01*
X39983256Y-118814359D01*
X39923072Y-118858086D01*
X39923070Y-118858088D01*
X39923069Y-118858088D01*
X39800588Y-118980569D01*
X39800588Y-118980570D01*
X39800586Y-118980572D01*
X39773764Y-119017489D01*
X39698768Y-119120711D01*
X39620128Y-119275052D01*
X39620127Y-119275054D01*
X39620127Y-119275055D01*
X39615259Y-119290038D01*
X39566597Y-119439802D01*
X39539500Y-119610889D01*
X25500500Y-119610889D01*
X25500500Y-114174038D01*
X60312000Y-114174038D01*
X60312000Y-114425961D01*
X60351410Y-114674785D01*
X60429260Y-114914383D01*
X60543632Y-115138848D01*
X60691701Y-115342649D01*
X60691705Y-115342654D01*
X60869845Y-115520794D01*
X60869850Y-115520798D01*
X61047617Y-115649952D01*
X61073655Y-115668870D01*
X61216684Y-115741747D01*
X61298116Y-115783239D01*
X61298118Y-115783239D01*
X61298121Y-115783241D01*
X61537715Y-115861090D01*
X61786538Y-115900500D01*
X61786539Y-115900500D01*
X62038461Y-115900500D01*
X62038462Y-115900500D01*
X62287285Y-115861090D01*
X62526879Y-115783241D01*
X62751345Y-115668870D01*
X62955156Y-115520793D01*
X63133293Y-115342656D01*
X63137880Y-115336341D01*
X63193208Y-115293675D01*
X63262822Y-115287693D01*
X63324618Y-115320296D01*
X63358977Y-115381134D01*
X63360674Y-115428621D01*
X63352000Y-115483389D01*
X63352000Y-115656611D01*
X63360177Y-115708239D01*
X63370657Y-115774411D01*
X63379098Y-115827701D01*
X63432627Y-115992445D01*
X63511268Y-116146788D01*
X63613086Y-116286928D01*
X63735572Y-116409414D01*
X63875712Y-116511232D01*
X64030055Y-116589873D01*
X64194799Y-116643402D01*
X64365889Y-116670500D01*
X64365890Y-116670500D01*
X64539110Y-116670500D01*
X64539111Y-116670500D01*
X64710201Y-116643402D01*
X64874945Y-116589873D01*
X65029288Y-116511232D01*
X65169428Y-116409414D01*
X65291914Y-116286928D01*
X65393732Y-116146788D01*
X65472373Y-115992445D01*
X65525902Y-115827701D01*
X65553000Y-115656611D01*
X65553000Y-115483389D01*
X65525902Y-115312299D01*
X65472373Y-115147555D01*
X65393732Y-114993212D01*
X65291914Y-114853072D01*
X65169428Y-114730586D01*
X65029288Y-114628768D01*
X64874945Y-114550127D01*
X64710201Y-114496598D01*
X64710199Y-114496597D01*
X64710198Y-114496597D01*
X64578771Y-114475781D01*
X64539111Y-114469500D01*
X64365889Y-114469500D01*
X64326228Y-114475781D01*
X64194802Y-114496597D01*
X64030052Y-114550128D01*
X63875711Y-114628768D01*
X63808915Y-114677299D01*
X63735572Y-114730586D01*
X63735570Y-114730588D01*
X63735568Y-114730589D01*
X63683639Y-114782518D01*
X63622316Y-114816002D01*
X63552624Y-114811017D01*
X63496691Y-114769146D01*
X63472275Y-114703681D01*
X63473486Y-114675438D01*
X63473588Y-114674788D01*
X63473590Y-114674785D01*
X63513000Y-114425962D01*
X63513000Y-114174038D01*
X63473590Y-113925215D01*
X63395741Y-113685621D01*
X63395739Y-113685618D01*
X63395739Y-113685616D01*
X63330130Y-113556852D01*
X63281370Y-113461155D01*
X63262452Y-113435117D01*
X63133298Y-113257350D01*
X63133294Y-113257345D01*
X62955154Y-113079205D01*
X62955149Y-113079201D01*
X62751348Y-112931132D01*
X62751347Y-112931131D01*
X62751345Y-112931130D01*
X62681247Y-112895413D01*
X62526883Y-112816760D01*
X62287285Y-112738910D01*
X62038462Y-112699500D01*
X61786538Y-112699500D01*
X61662126Y-112719205D01*
X61537714Y-112738910D01*
X61298116Y-112816760D01*
X61073651Y-112931132D01*
X60869850Y-113079201D01*
X60869845Y-113079205D01*
X60691705Y-113257345D01*
X60691701Y-113257350D01*
X60543632Y-113461151D01*
X60429260Y-113685616D01*
X60351410Y-113925214D01*
X60312000Y-114174038D01*
X25500500Y-114174038D01*
X25500500Y-110342486D01*
X62202000Y-110342486D01*
X62202000Y-110637513D01*
X62225109Y-110813033D01*
X62240507Y-110929993D01*
X62316861Y-111214951D01*
X62316864Y-111214961D01*
X62429754Y-111487500D01*
X62429758Y-111487510D01*
X62577261Y-111742993D01*
X62756852Y-111977040D01*
X62756858Y-111977047D01*
X62965452Y-112185641D01*
X62965459Y-112185647D01*
X63199506Y-112365238D01*
X63454989Y-112512741D01*
X63454990Y-112512741D01*
X63454993Y-112512743D01*
X63727548Y-112625639D01*
X64012507Y-112701993D01*
X64304994Y-112740500D01*
X64305001Y-112740500D01*
X64599999Y-112740500D01*
X64600006Y-112740500D01*
X64892493Y-112701993D01*
X65177452Y-112625639D01*
X65450007Y-112512743D01*
X65705494Y-112365238D01*
X65939542Y-112185646D01*
X66148146Y-111977042D01*
X66327738Y-111742994D01*
X66475243Y-111487507D01*
X66588139Y-111214952D01*
X66664493Y-110929993D01*
X66703000Y-110637506D01*
X66703000Y-110342494D01*
X66664493Y-110050007D01*
X66588139Y-109765048D01*
X66581927Y-109750052D01*
X66546060Y-109663460D01*
X66475243Y-109492493D01*
X66375068Y-109318985D01*
X66327738Y-109237006D01*
X66148147Y-109002959D01*
X66148141Y-109002952D01*
X65939547Y-108794358D01*
X65939540Y-108794352D01*
X65705493Y-108614761D01*
X65450010Y-108467258D01*
X65450000Y-108467254D01*
X65177461Y-108354364D01*
X65177454Y-108354362D01*
X65177452Y-108354361D01*
X64892493Y-108278007D01*
X64843613Y-108271571D01*
X64600013Y-108239500D01*
X64600006Y-108239500D01*
X64304994Y-108239500D01*
X64304986Y-108239500D01*
X64026585Y-108276153D01*
X64012507Y-108278007D01*
X63910099Y-108305447D01*
X63727548Y-108354361D01*
X63727538Y-108354364D01*
X63454999Y-108467254D01*
X63454989Y-108467258D01*
X63199506Y-108614761D01*
X62965459Y-108794352D01*
X62965452Y-108794358D01*
X62756858Y-109002952D01*
X62756852Y-109002959D01*
X62577261Y-109237006D01*
X62429758Y-109492489D01*
X62429754Y-109492499D01*
X62316864Y-109765038D01*
X62316861Y-109765048D01*
X62248543Y-110020018D01*
X62240508Y-110050004D01*
X62240506Y-110050015D01*
X62202000Y-110342486D01*
X25500500Y-110342486D01*
X25500500Y-95124038D01*
X60312000Y-95124038D01*
X60312000Y-95375962D01*
X60344299Y-95579886D01*
X60351410Y-95624785D01*
X60429260Y-95864383D01*
X60543632Y-96088848D01*
X60691701Y-96292649D01*
X60691705Y-96292654D01*
X60869845Y-96470794D01*
X60869850Y-96470798D01*
X61028033Y-96585724D01*
X61073655Y-96618870D01*
X61216684Y-96691747D01*
X61298116Y-96733239D01*
X61298118Y-96733239D01*
X61298121Y-96733241D01*
X61537715Y-96811090D01*
X61786538Y-96850500D01*
X61786539Y-96850500D01*
X62038461Y-96850500D01*
X62038462Y-96850500D01*
X62287285Y-96811090D01*
X62526879Y-96733241D01*
X62751345Y-96618870D01*
X62955156Y-96470793D01*
X63133293Y-96292656D01*
X63137880Y-96286341D01*
X63193208Y-96243675D01*
X63262822Y-96237693D01*
X63324618Y-96270296D01*
X63358977Y-96331134D01*
X63360674Y-96378621D01*
X63352000Y-96433388D01*
X63352000Y-96606610D01*
X63370657Y-96724411D01*
X63379098Y-96777701D01*
X63421971Y-96909651D01*
X63432628Y-96942447D01*
X63450076Y-96976690D01*
X63511268Y-97096788D01*
X63613086Y-97236928D01*
X63735572Y-97359414D01*
X63875712Y-97461232D01*
X64030055Y-97539873D01*
X64194799Y-97593402D01*
X64365889Y-97620500D01*
X64365890Y-97620500D01*
X64539110Y-97620500D01*
X64539111Y-97620500D01*
X64710201Y-97593402D01*
X64874945Y-97539873D01*
X65029288Y-97461232D01*
X65169428Y-97359414D01*
X65291914Y-97236928D01*
X65393732Y-97096788D01*
X65472373Y-96942445D01*
X65525902Y-96777701D01*
X65553000Y-96606611D01*
X65553000Y-96433389D01*
X65525902Y-96262299D01*
X65472373Y-96097555D01*
X65393732Y-95943212D01*
X65291914Y-95803072D01*
X65169428Y-95680586D01*
X65029288Y-95578768D01*
X64874945Y-95500127D01*
X64710201Y-95446598D01*
X64710199Y-95446597D01*
X64710198Y-95446597D01*
X64562112Y-95423143D01*
X64539111Y-95419500D01*
X64365889Y-95419500D01*
X64342888Y-95423143D01*
X64194802Y-95446597D01*
X64030052Y-95500128D01*
X63875711Y-95578768D01*
X63812375Y-95624785D01*
X63735572Y-95680586D01*
X63735570Y-95680588D01*
X63735568Y-95680589D01*
X63683639Y-95732518D01*
X63622316Y-95766002D01*
X63552624Y-95761017D01*
X63496691Y-95719146D01*
X63472275Y-95653681D01*
X63473486Y-95625438D01*
X63473588Y-95624788D01*
X63473590Y-95624785D01*
X63513000Y-95375962D01*
X63513000Y-95124038D01*
X63473590Y-94875215D01*
X63395741Y-94635621D01*
X63395739Y-94635618D01*
X63395739Y-94635616D01*
X63354247Y-94554184D01*
X63281370Y-94411155D01*
X63262452Y-94385117D01*
X63133298Y-94207350D01*
X63133294Y-94207345D01*
X62955154Y-94029205D01*
X62955149Y-94029201D01*
X62751348Y-93881132D01*
X62751347Y-93881131D01*
X62751345Y-93881130D01*
X62681247Y-93845413D01*
X62526883Y-93766760D01*
X62287285Y-93688910D01*
X62038462Y-93649500D01*
X61786538Y-93649500D01*
X61662126Y-93669205D01*
X61537714Y-93688910D01*
X61298116Y-93766760D01*
X61073651Y-93881132D01*
X60869850Y-94029201D01*
X60869845Y-94029205D01*
X60691705Y-94207345D01*
X60691701Y-94207350D01*
X60543632Y-94411151D01*
X60429260Y-94635616D01*
X60354687Y-94865128D01*
X60351410Y-94875215D01*
X60312000Y-95124038D01*
X25500500Y-95124038D01*
X25500500Y-91292486D01*
X62202000Y-91292486D01*
X62202000Y-91587513D01*
X62227568Y-91781716D01*
X62240507Y-91879993D01*
X62316861Y-92164951D01*
X62316864Y-92164961D01*
X62429754Y-92437500D01*
X62429758Y-92437510D01*
X62577261Y-92692993D01*
X62756852Y-92927040D01*
X62756858Y-92927047D01*
X62965452Y-93135641D01*
X62965459Y-93135647D01*
X63199506Y-93315238D01*
X63454989Y-93462741D01*
X63454990Y-93462741D01*
X63454993Y-93462743D01*
X63727548Y-93575639D01*
X64012507Y-93651993D01*
X64304994Y-93690500D01*
X64305001Y-93690500D01*
X64599999Y-93690500D01*
X64600006Y-93690500D01*
X64892493Y-93651993D01*
X65177452Y-93575639D01*
X65450007Y-93462743D01*
X65705494Y-93315238D01*
X65939542Y-93135646D01*
X66148146Y-92927042D01*
X66327738Y-92692994D01*
X66475243Y-92437507D01*
X66588139Y-92164952D01*
X66664493Y-91879993D01*
X66703000Y-91587506D01*
X66703000Y-91292494D01*
X66664493Y-91000007D01*
X66588139Y-90715048D01*
X66475243Y-90442493D01*
X66459570Y-90415347D01*
X66327738Y-90187006D01*
X66148147Y-89952959D01*
X66148141Y-89952952D01*
X65939547Y-89744358D01*
X65939540Y-89744352D01*
X65705493Y-89564761D01*
X65450010Y-89417258D01*
X65450000Y-89417254D01*
X65177461Y-89304364D01*
X65177454Y-89304362D01*
X65177452Y-89304361D01*
X64892493Y-89228007D01*
X64843613Y-89221571D01*
X64600013Y-89189500D01*
X64600006Y-89189500D01*
X64304994Y-89189500D01*
X64304986Y-89189500D01*
X64026585Y-89226153D01*
X64012507Y-89228007D01*
X63837928Y-89274785D01*
X63727548Y-89304361D01*
X63727538Y-89304364D01*
X63454999Y-89417254D01*
X63454989Y-89417258D01*
X63199506Y-89564761D01*
X62965459Y-89744352D01*
X62965452Y-89744358D01*
X62756858Y-89952952D01*
X62756852Y-89952959D01*
X62577261Y-90187006D01*
X62429758Y-90442489D01*
X62429754Y-90442499D01*
X62316864Y-90715038D01*
X62316861Y-90715048D01*
X62240508Y-91000004D01*
X62240506Y-91000015D01*
X62202000Y-91292486D01*
X25500500Y-91292486D01*
X25500500Y-76074038D01*
X60312000Y-76074038D01*
X60312000Y-76325962D01*
X60324950Y-76407726D01*
X60351410Y-76574785D01*
X60429260Y-76814383D01*
X60469426Y-76893212D01*
X60530710Y-77013489D01*
X60543632Y-77038848D01*
X60691701Y-77242649D01*
X60691705Y-77242654D01*
X60869845Y-77420794D01*
X60869850Y-77420798D01*
X61047318Y-77549735D01*
X61073655Y-77568870D01*
X61216684Y-77641747D01*
X61298116Y-77683239D01*
X61298118Y-77683239D01*
X61298121Y-77683241D01*
X61537715Y-77761090D01*
X61786538Y-77800500D01*
X61786539Y-77800500D01*
X62038461Y-77800500D01*
X62038462Y-77800500D01*
X62287285Y-77761090D01*
X62526879Y-77683241D01*
X62751345Y-77568870D01*
X62955156Y-77420793D01*
X63133293Y-77242656D01*
X63137880Y-77236341D01*
X63193208Y-77193675D01*
X63262822Y-77187693D01*
X63324618Y-77220296D01*
X63358977Y-77281134D01*
X63360674Y-77328621D01*
X63352000Y-77383389D01*
X63352000Y-77556611D01*
X63355784Y-77580500D01*
X63370657Y-77674411D01*
X63379098Y-77727701D01*
X63432627Y-77892445D01*
X63511268Y-78046788D01*
X63613086Y-78186928D01*
X63735572Y-78309414D01*
X63875712Y-78411232D01*
X64030055Y-78489873D01*
X64194799Y-78543402D01*
X64365889Y-78570500D01*
X64365890Y-78570500D01*
X64539110Y-78570500D01*
X64539111Y-78570500D01*
X64710201Y-78543402D01*
X64874945Y-78489873D01*
X65029288Y-78411232D01*
X65169428Y-78309414D01*
X65291914Y-78186928D01*
X65393732Y-78046788D01*
X65472373Y-77892445D01*
X65525902Y-77727701D01*
X65553000Y-77556611D01*
X65553000Y-77383389D01*
X65525902Y-77212299D01*
X65472373Y-77047555D01*
X65393732Y-76893212D01*
X65291914Y-76753072D01*
X65169428Y-76630586D01*
X65029288Y-76528768D01*
X64874945Y-76450127D01*
X64710201Y-76396598D01*
X64710199Y-76396597D01*
X64710198Y-76396597D01*
X64578771Y-76375781D01*
X64539111Y-76369500D01*
X64365889Y-76369500D01*
X64326228Y-76375781D01*
X64194802Y-76396597D01*
X64030052Y-76450128D01*
X63875711Y-76528768D01*
X63812375Y-76574785D01*
X63735572Y-76630586D01*
X63735570Y-76630588D01*
X63735568Y-76630589D01*
X63683639Y-76682518D01*
X63622316Y-76716002D01*
X63552624Y-76711017D01*
X63496691Y-76669146D01*
X63472275Y-76603681D01*
X63473486Y-76575438D01*
X63473588Y-76574788D01*
X63473590Y-76574785D01*
X63513000Y-76325962D01*
X63513000Y-76074038D01*
X63473590Y-75825215D01*
X63395741Y-75585621D01*
X63395739Y-75585618D01*
X63395739Y-75585616D01*
X63354247Y-75504184D01*
X63281370Y-75361155D01*
X63258169Y-75329222D01*
X63133298Y-75157350D01*
X63133294Y-75157345D01*
X62955154Y-74979205D01*
X62955149Y-74979201D01*
X62751348Y-74831132D01*
X62751347Y-74831131D01*
X62751345Y-74831130D01*
X62618451Y-74763417D01*
X62526883Y-74716760D01*
X62287285Y-74638910D01*
X62220461Y-74628326D01*
X62038462Y-74599500D01*
X61786538Y-74599500D01*
X61662126Y-74619205D01*
X61537714Y-74638910D01*
X61298116Y-74716760D01*
X61073651Y-74831132D01*
X60869850Y-74979201D01*
X60869845Y-74979205D01*
X60691705Y-75157345D01*
X60691701Y-75157350D01*
X60543632Y-75361151D01*
X60429260Y-75585616D01*
X60354687Y-75815128D01*
X60351410Y-75825215D01*
X60312000Y-76074038D01*
X25500500Y-76074038D01*
X25500500Y-72242486D01*
X62202000Y-72242486D01*
X62202000Y-72537513D01*
X62234071Y-72781113D01*
X62240507Y-72829993D01*
X62316861Y-73114951D01*
X62316864Y-73114961D01*
X62429754Y-73387500D01*
X62429758Y-73387510D01*
X62577261Y-73642993D01*
X62756852Y-73877040D01*
X62756858Y-73877047D01*
X62965452Y-74085641D01*
X62965459Y-74085647D01*
X63199506Y-74265238D01*
X63454989Y-74412741D01*
X63454990Y-74412741D01*
X63454993Y-74412743D01*
X63727548Y-74525639D01*
X64012507Y-74601993D01*
X64304994Y-74640500D01*
X64305001Y-74640500D01*
X64599999Y-74640500D01*
X64600006Y-74640500D01*
X64892493Y-74601993D01*
X65177452Y-74525639D01*
X65450007Y-74412743D01*
X65705494Y-74265238D01*
X65939542Y-74085646D01*
X66148146Y-73877042D01*
X66327738Y-73642994D01*
X66475243Y-73387507D01*
X66588139Y-73114952D01*
X66664493Y-72829993D01*
X66703000Y-72537506D01*
X66703000Y-72242494D01*
X66664493Y-71950007D01*
X66588139Y-71665048D01*
X66475243Y-71392493D01*
X66459570Y-71365347D01*
X66327738Y-71137006D01*
X66148147Y-70902959D01*
X66148141Y-70902952D01*
X65939547Y-70694358D01*
X65939540Y-70694352D01*
X65705493Y-70514761D01*
X65450010Y-70367258D01*
X65450000Y-70367254D01*
X65177461Y-70254364D01*
X65177454Y-70254362D01*
X65177452Y-70254361D01*
X64892493Y-70178007D01*
X64843613Y-70171571D01*
X64600013Y-70139500D01*
X64600006Y-70139500D01*
X64304994Y-70139500D01*
X64304986Y-70139500D01*
X64026585Y-70176153D01*
X64012507Y-70178007D01*
X63837928Y-70224785D01*
X63727548Y-70254361D01*
X63727538Y-70254364D01*
X63454999Y-70367254D01*
X63454989Y-70367258D01*
X63199506Y-70514761D01*
X62965459Y-70694352D01*
X62965452Y-70694358D01*
X62756858Y-70902952D01*
X62756852Y-70902959D01*
X62577261Y-71137006D01*
X62429758Y-71392489D01*
X62429754Y-71392499D01*
X62316864Y-71665038D01*
X62316861Y-71665048D01*
X62266720Y-71852180D01*
X62240508Y-71950004D01*
X62240506Y-71950015D01*
X62202000Y-72242486D01*
X25500500Y-72242486D01*
X25500500Y-69724038D01*
X57772000Y-69724038D01*
X57772000Y-69975961D01*
X57811410Y-70224785D01*
X57889260Y-70464383D01*
X58003632Y-70688848D01*
X58151701Y-70892649D01*
X58151705Y-70892654D01*
X58329845Y-71070794D01*
X58329850Y-71070798D01*
X58436442Y-71148241D01*
X58533655Y-71218870D01*
X58643654Y-71274917D01*
X58758116Y-71333239D01*
X58758118Y-71333239D01*
X58758121Y-71333241D01*
X58997715Y-71411090D01*
X59246538Y-71450500D01*
X59246539Y-71450500D01*
X59498461Y-71450500D01*
X59498462Y-71450500D01*
X59747285Y-71411090D01*
X59986879Y-71333241D01*
X60211345Y-71218870D01*
X60415156Y-71070793D01*
X60593293Y-70892656D01*
X60741370Y-70688845D01*
X60855741Y-70464379D01*
X60933590Y-70224785D01*
X60973000Y-69975962D01*
X60973000Y-69724038D01*
X60933590Y-69475215D01*
X60909089Y-69399812D01*
X60907095Y-69329973D01*
X60939338Y-69273817D01*
X63150316Y-67062839D01*
X63211637Y-67029356D01*
X63281329Y-67034340D01*
X63337262Y-67076212D01*
X63361679Y-67141676D01*
X63360469Y-67169917D01*
X63352000Y-67223389D01*
X63352000Y-67396611D01*
X63379098Y-67567701D01*
X63432627Y-67732445D01*
X63511268Y-67886788D01*
X63613086Y-68026928D01*
X63735572Y-68149414D01*
X63875712Y-68251232D01*
X64030055Y-68329873D01*
X64194799Y-68383402D01*
X64365889Y-68410500D01*
X64365890Y-68410500D01*
X64539110Y-68410500D01*
X64539111Y-68410500D01*
X64710201Y-68383402D01*
X64874945Y-68329873D01*
X65029288Y-68251232D01*
X65169428Y-68149414D01*
X65291914Y-68026928D01*
X65393732Y-67886788D01*
X65472373Y-67732445D01*
X65525902Y-67567701D01*
X65553000Y-67396611D01*
X65553000Y-67223389D01*
X65525902Y-67052299D01*
X65472373Y-66887555D01*
X65393732Y-66733212D01*
X65392226Y-66730755D01*
X65391938Y-66729692D01*
X65391520Y-66728871D01*
X65391692Y-66728783D01*
X65373979Y-66663310D01*
X65395093Y-66596706D01*
X65448863Y-66552091D01*
X65497951Y-66541961D01*
X106269549Y-66541961D01*
X106336588Y-66561646D01*
X106382343Y-66614450D01*
X106392287Y-66683608D01*
X106375957Y-66728859D01*
X106375980Y-66728871D01*
X106375890Y-66729046D01*
X106375274Y-66730755D01*
X106373767Y-66733212D01*
X106295128Y-66887552D01*
X106241597Y-67052302D01*
X106227442Y-67141676D01*
X106214500Y-67223389D01*
X106214500Y-67396611D01*
X106241598Y-67567701D01*
X106295127Y-67732445D01*
X106373768Y-67886788D01*
X106475586Y-68026928D01*
X106598072Y-68149414D01*
X106738212Y-68251232D01*
X106892555Y-68329873D01*
X107057299Y-68383402D01*
X107228389Y-68410500D01*
X107228390Y-68410500D01*
X107401610Y-68410500D01*
X107401611Y-68410500D01*
X107572701Y-68383402D01*
X107737445Y-68329873D01*
X107891788Y-68251232D01*
X108031928Y-68149414D01*
X108154414Y-68026928D01*
X108256232Y-67886788D01*
X108334873Y-67732445D01*
X108350064Y-67685691D01*
X108389498Y-67628020D01*
X108453856Y-67600821D01*
X108522702Y-67612734D01*
X108555674Y-67636331D01*
X119718158Y-78798814D01*
X119751643Y-78860137D01*
X119748409Y-78924811D01*
X119723909Y-79000215D01*
X119684500Y-79249038D01*
X119684500Y-79500961D01*
X119723910Y-79749785D01*
X119801760Y-79989383D01*
X119916132Y-80213848D01*
X120064201Y-80417649D01*
X120064205Y-80417654D01*
X120242345Y-80595794D01*
X120242350Y-80595798D01*
X120420117Y-80724952D01*
X120446155Y-80743870D01*
X120584500Y-80814360D01*
X120670616Y-80858239D01*
X120670618Y-80858239D01*
X120670621Y-80858241D01*
X120910215Y-80936090D01*
X121159038Y-80975500D01*
X121159039Y-80975500D01*
X121410961Y-80975500D01*
X121410962Y-80975500D01*
X121659785Y-80936090D01*
X121899379Y-80858241D01*
X122123845Y-80743870D01*
X122327656Y-80595793D01*
X122505793Y-80417656D01*
X122653870Y-80213845D01*
X122689863Y-80143205D01*
X122737838Y-80092409D01*
X122800348Y-80075500D01*
X124722449Y-80075500D01*
X124789488Y-80095185D01*
X124835243Y-80147989D01*
X124845187Y-80217147D01*
X124816162Y-80280703D01*
X124810130Y-80287181D01*
X124669358Y-80427952D01*
X124669352Y-80427959D01*
X124489761Y-80662006D01*
X124342258Y-80917489D01*
X124342254Y-80917499D01*
X124229364Y-81190038D01*
X124229361Y-81190048D01*
X124160851Y-81445735D01*
X124153008Y-81475004D01*
X124153006Y-81475015D01*
X124114500Y-81767486D01*
X124114500Y-82062513D01*
X124136790Y-82231817D01*
X124153007Y-82354993D01*
X124229361Y-82639951D01*
X124229364Y-82639961D01*
X124342254Y-82912500D01*
X124342258Y-82912510D01*
X124489761Y-83167993D01*
X124669352Y-83402040D01*
X124669358Y-83402047D01*
X124877952Y-83610641D01*
X124877959Y-83610647D01*
X125112006Y-83790238D01*
X125367489Y-83937741D01*
X125367490Y-83937741D01*
X125367493Y-83937743D01*
X125640048Y-84050639D01*
X125925007Y-84126993D01*
X126217494Y-84165500D01*
X126217501Y-84165500D01*
X126512499Y-84165500D01*
X126512506Y-84165500D01*
X126804993Y-84126993D01*
X127089952Y-84050639D01*
X127362507Y-83937743D01*
X127617994Y-83790238D01*
X127852042Y-83610646D01*
X128060646Y-83402042D01*
X128240238Y-83167994D01*
X128387743Y-82912507D01*
X128500639Y-82639952D01*
X128576993Y-82354993D01*
X128615500Y-82062506D01*
X128615500Y-81767494D01*
X128576993Y-81475007D01*
X128500639Y-81190048D01*
X128387743Y-80917493D01*
X128372070Y-80890347D01*
X128240238Y-80662006D01*
X128060647Y-80427959D01*
X128060641Y-80427952D01*
X127919870Y-80287181D01*
X127886385Y-80225858D01*
X127891369Y-80156166D01*
X127933241Y-80100233D01*
X127998705Y-80075816D01*
X128007551Y-80075500D01*
X148344652Y-80075500D01*
X148411691Y-80095185D01*
X148455137Y-80143205D01*
X148491132Y-80213848D01*
X148639201Y-80417649D01*
X148639205Y-80417654D01*
X148817345Y-80595794D01*
X148817350Y-80595798D01*
X148995117Y-80724952D01*
X149021155Y-80743870D01*
X149159500Y-80814360D01*
X149245616Y-80858239D01*
X149245618Y-80858239D01*
X149245621Y-80858241D01*
X149485215Y-80936090D01*
X149734038Y-80975500D01*
X149734039Y-80975500D01*
X149985961Y-80975500D01*
X149985962Y-80975500D01*
X150234785Y-80936090D01*
X150474379Y-80858241D01*
X150698845Y-80743870D01*
X150902656Y-80595793D01*
X151080793Y-80417656D01*
X151228870Y-80213845D01*
X151264863Y-80143205D01*
X151312838Y-80092409D01*
X151375348Y-80075500D01*
X153297449Y-80075500D01*
X153364488Y-80095185D01*
X153410243Y-80147989D01*
X153420187Y-80217147D01*
X153391162Y-80280703D01*
X153385130Y-80287181D01*
X153244358Y-80427952D01*
X153244352Y-80427959D01*
X153064761Y-80662006D01*
X152917258Y-80917489D01*
X152917254Y-80917499D01*
X152804364Y-81190038D01*
X152804361Y-81190048D01*
X152735851Y-81445735D01*
X152728008Y-81475004D01*
X152728006Y-81475015D01*
X152689500Y-81767486D01*
X152689500Y-82062513D01*
X152711790Y-82231817D01*
X152728007Y-82354993D01*
X152804361Y-82639951D01*
X152804364Y-82639961D01*
X152917254Y-82912500D01*
X152917258Y-82912510D01*
X153064761Y-83167993D01*
X153244352Y-83402040D01*
X153244358Y-83402047D01*
X153452952Y-83610641D01*
X153452959Y-83610647D01*
X153687006Y-83790238D01*
X153942489Y-83937741D01*
X153942490Y-83937741D01*
X153942493Y-83937743D01*
X154215048Y-84050639D01*
X154500007Y-84126993D01*
X154792494Y-84165500D01*
X154792501Y-84165500D01*
X155087499Y-84165500D01*
X155087506Y-84165500D01*
X155379993Y-84126993D01*
X155664952Y-84050639D01*
X155937507Y-83937743D01*
X156192994Y-83790238D01*
X156427042Y-83610646D01*
X156635646Y-83402042D01*
X156815238Y-83167994D01*
X156962743Y-82912507D01*
X157075639Y-82639952D01*
X157151993Y-82354993D01*
X157190500Y-82062506D01*
X157190500Y-81767494D01*
X157151993Y-81475007D01*
X157075639Y-81190048D01*
X156962743Y-80917493D01*
X156947070Y-80890347D01*
X156815238Y-80662006D01*
X156635647Y-80427959D01*
X156635641Y-80427952D01*
X156494870Y-80287181D01*
X156461385Y-80225858D01*
X156466369Y-80156166D01*
X156508241Y-80100233D01*
X156573705Y-80075816D01*
X156582551Y-80075500D01*
X180683481Y-80075500D01*
X180750520Y-80095185D01*
X180771162Y-80111819D01*
X181034681Y-80375337D01*
X181068166Y-80436660D01*
X181071000Y-80463018D01*
X181071000Y-91763222D01*
X181051315Y-91830261D01*
X180998511Y-91876016D01*
X180981113Y-91882437D01*
X180898456Y-91906088D01*
X180856414Y-91928049D01*
X180718093Y-92000302D01*
X180718091Y-92000303D01*
X180718090Y-92000304D01*
X180579861Y-92113015D01*
X180515464Y-92140124D01*
X180446635Y-92128115D01*
X180423139Y-92113015D01*
X180284909Y-92000304D01*
X180284910Y-92000304D01*
X180284907Y-92000302D01*
X180104549Y-91906091D01*
X180104548Y-91906090D01*
X180104543Y-91906088D01*
X180021887Y-91882437D01*
X179962850Y-91845070D01*
X179933387Y-91781716D01*
X179932000Y-91763222D01*
X179932000Y-85012447D01*
X179905081Y-84877120D01*
X179905080Y-84877119D01*
X179905080Y-84877115D01*
X179905078Y-84877110D01*
X179852278Y-84749638D01*
X179852274Y-84749631D01*
X179819446Y-84700500D01*
X179775614Y-84634900D01*
X179775612Y-84634897D01*
X177216602Y-82075887D01*
X177101864Y-81999222D01*
X176974389Y-81946421D01*
X176974379Y-81946418D01*
X176839053Y-81919500D01*
X176839051Y-81919500D01*
X176839050Y-81919500D01*
X164099051Y-81919500D01*
X163961063Y-81919500D01*
X163961061Y-81919500D01*
X163825734Y-81946418D01*
X163825724Y-81946421D01*
X163698249Y-81999222D01*
X163583511Y-82075887D01*
X149315887Y-96343511D01*
X149255834Y-96433389D01*
X149255833Y-96433391D01*
X149239226Y-96458243D01*
X149239221Y-96458252D01*
X149186421Y-96585724D01*
X149186418Y-96585734D01*
X149159500Y-96721061D01*
X149159500Y-96909651D01*
X149139815Y-96976690D01*
X149091796Y-97020135D01*
X149021153Y-97056130D01*
X148817350Y-97204201D01*
X148817345Y-97204205D01*
X148639205Y-97382345D01*
X148639201Y-97382350D01*
X148491132Y-97586151D01*
X148455137Y-97656795D01*
X148407162Y-97707591D01*
X148344652Y-97724500D01*
X130451411Y-97724500D01*
X130384372Y-97704815D01*
X130363730Y-97688181D01*
X118357397Y-85681847D01*
X118274588Y-85599038D01*
X122224500Y-85599038D01*
X122224500Y-85850961D01*
X122263910Y-86099785D01*
X122341760Y-86339383D01*
X122456132Y-86563848D01*
X122604201Y-86767649D01*
X122604205Y-86767654D01*
X122782345Y-86945794D01*
X122782350Y-86945798D01*
X122802586Y-86960500D01*
X122986155Y-87093870D01*
X123129184Y-87166747D01*
X123210616Y-87208239D01*
X123210618Y-87208239D01*
X123210621Y-87208241D01*
X123450215Y-87286090D01*
X123699038Y-87325500D01*
X123699039Y-87325500D01*
X123950961Y-87325500D01*
X123950962Y-87325500D01*
X124199785Y-87286090D01*
X124439379Y-87208241D01*
X124663845Y-87093870D01*
X124867656Y-86945793D01*
X125045793Y-86767656D01*
X125050380Y-86761341D01*
X125105708Y-86718675D01*
X125175322Y-86712693D01*
X125237118Y-86745296D01*
X125271477Y-86806134D01*
X125273174Y-86853621D01*
X125264500Y-86908388D01*
X125264500Y-87081610D01*
X125291199Y-87250186D01*
X125291598Y-87252701D01*
X125344904Y-87416760D01*
X125345128Y-87417447D01*
X125403052Y-87531130D01*
X125423768Y-87571788D01*
X125525586Y-87711928D01*
X125648072Y-87834414D01*
X125788212Y-87936232D01*
X125942555Y-88014873D01*
X126107299Y-88068402D01*
X126278389Y-88095500D01*
X126278390Y-88095500D01*
X126451610Y-88095500D01*
X126451611Y-88095500D01*
X126622701Y-88068402D01*
X126787445Y-88014873D01*
X126941788Y-87936232D01*
X127081928Y-87834414D01*
X127204414Y-87711928D01*
X127306232Y-87571788D01*
X127384873Y-87417445D01*
X127438402Y-87252701D01*
X127465500Y-87081611D01*
X127465500Y-86908389D01*
X127438402Y-86737299D01*
X127384873Y-86572555D01*
X127306232Y-86418212D01*
X127204414Y-86278072D01*
X127081928Y-86155586D01*
X126941788Y-86053768D01*
X126787445Y-85975127D01*
X126622701Y-85921598D01*
X126622699Y-85921597D01*
X126622698Y-85921597D01*
X126491271Y-85900781D01*
X126451611Y-85894500D01*
X126278389Y-85894500D01*
X126238728Y-85900781D01*
X126107302Y-85921597D01*
X125942552Y-85975128D01*
X125788211Y-86053768D01*
X125724875Y-86099785D01*
X125648072Y-86155586D01*
X125648070Y-86155588D01*
X125648068Y-86155589D01*
X125596139Y-86207518D01*
X125534816Y-86241002D01*
X125465124Y-86236017D01*
X125409191Y-86194146D01*
X125384775Y-86128681D01*
X125385986Y-86100438D01*
X125386088Y-86099788D01*
X125386090Y-86099785D01*
X125425500Y-85850962D01*
X125425500Y-85599038D01*
X150799500Y-85599038D01*
X150799500Y-85850961D01*
X150838910Y-86099785D01*
X150916760Y-86339383D01*
X151031132Y-86563848D01*
X151179201Y-86767649D01*
X151179205Y-86767654D01*
X151357345Y-86945794D01*
X151357350Y-86945798D01*
X151377586Y-86960500D01*
X151561155Y-87093870D01*
X151704184Y-87166747D01*
X151785616Y-87208239D01*
X151785618Y-87208239D01*
X151785621Y-87208241D01*
X152025215Y-87286090D01*
X152274038Y-87325500D01*
X152274039Y-87325500D01*
X152525961Y-87325500D01*
X152525962Y-87325500D01*
X152774785Y-87286090D01*
X153014379Y-87208241D01*
X153238845Y-87093870D01*
X153442656Y-86945793D01*
X153620793Y-86767656D01*
X153625380Y-86761341D01*
X153680708Y-86718675D01*
X153750322Y-86712693D01*
X153812118Y-86745296D01*
X153846477Y-86806134D01*
X153848174Y-86853621D01*
X153839500Y-86908388D01*
X153839500Y-87081610D01*
X153866199Y-87250186D01*
X153866598Y-87252701D01*
X153919904Y-87416760D01*
X153920128Y-87417447D01*
X153978052Y-87531130D01*
X153998768Y-87571788D01*
X154100586Y-87711928D01*
X154223072Y-87834414D01*
X154363212Y-87936232D01*
X154517555Y-88014873D01*
X154682299Y-88068402D01*
X154853389Y-88095500D01*
X154853390Y-88095500D01*
X155026610Y-88095500D01*
X155026611Y-88095500D01*
X155197701Y-88068402D01*
X155362445Y-88014873D01*
X155516788Y-87936232D01*
X155656928Y-87834414D01*
X155779414Y-87711928D01*
X155881232Y-87571788D01*
X155959873Y-87417445D01*
X156013402Y-87252701D01*
X156040500Y-87081611D01*
X156040500Y-86908389D01*
X156013402Y-86737299D01*
X155959873Y-86572555D01*
X155881232Y-86418212D01*
X155779414Y-86278072D01*
X155656928Y-86155586D01*
X155516788Y-86053768D01*
X155362445Y-85975127D01*
X155197701Y-85921598D01*
X155197699Y-85921597D01*
X155197698Y-85921597D01*
X155066271Y-85900781D01*
X155026611Y-85894500D01*
X154853389Y-85894500D01*
X154813728Y-85900781D01*
X154682302Y-85921597D01*
X154517552Y-85975128D01*
X154363211Y-86053768D01*
X154299875Y-86099785D01*
X154223072Y-86155586D01*
X154223070Y-86155588D01*
X154223068Y-86155589D01*
X154171139Y-86207518D01*
X154109816Y-86241002D01*
X154040124Y-86236017D01*
X153984191Y-86194146D01*
X153959775Y-86128681D01*
X153960986Y-86100438D01*
X153961088Y-86099788D01*
X153961090Y-86099785D01*
X154000500Y-85850962D01*
X154000500Y-85599038D01*
X153961090Y-85350215D01*
X153883241Y-85110621D01*
X153883239Y-85110618D01*
X153883239Y-85110616D01*
X153833219Y-85012447D01*
X153768870Y-84886155D01*
X153669685Y-84749638D01*
X153620798Y-84682350D01*
X153620794Y-84682345D01*
X153442654Y-84504205D01*
X153442649Y-84504201D01*
X153238848Y-84356132D01*
X153238847Y-84356131D01*
X153238845Y-84356130D01*
X153157473Y-84314669D01*
X153014383Y-84241760D01*
X152774785Y-84163910D01*
X152525962Y-84124500D01*
X152274038Y-84124500D01*
X152149626Y-84144205D01*
X152025214Y-84163910D01*
X151785616Y-84241760D01*
X151561151Y-84356132D01*
X151357350Y-84504201D01*
X151357345Y-84504205D01*
X151179205Y-84682345D01*
X151179201Y-84682350D01*
X151031132Y-84886151D01*
X150916760Y-85110616D01*
X150838910Y-85350214D01*
X150799500Y-85599038D01*
X125425500Y-85599038D01*
X125386090Y-85350215D01*
X125308241Y-85110621D01*
X125308239Y-85110618D01*
X125308239Y-85110616D01*
X125258219Y-85012447D01*
X125193870Y-84886155D01*
X125094685Y-84749638D01*
X125045798Y-84682350D01*
X125045794Y-84682345D01*
X124867654Y-84504205D01*
X124867649Y-84504201D01*
X124663848Y-84356132D01*
X124663847Y-84356131D01*
X124663845Y-84356130D01*
X124582473Y-84314669D01*
X124439383Y-84241760D01*
X124199785Y-84163910D01*
X123950962Y-84124500D01*
X123699038Y-84124500D01*
X123574626Y-84144205D01*
X123450214Y-84163910D01*
X123210616Y-84241760D01*
X122986151Y-84356132D01*
X122782350Y-84504201D01*
X122782345Y-84504205D01*
X122604205Y-84682345D01*
X122604201Y-84682350D01*
X122456132Y-84886151D01*
X122341760Y-85110616D01*
X122263910Y-85350214D01*
X122224500Y-85599038D01*
X118274588Y-85599038D01*
X108081437Y-75405887D01*
X107966699Y-75329222D01*
X107839224Y-75276421D01*
X107839214Y-75276418D01*
X107703888Y-75249500D01*
X107703886Y-75249500D01*
X107703885Y-75249500D01*
X107120885Y-75249500D01*
X107053846Y-75229815D01*
X107033204Y-75213181D01*
X106583440Y-74763417D01*
X106549955Y-74702094D01*
X106554939Y-74632402D01*
X106596811Y-74576469D01*
X106662275Y-74552052D01*
X106703210Y-74555960D01*
X106875007Y-74601993D01*
X107167494Y-74640500D01*
X107167501Y-74640500D01*
X107462499Y-74640500D01*
X107462506Y-74640500D01*
X107754993Y-74601993D01*
X108039952Y-74525639D01*
X108312507Y-74412743D01*
X108567994Y-74265238D01*
X108802042Y-74085646D01*
X109010646Y-73877042D01*
X109190238Y-73642994D01*
X109337743Y-73387507D01*
X109450639Y-73114952D01*
X109526993Y-72829993D01*
X109565500Y-72537506D01*
X109565500Y-72242494D01*
X109526993Y-71950007D01*
X109450639Y-71665048D01*
X109337743Y-71392493D01*
X109322070Y-71365347D01*
X109190238Y-71137006D01*
X109010647Y-70902959D01*
X109010641Y-70902952D01*
X108802047Y-70694358D01*
X108802040Y-70694352D01*
X108567993Y-70514761D01*
X108312510Y-70367258D01*
X108312500Y-70367254D01*
X108039961Y-70254364D01*
X108039954Y-70254362D01*
X108039952Y-70254361D01*
X107754993Y-70178007D01*
X107706113Y-70171571D01*
X107462513Y-70139500D01*
X107462506Y-70139500D01*
X107167494Y-70139500D01*
X107167486Y-70139500D01*
X106889085Y-70176153D01*
X106875007Y-70178007D01*
X106700428Y-70224785D01*
X106590048Y-70254361D01*
X106590038Y-70254364D01*
X106317499Y-70367254D01*
X106317489Y-70367258D01*
X106062006Y-70514761D01*
X105827959Y-70694352D01*
X105827952Y-70694358D01*
X105619358Y-70902952D01*
X105619352Y-70902959D01*
X105439761Y-71137006D01*
X105292258Y-71392489D01*
X105292254Y-71392499D01*
X105179364Y-71665038D01*
X105179361Y-71665048D01*
X105129220Y-71852180D01*
X105103008Y-71950004D01*
X105103006Y-71950015D01*
X105064500Y-72242486D01*
X105064500Y-72537513D01*
X105096571Y-72781113D01*
X105103007Y-72829993D01*
X105103008Y-72829995D01*
X105149038Y-73001785D01*
X105147375Y-73071635D01*
X105108212Y-73129497D01*
X105043983Y-73157001D01*
X104975081Y-73145414D01*
X104941582Y-73121559D01*
X103156263Y-71336240D01*
X103122778Y-71274917D01*
X103127762Y-71205225D01*
X103169634Y-71149292D01*
X103171059Y-71148241D01*
X103277649Y-71070798D01*
X103277647Y-71070798D01*
X103277656Y-71070793D01*
X103455793Y-70892656D01*
X103603870Y-70688845D01*
X103718241Y-70464379D01*
X103796090Y-70224785D01*
X103835500Y-69975962D01*
X103835500Y-69724038D01*
X103796090Y-69475215D01*
X103718241Y-69235621D01*
X103718239Y-69235618D01*
X103718239Y-69235616D01*
X103665745Y-69132591D01*
X103603870Y-69011155D01*
X103584952Y-68985117D01*
X103455798Y-68807350D01*
X103455794Y-68807345D01*
X103277654Y-68629205D01*
X103277649Y-68629201D01*
X103073848Y-68481132D01*
X103073847Y-68481131D01*
X103073845Y-68481130D01*
X103003747Y-68445413D01*
X102849383Y-68366760D01*
X102609785Y-68288910D01*
X102360962Y-68249500D01*
X102109038Y-68249500D01*
X101984626Y-68269205D01*
X101860214Y-68288910D01*
X101620616Y-68366760D01*
X101396151Y-68481132D01*
X101192350Y-68629201D01*
X101192345Y-68629205D01*
X101014205Y-68807345D01*
X101014201Y-68807350D01*
X100866132Y-69011151D01*
X100830137Y-69081795D01*
X100782162Y-69132591D01*
X100719652Y-69149500D01*
X78353503Y-69149500D01*
X78256260Y-69168843D01*
X78256258Y-69168843D01*
X78245091Y-69171065D01*
X78218171Y-69176420D01*
X78165366Y-69198292D01*
X78090689Y-69229225D01*
X78090688Y-69229226D01*
X78069699Y-69243249D01*
X78069692Y-69243253D01*
X77975957Y-69305886D01*
X77975953Y-69305889D01*
X59948683Y-87333158D01*
X59887360Y-87366643D01*
X59822684Y-87363408D01*
X59747287Y-87338910D01*
X59581403Y-87312636D01*
X59498462Y-87299500D01*
X59246538Y-87299500D01*
X59122126Y-87319205D01*
X58997714Y-87338910D01*
X58758116Y-87416760D01*
X58533651Y-87531132D01*
X58329850Y-87679201D01*
X58329845Y-87679205D01*
X58151705Y-87857345D01*
X58151701Y-87857350D01*
X58003632Y-88061151D01*
X57889260Y-88285616D01*
X57811410Y-88525214D01*
X57772000Y-88774038D01*
X57772000Y-89025961D01*
X57811410Y-89274785D01*
X57889260Y-89514383D01*
X58003632Y-89738848D01*
X58151701Y-89942649D01*
X58151705Y-89942654D01*
X58329845Y-90120794D01*
X58329850Y-90120798D01*
X58507617Y-90249952D01*
X58533655Y-90268870D01*
X58672000Y-90339360D01*
X58758116Y-90383239D01*
X58758118Y-90383239D01*
X58758121Y-90383241D01*
X58997715Y-90461090D01*
X59246538Y-90500500D01*
X59246539Y-90500500D01*
X59498461Y-90500500D01*
X59498462Y-90500500D01*
X59747285Y-90461090D01*
X59986879Y-90383241D01*
X60211345Y-90268870D01*
X60415156Y-90120793D01*
X60593293Y-89942656D01*
X60741370Y-89738845D01*
X60855741Y-89514379D01*
X60933590Y-89274785D01*
X60973000Y-89025962D01*
X60973000Y-88774038D01*
X60933590Y-88525215D01*
X60909089Y-88449812D01*
X60907095Y-88379973D01*
X60939338Y-88323817D01*
X63150316Y-86112838D01*
X63211637Y-86079355D01*
X63281329Y-86084339D01*
X63337262Y-86126211D01*
X63361679Y-86191675D01*
X63360469Y-86219917D01*
X63352000Y-86273389D01*
X63352000Y-86273393D01*
X63352000Y-86446610D01*
X63371947Y-86572555D01*
X63379098Y-86617701D01*
X63432627Y-86782445D01*
X63511268Y-86936788D01*
X63613086Y-87076928D01*
X63735572Y-87199414D01*
X63875712Y-87301232D01*
X64030055Y-87379873D01*
X64194799Y-87433402D01*
X64365889Y-87460500D01*
X64365890Y-87460500D01*
X64539110Y-87460500D01*
X64539111Y-87460500D01*
X64710201Y-87433402D01*
X64874945Y-87379873D01*
X65029288Y-87301232D01*
X65169428Y-87199414D01*
X65291914Y-87076928D01*
X65393732Y-86936788D01*
X65472373Y-86782445D01*
X65525902Y-86617701D01*
X65553000Y-86446611D01*
X65553000Y-86273389D01*
X65525902Y-86102299D01*
X65472373Y-85937555D01*
X65393732Y-85783212D01*
X65291914Y-85643072D01*
X65169428Y-85520586D01*
X65029288Y-85418768D01*
X64874945Y-85340127D01*
X64710201Y-85286598D01*
X64710199Y-85286597D01*
X64710198Y-85286597D01*
X64578771Y-85265781D01*
X64539111Y-85259500D01*
X64365889Y-85259500D01*
X64320190Y-85266737D01*
X64312417Y-85267969D01*
X64243124Y-85259013D01*
X64189672Y-85214016D01*
X64169034Y-85147264D01*
X64187760Y-85079950D01*
X64205336Y-85057819D01*
X72514767Y-76748389D01*
X87164500Y-76748389D01*
X87164500Y-76921610D01*
X87184447Y-77047555D01*
X87191598Y-77092701D01*
X87245127Y-77257445D01*
X87323768Y-77411788D01*
X87425586Y-77551928D01*
X87548072Y-77674414D01*
X87688212Y-77776232D01*
X87842555Y-77854873D01*
X88007299Y-77908402D01*
X88178389Y-77935500D01*
X88178390Y-77935500D01*
X88351610Y-77935500D01*
X88351611Y-77935500D01*
X88522701Y-77908402D01*
X88687445Y-77854873D01*
X88841788Y-77776232D01*
X88981928Y-77674414D01*
X89104414Y-77551928D01*
X89206232Y-77411788D01*
X89284873Y-77257445D01*
X89338402Y-77092701D01*
X89365500Y-76921611D01*
X89365500Y-76748389D01*
X89338402Y-76577299D01*
X89284873Y-76412555D01*
X89206232Y-76258212D01*
X89104414Y-76118072D01*
X88981928Y-75995586D01*
X88841788Y-75893768D01*
X88687445Y-75815127D01*
X88522701Y-75761598D01*
X88522699Y-75761597D01*
X88522698Y-75761597D01*
X88391271Y-75740781D01*
X88351611Y-75734500D01*
X88178389Y-75734500D01*
X88138728Y-75740781D01*
X88007302Y-75761597D01*
X87842552Y-75815128D01*
X87688211Y-75893768D01*
X87608256Y-75951859D01*
X87548072Y-75995586D01*
X87548070Y-75995588D01*
X87548069Y-75995588D01*
X87425588Y-76118069D01*
X87425588Y-76118070D01*
X87425586Y-76118072D01*
X87396424Y-76158210D01*
X87323768Y-76258211D01*
X87245128Y-76412552D01*
X87191597Y-76577302D01*
X87164500Y-76748389D01*
X72514767Y-76748389D01*
X78676337Y-70586819D01*
X78737660Y-70553334D01*
X78764018Y-70550500D01*
X100719652Y-70550500D01*
X100786691Y-70570185D01*
X100830137Y-70618205D01*
X100866132Y-70688848D01*
X101014201Y-70892649D01*
X101014205Y-70892654D01*
X101192345Y-71070794D01*
X101192350Y-71070798D01*
X101396153Y-71218869D01*
X101466794Y-71254862D01*
X101517590Y-71302836D01*
X101534500Y-71365347D01*
X101534500Y-71474628D01*
X101534500Y-71474630D01*
X101534499Y-71474630D01*
X101561418Y-71609956D01*
X101561421Y-71609966D01*
X101614222Y-71737441D01*
X101690887Y-71852179D01*
X101690888Y-71852180D01*
X104315554Y-74476845D01*
X104349039Y-74538168D01*
X104344055Y-74607860D01*
X104302183Y-74663793D01*
X104266192Y-74682456D01*
X104242461Y-74690167D01*
X104160616Y-74716760D01*
X103936151Y-74831132D01*
X103732350Y-74979201D01*
X103732345Y-74979205D01*
X103554205Y-75157345D01*
X103554201Y-75157350D01*
X103406132Y-75361151D01*
X103291760Y-75585616D01*
X103217187Y-75815128D01*
X103213910Y-75825215D01*
X103174500Y-76074038D01*
X103174500Y-76325962D01*
X103187450Y-76407726D01*
X103213910Y-76574785D01*
X103291760Y-76814383D01*
X103331926Y-76893212D01*
X103393210Y-77013489D01*
X103406132Y-77038848D01*
X103554201Y-77242649D01*
X103554205Y-77242654D01*
X103732345Y-77420794D01*
X103732350Y-77420798D01*
X103909818Y-77549735D01*
X103936155Y-77568870D01*
X104079184Y-77641747D01*
X104160616Y-77683239D01*
X104160618Y-77683239D01*
X104160621Y-77683241D01*
X104400215Y-77761090D01*
X104649038Y-77800500D01*
X104649039Y-77800500D01*
X104900961Y-77800500D01*
X104900962Y-77800500D01*
X105149785Y-77761090D01*
X105389379Y-77683241D01*
X105613845Y-77568870D01*
X105817656Y-77420793D01*
X105995793Y-77242656D01*
X106000380Y-77236341D01*
X106055708Y-77193675D01*
X106125322Y-77187693D01*
X106187118Y-77220296D01*
X106221477Y-77281134D01*
X106223174Y-77328621D01*
X106214500Y-77383389D01*
X106214500Y-77556611D01*
X106218284Y-77580500D01*
X106233157Y-77674411D01*
X106241598Y-77727701D01*
X106295127Y-77892445D01*
X106373768Y-78046788D01*
X106475586Y-78186928D01*
X106598072Y-78309414D01*
X106738212Y-78411232D01*
X106780898Y-78432981D01*
X106794702Y-78440015D01*
X106845498Y-78487990D01*
X106862293Y-78555811D01*
X106839756Y-78621946D01*
X106785040Y-78665397D01*
X106738407Y-78674500D01*
X84700348Y-78674500D01*
X84633309Y-78654815D01*
X84589863Y-78606795D01*
X84581869Y-78591108D01*
X84553870Y-78536155D01*
X84518876Y-78487990D01*
X84405798Y-78332350D01*
X84405794Y-78332345D01*
X84227654Y-78154205D01*
X84227649Y-78154201D01*
X84023848Y-78006132D01*
X84023847Y-78006131D01*
X84023845Y-78006130D01*
X83953747Y-77970413D01*
X83799383Y-77891760D01*
X83559785Y-77813910D01*
X83534896Y-77809968D01*
X83310962Y-77774500D01*
X83059038Y-77774500D01*
X82934626Y-77794205D01*
X82810214Y-77813910D01*
X82570616Y-77891760D01*
X82346151Y-78006132D01*
X82142350Y-78154201D01*
X82142345Y-78154205D01*
X81964205Y-78332345D01*
X81964201Y-78332350D01*
X81816132Y-78536151D01*
X81701760Y-78760616D01*
X81623910Y-79000214D01*
X81584500Y-79249038D01*
X81584500Y-79500961D01*
X81623910Y-79749785D01*
X81701760Y-79989383D01*
X81816132Y-80213848D01*
X81964201Y-80417649D01*
X81964205Y-80417654D01*
X82142345Y-80595794D01*
X82142350Y-80595798D01*
X82346153Y-80743869D01*
X82416794Y-80779862D01*
X82467590Y-80827836D01*
X82484500Y-80890347D01*
X82484500Y-83795980D01*
X82464815Y-83863019D01*
X82448181Y-83883661D01*
X59948683Y-106383158D01*
X59887360Y-106416643D01*
X59822684Y-106413408D01*
X59747287Y-106388910D01*
X59581403Y-106362636D01*
X59498462Y-106349500D01*
X59246538Y-106349500D01*
X59122126Y-106369205D01*
X58997714Y-106388910D01*
X58758116Y-106466760D01*
X58533651Y-106581132D01*
X58329850Y-106729201D01*
X58329845Y-106729205D01*
X58151705Y-106907345D01*
X58151701Y-106907350D01*
X58003632Y-107111151D01*
X57889260Y-107335616D01*
X57859390Y-107427547D01*
X57811410Y-107575215D01*
X57772000Y-107824038D01*
X57772000Y-108075962D01*
X57786151Y-108165305D01*
X57811410Y-108324785D01*
X57889260Y-108564383D01*
X58003632Y-108788848D01*
X58151701Y-108992649D01*
X58151705Y-108992654D01*
X58329845Y-109170794D01*
X58329850Y-109170798D01*
X58507617Y-109299952D01*
X58533655Y-109318870D01*
X58676684Y-109391747D01*
X58758116Y-109433239D01*
X58758118Y-109433239D01*
X58758121Y-109433241D01*
X58997715Y-109511090D01*
X59246538Y-109550500D01*
X59246539Y-109550500D01*
X59498461Y-109550500D01*
X59498462Y-109550500D01*
X59747285Y-109511090D01*
X59986879Y-109433241D01*
X60211345Y-109318870D01*
X60415156Y-109170793D01*
X60593293Y-108992656D01*
X60741370Y-108788845D01*
X60855741Y-108564379D01*
X60933590Y-108324785D01*
X60973000Y-108075962D01*
X60973000Y-107824038D01*
X60933590Y-107575215D01*
X60909089Y-107499812D01*
X60907095Y-107429973D01*
X60939338Y-107373817D01*
X63150316Y-105162839D01*
X63211637Y-105129356D01*
X63281329Y-105134340D01*
X63337262Y-105176212D01*
X63361679Y-105241676D01*
X63360469Y-105269917D01*
X63352000Y-105323389D01*
X63352000Y-105323393D01*
X63352000Y-105496610D01*
X63371947Y-105622555D01*
X63379098Y-105667701D01*
X63432627Y-105832445D01*
X63511268Y-105986788D01*
X63613086Y-106126928D01*
X63735572Y-106249414D01*
X63875712Y-106351232D01*
X64030055Y-106429873D01*
X64194799Y-106483402D01*
X64365889Y-106510500D01*
X64365890Y-106510500D01*
X64539110Y-106510500D01*
X64539111Y-106510500D01*
X64710201Y-106483402D01*
X64874945Y-106429873D01*
X65029288Y-106351232D01*
X65169428Y-106249414D01*
X65291914Y-106126928D01*
X65393732Y-105986788D01*
X65472373Y-105832445D01*
X65525902Y-105667701D01*
X65553000Y-105496611D01*
X65553000Y-105323389D01*
X65525902Y-105152299D01*
X65472373Y-104987555D01*
X65393732Y-104833212D01*
X65291914Y-104693072D01*
X65169428Y-104570586D01*
X65029288Y-104468768D01*
X64874945Y-104390127D01*
X64710201Y-104336598D01*
X64710199Y-104336597D01*
X64710198Y-104336597D01*
X64578771Y-104315781D01*
X64539111Y-104309500D01*
X64365889Y-104309500D01*
X64312418Y-104317969D01*
X64243125Y-104309013D01*
X64189674Y-104264016D01*
X64169035Y-104197264D01*
X64187761Y-104129951D01*
X64205337Y-104107818D01*
X78126150Y-90187006D01*
X82714119Y-85599038D01*
X84124500Y-85599038D01*
X84124500Y-85850961D01*
X84163910Y-86099785D01*
X84241760Y-86339383D01*
X84356132Y-86563848D01*
X84504201Y-86767649D01*
X84504205Y-86767654D01*
X84682345Y-86945794D01*
X84682350Y-86945798D01*
X84702586Y-86960500D01*
X84886155Y-87093870D01*
X85029184Y-87166747D01*
X85110616Y-87208239D01*
X85110618Y-87208239D01*
X85110621Y-87208241D01*
X85350215Y-87286090D01*
X85599038Y-87325500D01*
X85599039Y-87325500D01*
X85850961Y-87325500D01*
X85850962Y-87325500D01*
X86099785Y-87286090D01*
X86339379Y-87208241D01*
X86563845Y-87093870D01*
X86767656Y-86945793D01*
X86945793Y-86767656D01*
X86950380Y-86761341D01*
X87005708Y-86718675D01*
X87075322Y-86712693D01*
X87137118Y-86745296D01*
X87171477Y-86806134D01*
X87173174Y-86853621D01*
X87164500Y-86908388D01*
X87164500Y-87081610D01*
X87191199Y-87250186D01*
X87191598Y-87252701D01*
X87244904Y-87416760D01*
X87245128Y-87417447D01*
X87303052Y-87531130D01*
X87323768Y-87571788D01*
X87425586Y-87711928D01*
X87548072Y-87834414D01*
X87688212Y-87936232D01*
X87842555Y-88014873D01*
X88007299Y-88068402D01*
X88178389Y-88095500D01*
X88178390Y-88095500D01*
X88351610Y-88095500D01*
X88351611Y-88095500D01*
X88522701Y-88068402D01*
X88687445Y-88014873D01*
X88841788Y-87936232D01*
X88981928Y-87834414D01*
X89104414Y-87711928D01*
X89206232Y-87571788D01*
X89284873Y-87417445D01*
X89338402Y-87252701D01*
X89365500Y-87081611D01*
X89365500Y-86908389D01*
X89338402Y-86737299D01*
X89284873Y-86572555D01*
X89206232Y-86418212D01*
X89104414Y-86278072D01*
X88981928Y-86155586D01*
X88841788Y-86053768D01*
X88687445Y-85975127D01*
X88522701Y-85921598D01*
X88522699Y-85921597D01*
X88522698Y-85921597D01*
X88391271Y-85900781D01*
X88351611Y-85894500D01*
X88178389Y-85894500D01*
X88138728Y-85900781D01*
X88007302Y-85921597D01*
X87842552Y-85975128D01*
X87688211Y-86053768D01*
X87624875Y-86099785D01*
X87548072Y-86155586D01*
X87548070Y-86155588D01*
X87548068Y-86155589D01*
X87496139Y-86207518D01*
X87434816Y-86241002D01*
X87365124Y-86236017D01*
X87309191Y-86194146D01*
X87284775Y-86128681D01*
X87285986Y-86100438D01*
X87286088Y-86099788D01*
X87286090Y-86099785D01*
X87325500Y-85850962D01*
X87325500Y-85599038D01*
X87286090Y-85350215D01*
X87208241Y-85110621D01*
X87208239Y-85110618D01*
X87208239Y-85110616D01*
X87158219Y-85012447D01*
X87093870Y-84886155D01*
X86994685Y-84749638D01*
X86945798Y-84682350D01*
X86945794Y-84682345D01*
X86767654Y-84504205D01*
X86767649Y-84504201D01*
X86563848Y-84356132D01*
X86563847Y-84356131D01*
X86563845Y-84356130D01*
X86482473Y-84314669D01*
X86339383Y-84241760D01*
X86099785Y-84163910D01*
X85850962Y-84124500D01*
X85599038Y-84124500D01*
X85474626Y-84144205D01*
X85350214Y-84163910D01*
X85110616Y-84241760D01*
X84886151Y-84356132D01*
X84682350Y-84504201D01*
X84682345Y-84504205D01*
X84504205Y-84682345D01*
X84504201Y-84682350D01*
X84356132Y-84886151D01*
X84241760Y-85110616D01*
X84163910Y-85350214D01*
X84124500Y-85599038D01*
X82714119Y-85599038D01*
X82806672Y-85506485D01*
X83729107Y-84584049D01*
X83729110Y-84584046D01*
X83729113Y-84584043D01*
X83736105Y-84573580D01*
X83805775Y-84469311D01*
X83856627Y-84346543D01*
X83858580Y-84341829D01*
X83863982Y-84314669D01*
X83885500Y-84206493D01*
X83885500Y-80890347D01*
X83905185Y-80823308D01*
X83953206Y-80779862D01*
X84023845Y-80743870D01*
X84227656Y-80595793D01*
X84405793Y-80417656D01*
X84553870Y-80213845D01*
X84589863Y-80143205D01*
X84637838Y-80092409D01*
X84700348Y-80075500D01*
X86622449Y-80075500D01*
X86689488Y-80095185D01*
X86735243Y-80147989D01*
X86745187Y-80217147D01*
X86716162Y-80280703D01*
X86710130Y-80287181D01*
X86569358Y-80427952D01*
X86569352Y-80427959D01*
X86389761Y-80662006D01*
X86242258Y-80917489D01*
X86242254Y-80917499D01*
X86129364Y-81190038D01*
X86129361Y-81190048D01*
X86060851Y-81445735D01*
X86053008Y-81475004D01*
X86053006Y-81475015D01*
X86014500Y-81767486D01*
X86014500Y-82062513D01*
X86036790Y-82231817D01*
X86053007Y-82354993D01*
X86129361Y-82639951D01*
X86129364Y-82639961D01*
X86242254Y-82912500D01*
X86242258Y-82912510D01*
X86389761Y-83167993D01*
X86569352Y-83402040D01*
X86569358Y-83402047D01*
X86777952Y-83610641D01*
X86777959Y-83610647D01*
X87012006Y-83790238D01*
X87267489Y-83937741D01*
X87267490Y-83937741D01*
X87267493Y-83937743D01*
X87540048Y-84050639D01*
X87825007Y-84126993D01*
X88117494Y-84165500D01*
X88117501Y-84165500D01*
X88412499Y-84165500D01*
X88412506Y-84165500D01*
X88704993Y-84126993D01*
X88989952Y-84050639D01*
X89262507Y-83937743D01*
X89517994Y-83790238D01*
X89752042Y-83610646D01*
X89960646Y-83402042D01*
X90140238Y-83167994D01*
X90287743Y-82912507D01*
X90400639Y-82639952D01*
X90476993Y-82354993D01*
X90515500Y-82062506D01*
X90515500Y-81767494D01*
X90476993Y-81475007D01*
X90400639Y-81190048D01*
X90287743Y-80917493D01*
X90272070Y-80890347D01*
X90140238Y-80662006D01*
X89960647Y-80427959D01*
X89960641Y-80427952D01*
X89819870Y-80287181D01*
X89786385Y-80225858D01*
X89791369Y-80156166D01*
X89833241Y-80100233D01*
X89898705Y-80075816D01*
X89907551Y-80075500D01*
X106658481Y-80075500D01*
X106725520Y-80095185D01*
X106746162Y-80111819D01*
X126040555Y-99406212D01*
X126074040Y-99467535D01*
X126069056Y-99537227D01*
X126027184Y-99593160D01*
X125991195Y-99611822D01*
X125942555Y-99627627D01*
X125942552Y-99627628D01*
X125942550Y-99627629D01*
X125788211Y-99706268D01*
X125708256Y-99764359D01*
X125648072Y-99808086D01*
X125648070Y-99808088D01*
X125648069Y-99808088D01*
X125525588Y-99930569D01*
X125525588Y-99930570D01*
X125525586Y-99930572D01*
X125506991Y-99956166D01*
X125423768Y-100070711D01*
X125345128Y-100225052D01*
X125291597Y-100389802D01*
X125264500Y-100560889D01*
X125264500Y-100734110D01*
X125277707Y-100817500D01*
X125291598Y-100905201D01*
X125345127Y-101069945D01*
X125423768Y-101224288D01*
X125525586Y-101364428D01*
X125648072Y-101486914D01*
X125788212Y-101588732D01*
X125942555Y-101667373D01*
X126107299Y-101720902D01*
X126278389Y-101748000D01*
X126278390Y-101748000D01*
X126451610Y-101748000D01*
X126451611Y-101748000D01*
X126622701Y-101720902D01*
X126787445Y-101667373D01*
X126941788Y-101588732D01*
X127081928Y-101486914D01*
X127204414Y-101364428D01*
X127306232Y-101224288D01*
X127384873Y-101069945D01*
X127400677Y-101021303D01*
X127440111Y-100963633D01*
X127504469Y-100936434D01*
X127573315Y-100948347D01*
X127606287Y-100971944D01*
X144653453Y-118019111D01*
X144653454Y-118019112D01*
X144768192Y-118095777D01*
X144874381Y-118139761D01*
X144895672Y-118148580D01*
X144895676Y-118148580D01*
X144895677Y-118148581D01*
X145031003Y-118175500D01*
X145031006Y-118175500D01*
X145031007Y-118175500D01*
X148344652Y-118175500D01*
X148411691Y-118195185D01*
X148455137Y-118243205D01*
X148491132Y-118313848D01*
X148639201Y-118517649D01*
X148639205Y-118517654D01*
X148817345Y-118695794D01*
X148817350Y-118695798D01*
X148995117Y-118824952D01*
X149021155Y-118843870D01*
X149164184Y-118916747D01*
X149245616Y-118958239D01*
X149245618Y-118958239D01*
X149245621Y-118958241D01*
X149485215Y-119036090D01*
X149734038Y-119075500D01*
X149734039Y-119075500D01*
X149985961Y-119075500D01*
X149985962Y-119075500D01*
X150234785Y-119036090D01*
X150474379Y-118958241D01*
X150698845Y-118843870D01*
X150902656Y-118695793D01*
X151080793Y-118517656D01*
X151228870Y-118313845D01*
X151343241Y-118089379D01*
X151421090Y-117849785D01*
X151444069Y-117704703D01*
X151460003Y-117604102D01*
X151489932Y-117540967D01*
X151549244Y-117504036D01*
X151582476Y-117499500D01*
X174560423Y-117499500D01*
X174627462Y-117519185D01*
X174673217Y-117571989D01*
X174683161Y-117641147D01*
X174654136Y-117704703D01*
X174648104Y-117711181D01*
X170630104Y-121729181D01*
X170568781Y-121762666D01*
X170542423Y-121765500D01*
X156671551Y-121765500D01*
X156604512Y-121745815D01*
X156558757Y-121693011D01*
X156548813Y-121623853D01*
X156577838Y-121560297D01*
X156583870Y-121553819D01*
X156635641Y-121502047D01*
X156635646Y-121502042D01*
X156815238Y-121267994D01*
X156962743Y-121012507D01*
X157075639Y-120739952D01*
X157151993Y-120454993D01*
X157190500Y-120162506D01*
X157190500Y-119867494D01*
X157151993Y-119575007D01*
X157075639Y-119290048D01*
X157069427Y-119275052D01*
X157033560Y-119188460D01*
X156962743Y-119017493D01*
X156862568Y-118843985D01*
X156815238Y-118762006D01*
X156635647Y-118527959D01*
X156635641Y-118527952D01*
X156427047Y-118319358D01*
X156427040Y-118319352D01*
X156192993Y-118139761D01*
X155937510Y-117992258D01*
X155937500Y-117992254D01*
X155664961Y-117879364D01*
X155664954Y-117879362D01*
X155664952Y-117879361D01*
X155379993Y-117803007D01*
X155331113Y-117796571D01*
X155087513Y-117764500D01*
X155087506Y-117764500D01*
X154792494Y-117764500D01*
X154792486Y-117764500D01*
X154514085Y-117801153D01*
X154500007Y-117803007D01*
X154355598Y-117841701D01*
X154215048Y-117879361D01*
X154215038Y-117879364D01*
X153942499Y-117992254D01*
X153942489Y-117992258D01*
X153687006Y-118139761D01*
X153452959Y-118319352D01*
X153452952Y-118319358D01*
X153244358Y-118527952D01*
X153244352Y-118527959D01*
X153064761Y-118762006D01*
X152917258Y-119017489D01*
X152917254Y-119017499D01*
X152804364Y-119290038D01*
X152804361Y-119290048D01*
X152728007Y-119575007D01*
X152728006Y-119575015D01*
X152689500Y-119867486D01*
X152689500Y-120162513D01*
X152721571Y-120406113D01*
X152728007Y-120454993D01*
X152798311Y-120717373D01*
X152804361Y-120739951D01*
X152804364Y-120739961D01*
X152917254Y-121012500D01*
X152917258Y-121012510D01*
X153064761Y-121267993D01*
X153184480Y-121424014D01*
X153209674Y-121489183D01*
X153195636Y-121557628D01*
X153146822Y-121607617D01*
X153086104Y-121623500D01*
X122885519Y-121623500D01*
X122818480Y-121603815D01*
X122797838Y-121587181D01*
X121106071Y-119895414D01*
X121079191Y-119855185D01*
X121019397Y-119710827D01*
X121019390Y-119710814D01*
X120931789Y-119579711D01*
X120931786Y-119579707D01*
X120820292Y-119468213D01*
X120820288Y-119468210D01*
X120689185Y-119380609D01*
X120689172Y-119380602D01*
X120543501Y-119320264D01*
X120543489Y-119320261D01*
X120388845Y-119289500D01*
X120388842Y-119289500D01*
X120231158Y-119289500D01*
X120231155Y-119289500D01*
X120076510Y-119320261D01*
X120076498Y-119320264D01*
X119930827Y-119380602D01*
X119930814Y-119380609D01*
X119799711Y-119468210D01*
X119799707Y-119468213D01*
X119688213Y-119579707D01*
X119688210Y-119579711D01*
X119600609Y-119710814D01*
X119600602Y-119710827D01*
X119540264Y-119856498D01*
X119540261Y-119856510D01*
X119509500Y-120011153D01*
X119509500Y-120168846D01*
X119540261Y-120323489D01*
X119540264Y-120323501D01*
X119600602Y-120469172D01*
X119600609Y-120469185D01*
X119688210Y-120600288D01*
X119688213Y-120600292D01*
X119799707Y-120711786D01*
X119799711Y-120711789D01*
X119930814Y-120799390D01*
X119930827Y-120799397D01*
X120075185Y-120859191D01*
X120115414Y-120886071D01*
X122163453Y-122934111D01*
X122163454Y-122934112D01*
X122163457Y-122934114D01*
X122278189Y-123010775D01*
X122405671Y-123063580D01*
X122420974Y-123066623D01*
X122428097Y-123068041D01*
X122428110Y-123068043D01*
X122428124Y-123068046D01*
X122484565Y-123079273D01*
X122541004Y-123090500D01*
X122541006Y-123090500D01*
X122678996Y-123090500D01*
X122791901Y-123068041D01*
X122814328Y-123063580D01*
X122861152Y-123044185D01*
X122885889Y-123033939D01*
X122933341Y-123024500D01*
X150809242Y-123024500D01*
X150876281Y-123044185D01*
X150922036Y-123096989D01*
X150931980Y-123166147D01*
X150919728Y-123204792D01*
X150916762Y-123210613D01*
X150916760Y-123210618D01*
X150916759Y-123210621D01*
X150901047Y-123258977D01*
X150838910Y-123450214D01*
X150799500Y-123699038D01*
X150799500Y-123950961D01*
X150838910Y-124199785D01*
X150916760Y-124439383D01*
X151031132Y-124663848D01*
X151179201Y-124867649D01*
X151179205Y-124867654D01*
X151357345Y-125045794D01*
X151357350Y-125045798D01*
X151483111Y-125137168D01*
X151561155Y-125193870D01*
X151704184Y-125266747D01*
X151785616Y-125308239D01*
X151785618Y-125308239D01*
X151785621Y-125308241D01*
X152025215Y-125386090D01*
X152274038Y-125425500D01*
X152274039Y-125425500D01*
X152525961Y-125425500D01*
X152525962Y-125425500D01*
X152774785Y-125386090D01*
X153014379Y-125308241D01*
X153238845Y-125193870D01*
X153442656Y-125045793D01*
X153620793Y-124867656D01*
X153625380Y-124861341D01*
X153680708Y-124818675D01*
X153750322Y-124812693D01*
X153812118Y-124845296D01*
X153846477Y-124906134D01*
X153848174Y-124953621D01*
X153839500Y-125008389D01*
X153839500Y-125181611D01*
X153847677Y-125233239D01*
X153858820Y-125303597D01*
X153866598Y-125352701D01*
X153920127Y-125517445D01*
X153998768Y-125671788D01*
X154100586Y-125811928D01*
X154223072Y-125934414D01*
X154363212Y-126036232D01*
X154517555Y-126114873D01*
X154682299Y-126168402D01*
X154853389Y-126195500D01*
X154853390Y-126195500D01*
X155026610Y-126195500D01*
X155026611Y-126195500D01*
X155197701Y-126168402D01*
X155362445Y-126114873D01*
X155516788Y-126036232D01*
X155656928Y-125934414D01*
X155779414Y-125811928D01*
X155881232Y-125671788D01*
X155959873Y-125517445D01*
X156013402Y-125352701D01*
X156040500Y-125181611D01*
X156040500Y-125008389D01*
X156027295Y-124925013D01*
X156015812Y-124852514D01*
X156015149Y-124848331D01*
X156013402Y-124837299D01*
X155959873Y-124672555D01*
X155881232Y-124518212D01*
X155779414Y-124378072D01*
X155656928Y-124255586D01*
X155516788Y-124153768D01*
X155362445Y-124075127D01*
X155197701Y-124021598D01*
X155197699Y-124021597D01*
X155197698Y-124021597D01*
X155066271Y-124000781D01*
X155026611Y-123994500D01*
X154853389Y-123994500D01*
X154813728Y-124000781D01*
X154682302Y-124021597D01*
X154517552Y-124075128D01*
X154363211Y-124153768D01*
X154299875Y-124199785D01*
X154223072Y-124255586D01*
X154223070Y-124255588D01*
X154223068Y-124255589D01*
X154171139Y-124307518D01*
X154109816Y-124341002D01*
X154040124Y-124336017D01*
X153984191Y-124294146D01*
X153959775Y-124228681D01*
X153960986Y-124200438D01*
X153961088Y-124199788D01*
X153961090Y-124199785D01*
X154000500Y-123950962D01*
X154000500Y-123699038D01*
X153961090Y-123450215D01*
X153961089Y-123450211D01*
X153961089Y-123450210D01*
X153921646Y-123328818D01*
X153919651Y-123258977D01*
X153955731Y-123199144D01*
X154018432Y-123168316D01*
X154039577Y-123166500D01*
X170952938Y-123166500D01*
X171070056Y-123143203D01*
X171088270Y-123139580D01*
X171152011Y-123113177D01*
X171215749Y-123086777D01*
X171215750Y-123086776D01*
X171215753Y-123086775D01*
X171330485Y-123010114D01*
X171399420Y-122941177D01*
X171399425Y-122941174D01*
X171406486Y-122934113D01*
X171406488Y-122934112D01*
X171585842Y-122754757D01*
X171792732Y-122547867D01*
X178409026Y-122547867D01*
X178409026Y-122721089D01*
X178417203Y-122772717D01*
X178429741Y-122851883D01*
X178436124Y-122892179D01*
X178489653Y-123056923D01*
X178568294Y-123211266D01*
X178670112Y-123351406D01*
X178670114Y-123351408D01*
X178778017Y-123459311D01*
X178811502Y-123520634D01*
X178806518Y-123590326D01*
X178764646Y-123646259D01*
X178755433Y-123652531D01*
X178691180Y-123692162D01*
X178567210Y-123816132D01*
X178475169Y-123965353D01*
X178475167Y-123965358D01*
X178420020Y-124131780D01*
X178420019Y-124131787D01*
X178409526Y-124234491D01*
X178409526Y-124384478D01*
X179504196Y-124384478D01*
X179484451Y-124404223D01*
X179435082Y-124489733D01*
X179409526Y-124585108D01*
X179409526Y-124683848D01*
X179435082Y-124779223D01*
X179484451Y-124864733D01*
X179504196Y-124884478D01*
X178409527Y-124884478D01*
X178409527Y-125034464D01*
X178420020Y-125137175D01*
X178475167Y-125303597D01*
X178475169Y-125303602D01*
X178567210Y-125452823D01*
X178691180Y-125576793D01*
X178840401Y-125668834D01*
X178840406Y-125668836D01*
X179006828Y-125723983D01*
X179006835Y-125723984D01*
X179109545Y-125734477D01*
X179534525Y-125734477D01*
X179534526Y-125734476D01*
X179534526Y-124914808D01*
X179554271Y-124934553D01*
X179639781Y-124983922D01*
X179735156Y-125009478D01*
X179833896Y-125009478D01*
X179929271Y-124983922D01*
X180014781Y-124934553D01*
X180034526Y-124914808D01*
X180034526Y-125734477D01*
X180459498Y-125734477D01*
X180459512Y-125734476D01*
X180562223Y-125723983D01*
X180728645Y-125668836D01*
X180728650Y-125668834D01*
X180877871Y-125576793D01*
X181001841Y-125452823D01*
X181093882Y-125303602D01*
X181093884Y-125303597D01*
X181149031Y-125137175D01*
X181149032Y-125137168D01*
X181159525Y-125034464D01*
X181159526Y-125034451D01*
X181159526Y-124884478D01*
X180064856Y-124884478D01*
X180084601Y-124864733D01*
X180133970Y-124779223D01*
X180159526Y-124683848D01*
X180159526Y-124585108D01*
X180133970Y-124489733D01*
X180084601Y-124404223D01*
X180064856Y-124384478D01*
X181159525Y-124384478D01*
X181159525Y-124234506D01*
X181159524Y-124234491D01*
X181149031Y-124131780D01*
X181093884Y-123965358D01*
X181093882Y-123965353D01*
X181001841Y-123816132D01*
X180877869Y-123692160D01*
X180813619Y-123652531D01*
X180766894Y-123600583D01*
X180755671Y-123531621D01*
X180783514Y-123467539D01*
X180791012Y-123459333D01*
X180898940Y-123351406D01*
X181000758Y-123211266D01*
X181079399Y-123056923D01*
X181132928Y-122892179D01*
X181160026Y-122721089D01*
X181160026Y-122547867D01*
X181132928Y-122376777D01*
X181079399Y-122212033D01*
X181000758Y-122057690D01*
X180898940Y-121917550D01*
X180776454Y-121795064D01*
X180636314Y-121693246D01*
X180481971Y-121614605D01*
X180317227Y-121561076D01*
X180317225Y-121561075D01*
X180317224Y-121561075D01*
X180165217Y-121537000D01*
X180146137Y-121533978D01*
X179422915Y-121533978D01*
X179403835Y-121537000D01*
X179251828Y-121561075D01*
X179087078Y-121614606D01*
X178932737Y-121693246D01*
X178860383Y-121745815D01*
X178792598Y-121795064D01*
X178792596Y-121795066D01*
X178792595Y-121795066D01*
X178670114Y-121917547D01*
X178670114Y-121917548D01*
X178670112Y-121917550D01*
X178626385Y-121977734D01*
X178568294Y-122057689D01*
X178489654Y-122212030D01*
X178436123Y-122376780D01*
X178423685Y-122455314D01*
X178409026Y-122547867D01*
X171792732Y-122547867D01*
X179775614Y-114564986D01*
X179852275Y-114450254D01*
X179862338Y-114425961D01*
X179879710Y-114384020D01*
X179905080Y-114322771D01*
X179925907Y-114218069D01*
X179932000Y-114187439D01*
X179932000Y-111831777D01*
X179951685Y-111764738D01*
X180004489Y-111718983D01*
X180021888Y-111712561D01*
X180104549Y-111688909D01*
X180284907Y-111594698D01*
X180423140Y-111481983D01*
X180487535Y-111454875D01*
X180556365Y-111466884D01*
X180579857Y-111481981D01*
X180718093Y-111594698D01*
X180898451Y-111688909D01*
X181094082Y-111744886D01*
X181213463Y-111755500D01*
X182329536Y-111755499D01*
X182448918Y-111744886D01*
X182644549Y-111688909D01*
X182824907Y-111594698D01*
X182963537Y-111481660D01*
X183027931Y-111454552D01*
X183096761Y-111466561D01*
X183120257Y-111481661D01*
X183258370Y-111594278D01*
X183438638Y-111688442D01*
X183634171Y-111744390D01*
X183634174Y-111744391D01*
X183753499Y-111754999D01*
X183753502Y-111755000D01*
X184869498Y-111755000D01*
X184869500Y-111754999D01*
X184988825Y-111744391D01*
X184988828Y-111744390D01*
X185184361Y-111688442D01*
X185364630Y-111594278D01*
X185502741Y-111481662D01*
X185567137Y-111454552D01*
X185635967Y-111466561D01*
X185659464Y-111481661D01*
X185798093Y-111594698D01*
X185978451Y-111688909D01*
X186174082Y-111744886D01*
X186293463Y-111755500D01*
X187409536Y-111755499D01*
X187528918Y-111744886D01*
X187724549Y-111688909D01*
X187904907Y-111594698D01*
X188062609Y-111466109D01*
X188191198Y-111308407D01*
X188285409Y-111128049D01*
X188341386Y-110932418D01*
X188352000Y-110813037D01*
X188351999Y-108946964D01*
X188341386Y-108827582D01*
X188285409Y-108631951D01*
X188191198Y-108451593D01*
X188121500Y-108366115D01*
X188062609Y-108293890D01*
X187908988Y-108168630D01*
X187904907Y-108165302D01*
X187724549Y-108071091D01*
X187724548Y-108071090D01*
X187724545Y-108071089D01*
X187607329Y-108037550D01*
X187528918Y-108015114D01*
X187528915Y-108015113D01*
X187528913Y-108015113D01*
X187462602Y-108009217D01*
X187409537Y-108004500D01*
X187409532Y-108004500D01*
X186293471Y-108004500D01*
X186293465Y-108004500D01*
X186293464Y-108004501D01*
X186287851Y-108005000D01*
X186174084Y-108015113D01*
X185978454Y-108071089D01*
X185798087Y-108165305D01*
X185659463Y-108278338D01*
X185595067Y-108305447D01*
X185526237Y-108293437D01*
X185502742Y-108278338D01*
X185364629Y-108165721D01*
X185184361Y-108071557D01*
X184988828Y-108015609D01*
X184988825Y-108015608D01*
X184869500Y-108005000D01*
X183753499Y-108005000D01*
X183634174Y-108015608D01*
X183634171Y-108015609D01*
X183438638Y-108071557D01*
X183258370Y-108165721D01*
X183120257Y-108278338D01*
X183055861Y-108305447D01*
X182987031Y-108293438D01*
X182963535Y-108278338D01*
X182913758Y-108237750D01*
X182824907Y-108165302D01*
X182644549Y-108071091D01*
X182644548Y-108071090D01*
X182644545Y-108071089D01*
X182527329Y-108037550D01*
X182448918Y-108015114D01*
X182448915Y-108015113D01*
X182448913Y-108015113D01*
X182382602Y-108009217D01*
X182329537Y-108004500D01*
X182329532Y-108004500D01*
X181213471Y-108004500D01*
X181213465Y-108004500D01*
X181213464Y-108004501D01*
X181207851Y-108005000D01*
X181094084Y-108015113D01*
X180898454Y-108071089D01*
X180856414Y-108093049D01*
X180718093Y-108165302D01*
X180718091Y-108165303D01*
X180718090Y-108165304D01*
X180579861Y-108278015D01*
X180515464Y-108305124D01*
X180446635Y-108293115D01*
X180423139Y-108278015D01*
X180359885Y-108226438D01*
X180284907Y-108165302D01*
X180104549Y-108071091D01*
X180104548Y-108071090D01*
X180104545Y-108071089D01*
X179987329Y-108037550D01*
X179908918Y-108015114D01*
X179908915Y-108015113D01*
X179908913Y-108015113D01*
X179842602Y-108009217D01*
X179789537Y-108004500D01*
X179789532Y-108004500D01*
X178673471Y-108004500D01*
X178673465Y-108004500D01*
X178673464Y-108004501D01*
X178667851Y-108005000D01*
X178554084Y-108015113D01*
X178358454Y-108071089D01*
X178316414Y-108093049D01*
X178178093Y-108165302D01*
X178178091Y-108165303D01*
X178178090Y-108165304D01*
X178039861Y-108278015D01*
X177975464Y-108305124D01*
X177906635Y-108293115D01*
X177883139Y-108278015D01*
X177819885Y-108226438D01*
X177744907Y-108165302D01*
X177564549Y-108071091D01*
X177564548Y-108071090D01*
X177564545Y-108071089D01*
X177447329Y-108037550D01*
X177368918Y-108015114D01*
X177368915Y-108015113D01*
X177368913Y-108015113D01*
X177302602Y-108009217D01*
X177249537Y-108004500D01*
X177249532Y-108004500D01*
X176133471Y-108004500D01*
X176133465Y-108004500D01*
X176133464Y-108004501D01*
X176127851Y-108005000D01*
X176014084Y-108015113D01*
X175818454Y-108071089D01*
X175776414Y-108093049D01*
X175638093Y-108165302D01*
X175638091Y-108165303D01*
X175638090Y-108165304D01*
X175499861Y-108278015D01*
X175435464Y-108305124D01*
X175366635Y-108293115D01*
X175343139Y-108278015D01*
X175295904Y-108239500D01*
X175204907Y-108165302D01*
X175204904Y-108165300D01*
X175066588Y-108093049D01*
X175016281Y-108044562D01*
X175000000Y-107983141D01*
X175000000Y-104155269D01*
X184498282Y-104155269D01*
X184498282Y-104155270D01*
X184552449Y-104194624D01*
X184741782Y-104291095D01*
X184943870Y-104356757D01*
X185153754Y-104390000D01*
X185366246Y-104390000D01*
X185576127Y-104356757D01*
X185576130Y-104356757D01*
X185778217Y-104291095D01*
X185967554Y-104194622D01*
X186021716Y-104155270D01*
X186021717Y-104155270D01*
X185260000Y-103393554D01*
X184498282Y-104155269D01*
X175000000Y-104155269D01*
X175000000Y-95611857D01*
X175019685Y-95544818D01*
X175066586Y-95501950D01*
X175204907Y-95429698D01*
X175343140Y-95316983D01*
X175407535Y-95289875D01*
X175476365Y-95301884D01*
X175499857Y-95316981D01*
X175638093Y-95429698D01*
X175818451Y-95523909D01*
X176014082Y-95579886D01*
X176133463Y-95590500D01*
X177249536Y-95590499D01*
X177368918Y-95579886D01*
X177564549Y-95523909D01*
X177744907Y-95429698D01*
X177883140Y-95316983D01*
X177947535Y-95289875D01*
X178016365Y-95301884D01*
X178039857Y-95316981D01*
X178178093Y-95429698D01*
X178358451Y-95523909D01*
X178554082Y-95579886D01*
X178647217Y-95588166D01*
X178712249Y-95613710D01*
X178753148Y-95670358D01*
X178756928Y-95740126D01*
X178723917Y-95799360D01*
X178659852Y-95863425D01*
X178566877Y-96011395D01*
X178509159Y-96176341D01*
X178509157Y-96176351D01*
X178494500Y-96306441D01*
X178494500Y-98343558D01*
X178509157Y-98473648D01*
X178509159Y-98473658D01*
X178566877Y-98638604D01*
X178566878Y-98638606D01*
X178580166Y-98659754D01*
X178659853Y-98786576D01*
X178765894Y-98892617D01*
X178799379Y-98953940D01*
X178802213Y-98980298D01*
X178802213Y-102318134D01*
X178792774Y-102365586D01*
X178730264Y-102516498D01*
X178730261Y-102516510D01*
X178699500Y-102671153D01*
X178699500Y-102828846D01*
X178730261Y-102983489D01*
X178730264Y-102983501D01*
X178790602Y-103129172D01*
X178790609Y-103129185D01*
X178878210Y-103260288D01*
X178878213Y-103260292D01*
X178989707Y-103371786D01*
X178989711Y-103371789D01*
X179120814Y-103459390D01*
X179120827Y-103459397D01*
X179256288Y-103515506D01*
X179266503Y-103519737D01*
X179421153Y-103550499D01*
X179421156Y-103550500D01*
X179421158Y-103550500D01*
X179578844Y-103550500D01*
X179578845Y-103550499D01*
X179733497Y-103519737D01*
X179879179Y-103459394D01*
X180010289Y-103371789D01*
X180121789Y-103260289D01*
X180209394Y-103129179D01*
X180269737Y-102983497D01*
X180279632Y-102933753D01*
X183910000Y-102933753D01*
X183910000Y-103146246D01*
X183943242Y-103356127D01*
X183943242Y-103356130D01*
X184008904Y-103558217D01*
X184105375Y-103747550D01*
X184144728Y-103801716D01*
X184906445Y-103039999D01*
X184144728Y-102278282D01*
X184144727Y-102278282D01*
X184105380Y-102332439D01*
X184008904Y-102521782D01*
X183943242Y-102723869D01*
X183943242Y-102723872D01*
X183910000Y-102933753D01*
X180279632Y-102933753D01*
X180285413Y-102904689D01*
X180300500Y-102828844D01*
X180300500Y-102671155D01*
X180300499Y-102671153D01*
X180270748Y-102521588D01*
X180269737Y-102516503D01*
X180218288Y-102392293D01*
X180212652Y-102378686D01*
X180203213Y-102331234D01*
X180203213Y-100393713D01*
X183909500Y-100393713D01*
X183909500Y-100606287D01*
X183942754Y-100816243D01*
X183985677Y-100948347D01*
X184008444Y-101018414D01*
X184104951Y-101207820D01*
X184229890Y-101379786D01*
X184380213Y-101530109D01*
X184552179Y-101655048D01*
X184552181Y-101655049D01*
X184552184Y-101655051D01*
X184561493Y-101659794D01*
X184612290Y-101707766D01*
X184629087Y-101775587D01*
X184606552Y-101841722D01*
X184561505Y-101880760D01*
X184552446Y-101885376D01*
X184552440Y-101885380D01*
X184498282Y-101924727D01*
X184498282Y-101924728D01*
X185260000Y-102686446D01*
X185260001Y-102686446D01*
X186021716Y-101924728D01*
X185967547Y-101885373D01*
X185967547Y-101885372D01*
X185958500Y-101880763D01*
X185907706Y-101832788D01*
X185890912Y-101764966D01*
X185913451Y-101698832D01*
X185958508Y-101659793D01*
X185967816Y-101655051D01*
X186094689Y-101562873D01*
X186139786Y-101530109D01*
X186139788Y-101530106D01*
X186139792Y-101530104D01*
X186290104Y-101379792D01*
X186290106Y-101379788D01*
X186290109Y-101379786D01*
X186415048Y-101207820D01*
X186415047Y-101207820D01*
X186415051Y-101207816D01*
X186419514Y-101199054D01*
X186467488Y-101148259D01*
X186535308Y-101131463D01*
X186601444Y-101153999D01*
X186640486Y-101199056D01*
X186644951Y-101207820D01*
X186769890Y-101379786D01*
X186920213Y-101530109D01*
X187092182Y-101655050D01*
X187100946Y-101659516D01*
X187151742Y-101707491D01*
X187168536Y-101775312D01*
X187145998Y-101841447D01*
X187100946Y-101880484D01*
X187092182Y-101884949D01*
X186920213Y-102009890D01*
X186769890Y-102160213D01*
X186644949Y-102332182D01*
X186640202Y-102341499D01*
X186592227Y-102392293D01*
X186524405Y-102409087D01*
X186458271Y-102386548D01*
X186419234Y-102341495D01*
X186414626Y-102332452D01*
X186375270Y-102278282D01*
X186375269Y-102278282D01*
X185613554Y-103039999D01*
X185613554Y-103040000D01*
X186375270Y-103801717D01*
X186375270Y-103801716D01*
X186414622Y-103747555D01*
X186419232Y-103738507D01*
X186467205Y-103687709D01*
X186535025Y-103670912D01*
X186601161Y-103693447D01*
X186640204Y-103738504D01*
X186644949Y-103747817D01*
X186769890Y-103919786D01*
X186920213Y-104070109D01*
X187092179Y-104195048D01*
X187092181Y-104195049D01*
X187092184Y-104195051D01*
X187281588Y-104291557D01*
X187483757Y-104357246D01*
X187693713Y-104390500D01*
X187693714Y-104390500D01*
X187906286Y-104390500D01*
X187906287Y-104390500D01*
X188116243Y-104357246D01*
X188318412Y-104291557D01*
X188507816Y-104195051D01*
X188609039Y-104121509D01*
X188679786Y-104070109D01*
X188679788Y-104070106D01*
X188679792Y-104070104D01*
X188830104Y-103919792D01*
X188830106Y-103919788D01*
X188830109Y-103919786D01*
X188955048Y-103747820D01*
X188955050Y-103747817D01*
X188955051Y-103747816D01*
X189051557Y-103558412D01*
X189117246Y-103356243D01*
X189150500Y-103146287D01*
X189150500Y-102933713D01*
X189117246Y-102723757D01*
X189051557Y-102521588D01*
X188955051Y-102332184D01*
X188955049Y-102332181D01*
X188955048Y-102332179D01*
X188830109Y-102160213D01*
X188679786Y-102009890D01*
X188507820Y-101884951D01*
X188499600Y-101880763D01*
X188499054Y-101880485D01*
X188448259Y-101832512D01*
X188431463Y-101764692D01*
X188453999Y-101698556D01*
X188499054Y-101659515D01*
X188507816Y-101655051D01*
X188599097Y-101588732D01*
X188679786Y-101530109D01*
X188679788Y-101530106D01*
X188679792Y-101530104D01*
X188830104Y-101379792D01*
X188830106Y-101379788D01*
X188830109Y-101379786D01*
X188955048Y-101207820D01*
X188955047Y-101207820D01*
X188955051Y-101207816D01*
X189051557Y-101018412D01*
X189117246Y-100816243D01*
X189150500Y-100606287D01*
X189150500Y-100393713D01*
X189117246Y-100183757D01*
X189051557Y-99981588D01*
X188955051Y-99792184D01*
X188955049Y-99792181D01*
X188955048Y-99792179D01*
X188830109Y-99620213D01*
X188679786Y-99469890D01*
X188507820Y-99344951D01*
X188318414Y-99248444D01*
X188318413Y-99248443D01*
X188318412Y-99248443D01*
X188116243Y-99182754D01*
X188116241Y-99182753D01*
X188116240Y-99182753D01*
X187954957Y-99157208D01*
X187906287Y-99149500D01*
X187693713Y-99149500D01*
X187645042Y-99157208D01*
X187483760Y-99182753D01*
X187281585Y-99248444D01*
X187092179Y-99344951D01*
X186920213Y-99469890D01*
X186769890Y-99620213D01*
X186644949Y-99792182D01*
X186640484Y-99800946D01*
X186592509Y-99851742D01*
X186524688Y-99868536D01*
X186458553Y-99845998D01*
X186419516Y-99800946D01*
X186415050Y-99792182D01*
X186290109Y-99620213D01*
X186139786Y-99469890D01*
X185967820Y-99344951D01*
X185778414Y-99248444D01*
X185778413Y-99248443D01*
X185778412Y-99248443D01*
X185576243Y-99182754D01*
X185576241Y-99182753D01*
X185576240Y-99182753D01*
X185414957Y-99157208D01*
X185366287Y-99149500D01*
X185153713Y-99149500D01*
X185105042Y-99157208D01*
X184943760Y-99182753D01*
X184741585Y-99248444D01*
X184552179Y-99344951D01*
X184380213Y-99469890D01*
X184229890Y-99620213D01*
X184104951Y-99792179D01*
X184008444Y-99981585D01*
X183942753Y-100183760D01*
X183936213Y-100225052D01*
X183909500Y-100393713D01*
X180203213Y-100393713D01*
X180203213Y-99043625D01*
X180222898Y-98976586D01*
X180245532Y-98950328D01*
X180252916Y-98943862D01*
X180306576Y-98910147D01*
X180413095Y-98803627D01*
X180416172Y-98800934D01*
X180444300Y-98787914D01*
X180471494Y-98773065D01*
X180475727Y-98773367D01*
X180479579Y-98771585D01*
X180510274Y-98775838D01*
X180541185Y-98778049D01*
X180545296Y-98780691D01*
X180548787Y-98781175D01*
X180556972Y-98788195D01*
X180585534Y-98806550D01*
X180688737Y-98909753D01*
X180836613Y-99002669D01*
X181001460Y-99060351D01*
X181131469Y-99074999D01*
X181131473Y-99075000D01*
X181768527Y-99075000D01*
X181768530Y-99074999D01*
X181898539Y-99060351D01*
X182063386Y-99002669D01*
X182211262Y-98909753D01*
X182334753Y-98786262D01*
X182334755Y-98786259D01*
X182420786Y-98649338D01*
X181360905Y-97589457D01*
X181327420Y-97528134D01*
X181332404Y-97458442D01*
X181360905Y-97414095D01*
X181450000Y-97325000D01*
X181449999Y-97324999D01*
X181803552Y-97324999D01*
X181803552Y-97325000D01*
X182499999Y-98021448D01*
X182500000Y-98021447D01*
X182500000Y-96628552D01*
X182499999Y-96628551D01*
X181803552Y-97324999D01*
X181449999Y-97324999D01*
X181360904Y-97235904D01*
X181327419Y-97174581D01*
X181332403Y-97104889D01*
X181360904Y-97060542D01*
X182420787Y-96000659D01*
X182334756Y-95863740D01*
X182271086Y-95800070D01*
X182237601Y-95738747D01*
X182242585Y-95669055D01*
X182284457Y-95613122D01*
X182347785Y-95588876D01*
X182448918Y-95579886D01*
X182644549Y-95523909D01*
X182824907Y-95429698D01*
X182963140Y-95316983D01*
X183027535Y-95289875D01*
X183096365Y-95301884D01*
X183119857Y-95316981D01*
X183258093Y-95429698D01*
X183438451Y-95523909D01*
X183634082Y-95579886D01*
X183753463Y-95590500D01*
X184869536Y-95590499D01*
X184988918Y-95579886D01*
X185184549Y-95523909D01*
X185364907Y-95429698D01*
X185503140Y-95316983D01*
X185567535Y-95289875D01*
X185636365Y-95301884D01*
X185659857Y-95316981D01*
X185798093Y-95429698D01*
X185978451Y-95523909D01*
X186174082Y-95579886D01*
X186293463Y-95590500D01*
X187409536Y-95590499D01*
X187528918Y-95579886D01*
X187724549Y-95523909D01*
X187904907Y-95429698D01*
X188062609Y-95301109D01*
X188191198Y-95143407D01*
X188285409Y-94963049D01*
X188341386Y-94767418D01*
X188352000Y-94648037D01*
X188351999Y-92781964D01*
X188341386Y-92662582D01*
X188285409Y-92466951D01*
X188191198Y-92286593D01*
X188121500Y-92201115D01*
X188062609Y-92128890D01*
X187904909Y-92000304D01*
X187904910Y-92000304D01*
X187904907Y-92000302D01*
X187724549Y-91906091D01*
X187724548Y-91906090D01*
X187724545Y-91906089D01*
X187607329Y-91872550D01*
X187528918Y-91850114D01*
X187528915Y-91850113D01*
X187528913Y-91850113D01*
X187462602Y-91844217D01*
X187409537Y-91839500D01*
X187409532Y-91839500D01*
X186293471Y-91839500D01*
X186293465Y-91839500D01*
X186293464Y-91839501D01*
X186281816Y-91840536D01*
X186174084Y-91850113D01*
X185978454Y-91906089D01*
X185936414Y-91928049D01*
X185798093Y-92000302D01*
X185798091Y-92000303D01*
X185798090Y-92000304D01*
X185659861Y-92113015D01*
X185595464Y-92140124D01*
X185526635Y-92128115D01*
X185503139Y-92113015D01*
X185364909Y-92000304D01*
X185364910Y-92000304D01*
X185364907Y-92000302D01*
X185184549Y-91906091D01*
X185184548Y-91906090D01*
X185184543Y-91906088D01*
X185101887Y-91882437D01*
X185042850Y-91845070D01*
X185013387Y-91781716D01*
X185012000Y-91763222D01*
X185012000Y-82025404D01*
X184985081Y-81890077D01*
X184985080Y-81890076D01*
X184985080Y-81890072D01*
X184985078Y-81890067D01*
X184932278Y-81762595D01*
X184932271Y-81762582D01*
X184871398Y-81671479D01*
X184850520Y-81604801D01*
X184850500Y-81602588D01*
X184850500Y-81581062D01*
X184823581Y-81445735D01*
X184823580Y-81445734D01*
X184823580Y-81445730D01*
X184823578Y-81445725D01*
X184770777Y-81318250D01*
X184694112Y-81203512D01*
X184694111Y-81203511D01*
X178580485Y-75089886D01*
X178580483Y-75089884D01*
X178480485Y-74989886D01*
X178365753Y-74913225D01*
X178365754Y-74913225D01*
X178365749Y-74913222D01*
X178238274Y-74860421D01*
X178238264Y-74860418D01*
X178102938Y-74833500D01*
X178102936Y-74833500D01*
X178102935Y-74833500D01*
X143144994Y-74833500D01*
X143007006Y-74833500D01*
X143007004Y-74833500D01*
X142871677Y-74860418D01*
X142871667Y-74860421D01*
X142744192Y-74913222D01*
X142629454Y-74989887D01*
X141635412Y-75983929D01*
X141595184Y-76010809D01*
X141450823Y-76070604D01*
X141450814Y-76070609D01*
X141319711Y-76158210D01*
X141319707Y-76158213D01*
X141208213Y-76269707D01*
X141208210Y-76269711D01*
X141120609Y-76400814D01*
X141120602Y-76400827D01*
X141060264Y-76546498D01*
X141060261Y-76546510D01*
X141029500Y-76701153D01*
X141029500Y-76858846D01*
X141060261Y-77013489D01*
X141060264Y-77013501D01*
X141120602Y-77159172D01*
X141120609Y-77159185D01*
X141208210Y-77290288D01*
X141208213Y-77290292D01*
X141319707Y-77401786D01*
X141319711Y-77401789D01*
X141450814Y-77489390D01*
X141450827Y-77489397D01*
X141596498Y-77549735D01*
X141596503Y-77549737D01*
X141751153Y-77580499D01*
X141751156Y-77580500D01*
X141751158Y-77580500D01*
X141908844Y-77580500D01*
X141908845Y-77580499D01*
X142063497Y-77549737D01*
X142209179Y-77489394D01*
X142340289Y-77401789D01*
X142451789Y-77290289D01*
X142539394Y-77159179D01*
X142539395Y-77159176D01*
X142539397Y-77159173D01*
X142589236Y-77038848D01*
X142599192Y-77014810D01*
X142626069Y-76974586D01*
X143329838Y-76270819D01*
X143391161Y-76237334D01*
X143417519Y-76234500D01*
X153808501Y-76234500D01*
X153875540Y-76254185D01*
X153921295Y-76306989D01*
X153931239Y-76376147D01*
X153921223Y-76407726D01*
X153921994Y-76408046D01*
X153920129Y-76412547D01*
X153866597Y-76577302D01*
X153839500Y-76748389D01*
X153839500Y-76921610D01*
X153859447Y-77047555D01*
X153866598Y-77092701D01*
X153920127Y-77257445D01*
X153998768Y-77411788D01*
X154100586Y-77551928D01*
X154223072Y-77674414D01*
X154363212Y-77776232D01*
X154517555Y-77854873D01*
X154682299Y-77908402D01*
X154853389Y-77935500D01*
X154853390Y-77935500D01*
X155026610Y-77935500D01*
X155026611Y-77935500D01*
X155197701Y-77908402D01*
X155362445Y-77854873D01*
X155516788Y-77776232D01*
X155656928Y-77674414D01*
X155779414Y-77551928D01*
X155881232Y-77411788D01*
X155959873Y-77257445D01*
X156013402Y-77092701D01*
X156040500Y-76921611D01*
X156040500Y-76748389D01*
X156013402Y-76577299D01*
X155959873Y-76412555D01*
X155959871Y-76412552D01*
X155959870Y-76412547D01*
X155958006Y-76408046D01*
X155959626Y-76407374D01*
X155948116Y-76346148D01*
X155974380Y-76281403D01*
X156031479Y-76241136D01*
X156071499Y-76234500D01*
X177692423Y-76234500D01*
X177759462Y-76254185D01*
X177780104Y-76270819D01*
X179972104Y-78462819D01*
X180005589Y-78524142D01*
X180000605Y-78593834D01*
X179958733Y-78649767D01*
X179893269Y-78674184D01*
X179884423Y-78674500D01*
X151375348Y-78674500D01*
X151308309Y-78654815D01*
X151264863Y-78606795D01*
X151256869Y-78591108D01*
X151228870Y-78536155D01*
X151193876Y-78487990D01*
X151080798Y-78332350D01*
X151080794Y-78332345D01*
X150902654Y-78154205D01*
X150902649Y-78154201D01*
X150698848Y-78006132D01*
X150698847Y-78006131D01*
X150698845Y-78006130D01*
X150628747Y-77970413D01*
X150474383Y-77891760D01*
X150234785Y-77813910D01*
X150209896Y-77809968D01*
X149985962Y-77774500D01*
X149734038Y-77774500D01*
X149609626Y-77794205D01*
X149485214Y-77813910D01*
X149245616Y-77891760D01*
X149021151Y-78006132D01*
X148817350Y-78154201D01*
X148817345Y-78154205D01*
X148639205Y-78332345D01*
X148639201Y-78332350D01*
X148491132Y-78536151D01*
X148455137Y-78606795D01*
X148407162Y-78657591D01*
X148344652Y-78674500D01*
X122800348Y-78674500D01*
X122733309Y-78654815D01*
X122689863Y-78606795D01*
X122681869Y-78591108D01*
X122653870Y-78536155D01*
X122618876Y-78487990D01*
X122505798Y-78332350D01*
X122505794Y-78332345D01*
X122327654Y-78154205D01*
X122327649Y-78154201D01*
X122123848Y-78006132D01*
X122123847Y-78006131D01*
X122123845Y-78006130D01*
X122053747Y-77970413D01*
X121899383Y-77891760D01*
X121659785Y-77813910D01*
X121634896Y-77809968D01*
X121410962Y-77774500D01*
X121159038Y-77774500D01*
X121148103Y-77776232D01*
X120910215Y-77813909D01*
X120834811Y-77838409D01*
X120764970Y-77840403D01*
X120708814Y-77808158D01*
X119731854Y-76831198D01*
X119649045Y-76748389D01*
X125264500Y-76748389D01*
X125264500Y-76921610D01*
X125284447Y-77047555D01*
X125291598Y-77092701D01*
X125345127Y-77257445D01*
X125423768Y-77411788D01*
X125525586Y-77551928D01*
X125648072Y-77674414D01*
X125788212Y-77776232D01*
X125942555Y-77854873D01*
X126107299Y-77908402D01*
X126278389Y-77935500D01*
X126278390Y-77935500D01*
X126451610Y-77935500D01*
X126451611Y-77935500D01*
X126622701Y-77908402D01*
X126787445Y-77854873D01*
X126941788Y-77776232D01*
X127081928Y-77674414D01*
X127204414Y-77551928D01*
X127306232Y-77411788D01*
X127384873Y-77257445D01*
X127438402Y-77092701D01*
X127465500Y-76921611D01*
X127465500Y-76748389D01*
X127438402Y-76577299D01*
X127384873Y-76412555D01*
X127306232Y-76258212D01*
X127204414Y-76118072D01*
X127081928Y-75995586D01*
X126941788Y-75893768D01*
X126787445Y-75815127D01*
X126622701Y-75761598D01*
X126622699Y-75761597D01*
X126622698Y-75761597D01*
X126491271Y-75740781D01*
X126451611Y-75734500D01*
X126278389Y-75734500D01*
X126238728Y-75740781D01*
X126107302Y-75761597D01*
X125942552Y-75815128D01*
X125788211Y-75893768D01*
X125708256Y-75951859D01*
X125648072Y-75995586D01*
X125648070Y-75995588D01*
X125648069Y-75995588D01*
X125525588Y-76118069D01*
X125525588Y-76118070D01*
X125525586Y-76118072D01*
X125496424Y-76158210D01*
X125423768Y-76258211D01*
X125345128Y-76412552D01*
X125291597Y-76577302D01*
X125264500Y-76748389D01*
X119649045Y-76748389D01*
X108198007Y-65297349D01*
X108198006Y-65297348D01*
X108083268Y-65220683D01*
X107955793Y-65167882D01*
X107955783Y-65167879D01*
X107820457Y-65140961D01*
X107820455Y-65140961D01*
X107820454Y-65140961D01*
X63312046Y-65140961D01*
X63312042Y-65140961D01*
X63203629Y-65162526D01*
X63203628Y-65162526D01*
X63176720Y-65167879D01*
X63176710Y-65167881D01*
X63049229Y-65220685D01*
X62934493Y-65297348D01*
X59948683Y-68283158D01*
X59887360Y-68316643D01*
X59822684Y-68313408D01*
X59747287Y-68288910D01*
X59581403Y-68262636D01*
X59498462Y-68249500D01*
X59246538Y-68249500D01*
X59122126Y-68269205D01*
X58997714Y-68288910D01*
X58758116Y-68366760D01*
X58533651Y-68481132D01*
X58329850Y-68629201D01*
X58329845Y-68629205D01*
X58151705Y-68807345D01*
X58151701Y-68807350D01*
X58003632Y-69011151D01*
X57889260Y-69235616D01*
X57811410Y-69475214D01*
X57772000Y-69724038D01*
X25500500Y-69724038D01*
X25500500Y-60624500D01*
X25520185Y-60557461D01*
X25572989Y-60511706D01*
X25624500Y-60500500D01*
X189375500Y-60500500D01*
X189442539Y-60520185D01*
G37*
%TD.AperFunction*%
%TD*%
M02*
