%TF.GenerationSoftware,KiCad,Pcbnew,9.0.6*%
%TF.CreationDate,2026-01-24T17:24:49-08:00*%
%TF.ProjectId,board,626f6172-642e-46b6-9963-61645f706362,rev?*%
%TF.SameCoordinates,Original*%
%TF.FileFunction,Soldermask,Bot*%
%TF.FilePolarity,Negative*%
%FSLAX46Y46*%
G04 Gerber Fmt 4.6, Leading zero omitted, Abs format (unit mm)*
G04 Created by KiCad (PCBNEW 9.0.6) date 2026-01-24 17:24:49*
%MOMM*%
%LPD*%
G01*
G04 APERTURE LIST*
G04 Aperture macros list*
%AMRoundRect*
0 Rectangle with rounded corners*
0 $1 Rounding radius*
0 $2 $3 $4 $5 $6 $7 $8 $9 X,Y pos of 4 corners*
0 Add a 4 corners polygon primitive as box body*
4,1,4,$2,$3,$4,$5,$6,$7,$8,$9,$2,$3,0*
0 Add four circle primitives for the rounded corners*
1,1,$1+$1,$2,$3*
1,1,$1+$1,$4,$5*
1,1,$1+$1,$6,$7*
1,1,$1+$1,$8,$9*
0 Add four rect primitives between the rounded corners*
20,1,$1+$1,$2,$3,$4,$5,0*
20,1,$1+$1,$4,$5,$6,$7,0*
20,1,$1+$1,$6,$7,$8,$9,0*
20,1,$1+$1,$8,$9,$2,$3,0*%
G04 Aperture macros list end*
%ADD10C,1.700000*%
%ADD11C,4.000000*%
%ADD12C,2.200000*%
%ADD13C,5.000000*%
%ADD14RoundRect,0.225000X0.375000X-0.225000X0.375000X0.225000X-0.375000X0.225000X-0.375000X-0.225000X0*%
%ADD15RoundRect,0.225000X-0.225000X-0.375000X0.225000X-0.375000X0.225000X0.375000X-0.225000X0.375000X0*%
%ADD16RoundRect,0.250000X0.625000X-0.350000X0.625000X0.350000X-0.625000X0.350000X-0.625000X-0.350000X0*%
%ADD17O,1.750000X1.200000*%
%ADD18RoundRect,0.225000X0.225000X0.375000X-0.225000X0.375000X-0.225000X-0.375000X0.225000X-0.375000X0*%
G04 APERTURE END LIST*
D10*
%TO.C,SW9*%
X107315000Y-77470000D03*
D11*
X107315000Y-72390000D03*
D10*
X107315000Y-67310000D03*
D12*
X102235000Y-69850000D03*
X104775000Y-76200000D03*
%TD*%
D10*
%TO.C,SW7*%
X107315000Y-96520000D03*
D11*
X107315000Y-91440000D03*
D10*
X107315000Y-86360000D03*
D12*
X102235000Y-88900000D03*
X104775000Y-95250000D03*
%TD*%
D10*
%TO.C,SW1*%
X40640000Y-129857500D03*
D11*
X40640000Y-124777500D03*
D10*
X40640000Y-119697500D03*
D12*
X35560000Y-122237500D03*
X38100000Y-128587500D03*
%TD*%
D10*
%TO.C,SW13*%
X154940000Y-125095000D03*
D11*
X154940000Y-120015000D03*
D10*
X154940000Y-114935000D03*
D12*
X149860000Y-117475000D03*
X152400000Y-123825000D03*
%TD*%
D13*
%TO.C,H1*%
X30000000Y-65000000D03*
%TD*%
%TO.C,H4*%
X185000000Y-137500000D03*
%TD*%
%TO.C,H5*%
X107500000Y-137500000D03*
%TD*%
D10*
%TO.C,SW12*%
X107315000Y-120332500D03*
D11*
X107315000Y-115252500D03*
D10*
X107315000Y-110172500D03*
D12*
X102235000Y-112712500D03*
X104775000Y-119062500D03*
%TD*%
D10*
%TO.C,SW10*%
X126365000Y-86995000D03*
D11*
X126365000Y-81915000D03*
D10*
X126365000Y-76835000D03*
D12*
X121285000Y-79375000D03*
X123825000Y-85725000D03*
%TD*%
D10*
%TO.C,SW14*%
X154940000Y-106045000D03*
D11*
X154940000Y-100965000D03*
D10*
X154940000Y-95885000D03*
D12*
X149860000Y-98425000D03*
X152400000Y-104775000D03*
%TD*%
D10*
%TO.C,SW11*%
X88265000Y-110807500D03*
D11*
X88265000Y-105727500D03*
D10*
X88265000Y-100647500D03*
D12*
X83185000Y-103187500D03*
X85725000Y-109537500D03*
%TD*%
D10*
%TO.C,SW15*%
X154940000Y-86995000D03*
D11*
X154940000Y-81915000D03*
D10*
X154940000Y-76835000D03*
D12*
X149860000Y-79375000D03*
X152400000Y-85725000D03*
%TD*%
D13*
%TO.C,H3*%
X185000000Y-65000000D03*
%TD*%
D10*
%TO.C,SW5*%
X64452500Y-77470000D03*
D11*
X64452500Y-72390000D03*
D10*
X64452500Y-67310000D03*
D12*
X59372500Y-69850000D03*
X61912500Y-76200000D03*
%TD*%
D10*
%TO.C,SW3*%
X64452500Y-115570000D03*
D11*
X64452500Y-110490000D03*
D10*
X64452500Y-105410000D03*
D12*
X59372500Y-107950000D03*
X61912500Y-114300000D03*
%TD*%
D10*
%TO.C,SW4*%
X64452500Y-96520000D03*
D11*
X64452500Y-91440000D03*
D10*
X64452500Y-86360000D03*
D12*
X59372500Y-88900000D03*
X61912500Y-95250000D03*
%TD*%
D13*
%TO.C,H2*%
X30000000Y-137500000D03*
%TD*%
D10*
%TO.C,SW8*%
X88265000Y-86995000D03*
D11*
X88265000Y-81915000D03*
D10*
X88265000Y-76835000D03*
D12*
X83185000Y-79375000D03*
X85725000Y-85725000D03*
%TD*%
D10*
%TO.C,SW6*%
X126365000Y-110807500D03*
D11*
X126365000Y-105727500D03*
D10*
X126365000Y-100647500D03*
D12*
X121285000Y-103187500D03*
X123825000Y-109537500D03*
%TD*%
D10*
%TO.C,SW2*%
X64452500Y-134620000D03*
D11*
X64452500Y-129540000D03*
D10*
X64452500Y-124460000D03*
D12*
X59372500Y-127000000D03*
X61912500Y-133350000D03*
%TD*%
D13*
%TO.C,H6*%
X130000000Y-65000000D03*
%TD*%
D14*
%TO.C,D10*%
X123983856Y-95607111D03*
X123983856Y-92307111D03*
%TD*%
D15*
%TO.C,D15*%
X141247933Y-85486790D03*
X144547933Y-85486790D03*
%TD*%
%TO.C,D14*%
X141247933Y-104536806D03*
X144547933Y-104536806D03*
%TD*%
%TO.C,D13*%
X141247933Y-123586822D03*
X144547933Y-123586822D03*
%TD*%
%TO.C,D5*%
X50760357Y-75961782D03*
X54060357Y-75961782D03*
%TD*%
%TO.C,D3*%
X50760357Y-114061814D03*
X54060357Y-114061814D03*
%TD*%
D14*
%TO.C,D7*%
X104933840Y-105132119D03*
X104933840Y-101832119D03*
%TD*%
D15*
%TO.C,D6*%
X120253226Y-116086035D03*
X123553226Y-116086035D03*
%TD*%
D14*
%TO.C,D12*%
X104933812Y-128911043D03*
X104933812Y-125611043D03*
%TD*%
D15*
%TO.C,D2*%
X50760357Y-133111830D03*
X54060357Y-133111830D03*
%TD*%
%TO.C,D9*%
X93622893Y-92630546D03*
X96922893Y-92630546D03*
%TD*%
D14*
%TO.C,D8*%
X85883824Y-95607111D03*
X85883824Y-92307111D03*
%TD*%
D15*
%TO.C,D4*%
X50760357Y-95011798D03*
X54060357Y-95011798D03*
%TD*%
D16*
%TO.C,J1*%
X179784526Y-124634478D03*
D17*
X179784526Y-122634478D03*
%TD*%
D18*
%TO.C,D1*%
X41235321Y-133111870D03*
X37935321Y-133111870D03*
%TD*%
%TO.C,D11*%
X89183796Y-116681348D03*
X85883796Y-116681348D03*
%TD*%
M02*
