M48
; DRILL file {KiCad 9.0.6} date 2026-01-24T17:24:46-0800
; FORMAT={-:-/ absolute / metric / decimal}
; #@! TF.CreationDate,2026-01-24T17:24:46-08:00
; #@! TF.GenerationSoftware,Kicad,Pcbnew,9.0.6
; #@! TF.FileFunction,Plated,1,2,PTH
FMAT,2
METRIC
; #@! TA.AperFunction,Plated,PTH,ViaDrill
T1C0.300
; #@! TA.AperFunction,Plated,PTH,ComponentDrill
T2C0.750
; #@! TA.AperFunction,Plated,PTH,ComponentDrill
T3C1.500
; #@! TA.AperFunction,Plated,PTH,ComponentDrill
T4C2.500
%
G90
G05
T1
X30.0Y-75.0
X30.0Y-87.5
X30.0Y-100.0
X30.0Y-112.5
X30.0Y-120.0
X40.0Y-75.0
X40.0Y-87.5
X40.0Y-100.0
X40.0Y-112.5
X47.5Y-75.0
X47.5Y-87.5
X47.5Y-100.0
X47.5Y-112.5
X47.5Y-137.5
X120.31Y-120.09
X141.83Y-76.78
X162.5Y-87.5
X162.5Y-90.0
X162.5Y-92.5
X162.5Y-95.0
X162.5Y-97.5
X162.5Y-100.0
X162.5Y-102.5
X162.5Y-105.0
X162.5Y-107.5
X162.5Y-110.0
X162.5Y-112.5
X162.5Y-115.0
X162.5Y-117.5
X165.0Y-117.5
X166.27Y-83.9
X167.5Y-85.0
X167.5Y-117.5
X170.0Y-117.5
X172.5Y-85.0
X172.5Y-117.5
X174.05Y-89.71
X174.25Y-116.07
X177.5Y-85.0
X179.5Y-102.75
X180.0Y-85.0
X180.0Y-117.5
X182.5Y-85.0
X182.5Y-117.5
X185.0Y-117.5
X187.5Y-85.0
X187.5Y-117.5
T2
X179.785Y-122.634
X179.785Y-124.634
T3
X35.56Y-122.237
X38.1Y-128.588
X59.372Y-69.85
X59.372Y-88.9
X59.372Y-107.95
X59.372Y-127.0
X61.912Y-76.2
X61.912Y-95.25
X61.912Y-114.3
X61.912Y-133.35
X83.185Y-79.375
X83.185Y-103.188
X85.725Y-85.725
X85.725Y-109.537
X102.235Y-69.85
X102.235Y-88.9
X102.235Y-112.712
X104.775Y-76.2
X104.775Y-95.25
X104.775Y-119.062
X121.285Y-79.375
X121.285Y-103.188
X123.825Y-85.725
X123.825Y-109.537
X149.86Y-79.375
X149.86Y-98.425
X149.86Y-117.475
X152.4Y-85.725
X152.4Y-104.775
X152.4Y-123.825
T4
X30.0Y-65.0
X30.0Y-137.5
X107.5Y-137.5
X130.0Y-65.0
X185.0Y-65.0
X185.0Y-137.5
M30
